<svg width="91" height="119" viewBox="0 0 91 119" fill="none" xmlns="http://www.w3.org/2000/svg">
<path d="M90.168 45.553L81.9525 35.735L84.151 23.1514L72.0939 18.7495L67.6738 6.74204L55.0381 8.93149L45.1795 0.726807L35.321 8.90845L22.6853 6.71899L18.242 18.7264L6.20808 23.1284L8.40659 35.712L0.167969 45.553L8.38345 55.3479L6.18494 67.9315L18.242 72.3335L22.6622 84.3409L27.2906 83.5342V118.727H30.3223C40.204 112.504 36.8252 114.532 45.1795 109.762C53.5339 114.532 50.132 112.481 60.0368 118.727H63.0685V83.5573L67.6969 84.3639L72.1171 72.3565L84.1741 67.9545L81.9756 55.3709L90.168 45.553ZM30.762 82.9581L35.2978 82.1745L35.7144 82.5202V111.214L30.762 114.348V82.9581ZM39.2089 109.185V85.4241L45.1564 90.3792L51.1039 85.4241V109.208L45.1564 105.798L39.2089 109.185ZM59.574 114.348L54.5984 111.214V82.5202L55.015 82.1745L59.5508 82.9581L59.574 114.348ZM69.3863 69.66L65.4058 80.469L54.0199 78.51L45.1564 85.885L36.2929 78.51L24.9301 80.469L20.9497 69.6831L10.1191 65.6959L12.0862 54.3569L4.6807 45.5299L12.0862 36.703L10.1191 25.387L20.9497 21.4229L24.9301 10.637L36.3161 12.5959L45.1795 5.22095L54.043 12.5959L65.429 10.637L69.4094 21.4229L80.24 25.387L78.2729 36.726L85.6784 45.553L78.2729 54.3799L80.24 65.719L69.3863 69.66Z" fill="#7E53F9"/>
<path d="M45.179 14.9928C28.2621 14.9928 14.5156 28.6826 14.5156 45.5299C14.5156 62.3772 28.2621 76.0901 45.179 76.0901C62.096 76.0901 75.8424 62.3772 75.8424 45.553C75.8424 28.7287 62.0728 14.9928 45.179 14.9928ZM45.179 72.633C30.1829 72.633 17.987 60.4873 17.987 45.553C17.987 30.6186 30.1829 18.4498 45.179 18.4498C60.1752 18.4498 72.3711 30.6186 72.3711 45.553C72.3711 60.4873 60.1752 72.633 45.179 72.633Z" fill="#7E53F9"/>
<path d="M45.1798 25.4791L38.7463 38.4315L24.375 40.5057L34.7658 50.6002L32.3128 64.8432L45.1567 58.1135L58.0006 64.8432L55.5475 50.6002L65.9384 40.5057L51.5671 38.4315L45.1798 25.4791ZM51.8448 49.4018L53.4185 58.5283L45.1798 54.2186L36.9412 58.5283L38.5149 49.4018L31.8499 42.9256L41.0605 41.5889L45.1798 33.269L49.2991 41.5889L58.5097 42.9256L51.8448 49.4018Z" fill="#7E53F9"/>
<path d="M55.084 25.5483H58.5322V29.0054H55.084V25.5483Z" fill="#7E53F9"/>
<path d="M58.5098 32.4163H61.9811V35.8733H58.5098V32.4163Z" fill="#7E53F9"/>
</svg>
