<svg width="91" height="91" viewBox="0 0 91 91" fill="none" xmlns="http://www.w3.org/2000/svg">
<path d="M52.4434 80.303H55.0801V82.9397H52.4434V80.303Z" fill="#7E53F9"/>
<path d="M28.7832 0.726807V3.36353H74.873V8.54907L16.127 8.51392V3.36353H25.9004V0.726807C23.0527 0.726807 3.24219 0.726807 0.5 0.726807V90.7268H90.5C90.5 89.3381 90.5 2.06274 90.5 0.726807C89.709 0.726807 30.6816 0.726807 28.7832 0.726807ZM77.5098 3.36353H86.5977L77.5098 15.9143C77.5098 14.5081 77.5098 4.57642 77.5098 3.36353ZM77.5098 24.053L86.5977 36.6038H77.5098V24.053ZM77.5098 39.2405H86.5977L77.5098 51.7913V39.2405ZM16.127 11.1506H26.1641V17.1096H21.9805V28.1135H32.9844V17.1096H28.8008V11.1506L44.1992 11.1682V17.1272H40.0156V28.1311H51.0195V17.1272H46.8359V11.1682L62.2344 11.1858V17.1448H58.0508V28.1487H69.0547V17.1448H64.8711V11.1858H74.873V66.5569H77.5098V59.9299L86.5977 72.4807H77.5098V69.1584H74.873V72.4807C74.082 72.4807 17.1465 72.4807 16.127 72.4807C16.127 69.176 16.127 14.6663 16.127 11.1506ZM30.3477 19.7463V25.4768H24.6172V19.7463H30.3477ZM48.3828 19.7639V25.4944H42.6523V19.7639H48.3828ZM66.418 19.7815V25.512H60.6875V19.7815H66.418ZM13.5078 3.36353V15.9143L4.40234 3.36353H13.5078ZM4.40234 36.6038L13.5078 24.053V36.6038H4.40234ZM13.5078 39.2405V51.7913L4.40234 39.2405H13.5078ZM3.13672 6.10571L12.2422 18.6565H3.13672V6.10571ZM3.13672 21.2932H12.2422L3.13672 33.8616V21.2932ZM3.13672 41.9827L12.2422 54.5334H3.13672V41.9827ZM13.5078 59.9299V72.4807H4.40234L13.5078 59.9299ZM3.13672 57.1877H12.2422L3.13672 69.7385V57.1877ZM11.3105 88.0901H3.13672V75.1174H19.0977V80.303H11.3105V88.0901ZM77 88.0901H13.9473V82.9397H49.7539V80.303H21.7168V75.1174C28.2734 75.1174 40.3672 75.1174 69.2305 75.1174V80.303H57.7695V82.9397H77V88.0901ZM87.8633 88.0901H79.6367V80.303H71.8672V75.1174H87.8633V88.0901ZM87.8633 69.7385L78.7754 57.1877H87.8633V69.7385ZM87.8633 54.551H78.7754L87.8633 42.0002V54.551ZM87.8633 33.8616L78.7754 21.2932H87.8633V33.8616ZM87.8633 18.6741H78.7754L87.8633 6.10571V18.6741Z" fill="#7E53F9"/>
</svg>
