<svg width="91" height="91" viewBox="0 0 91 91" fill="none" xmlns="http://www.w3.org/2000/svg">
<path d="M44.1816 11.5768H46.8184V14.1969H44.1816V11.5768Z" fill="#7E53F9"/>
<path d="M44.1816 16.8699H46.8184V19.49H44.1816V16.8699Z" fill="#7E53F9"/>
<path d="M44.1816 22.1805H46.8184V24.8007H44.1816V22.1805Z" fill="#7E53F9"/>
<path d="M85.9824 12.1043V13.4232C85.9824 17.1864 82.9238 20.2462 79.1621 20.2462C62.041 20.2462 65.1348 20.2462 64.6953 20.2462C65.0117 19.4197 65.2754 18.5756 65.5039 17.7139L62.9551 17.0633C62.6562 18.2415 62.252 19.3845 61.7422 20.4748C59.1055 20.8616 56.627 21.7585 54.3945 23.0597C54.6406 19.9472 54.5176 16.7292 53.7266 13.6869C57.3301 11.8229 60.4062 11.4361 63.6934 11.3306C63.6582 12.2801 63.6055 13.4056 63.4297 14.6365L66.0488 15.0058C66.3301 13.0011 66.3301 11.6295 66.418 8.60488C62.0762 8.74556 58.1035 8.60488 52.918 11.1547C51.002 6.26608 48.4355 3.85694 45.5 0.726807C42.8633 3.54041 39.9453 6.31883 38.0645 11.1547C32.8965 8.60488 28.9062 8.76315 24.582 8.62247C24.6348 10.3106 24.6348 10.1172 24.6523 10.6272C24.7051 12.8605 24.8105 16.3599 26.3047 20.2637C26.2695 20.2637 26.252 20.2637 26.2168 20.2637H11.8379C8.07617 20.2637 5.01758 17.2039 5.01758 13.4408V12.1219H0.5V37.1277C0.5 40.5392 1.36133 43.7573 2.87305 46.5709V90.7444H12.0664V55.2579C14.6328 56.4537 17.4805 57.1219 20.5039 57.1219H25.8477V54.4841H20.5039C10.9238 54.4841 3.13672 46.694 3.13672 37.1102V17.1512C4.57812 20.5275 7.93555 22.9015 11.8379 22.9015H26.2168C36.1133 22.9015 44.1816 30.9554 44.1816 40.8733H46.8184C46.8184 30.973 54.8691 22.9015 64.7832 22.9015H79.1621C83.0645 22.9015 86.4219 20.5275 87.8633 17.1512V37.1102C87.8633 46.694 80.0762 54.4841 70.4961 54.4841H57.084C52.918 54.4841 48.8398 55.8382 45.5 58.3177C42.1602 55.8382 38.0996 54.4841 33.916 54.4841V57.1219C37.8359 57.1219 41.6504 58.5111 44.6562 61.0082L45.5 61.7116L46.3437 61.0082C49.3496 58.4935 53.1641 57.1219 57.084 57.1219H70.4961C81.5176 57.1219 90.5 48.1535 90.5 37.1102V12.1043H85.9824ZM9.42969 53.7631V88.0891H5.50977V50.3341C6.66992 51.653 7.98828 52.796 9.42969 53.7631ZM27.3066 11.3306L28.291 11.3657C31.4375 11.4712 34.4961 12.2626 37.2559 13.6869C36.5 16.6588 36.3594 20.0527 36.6055 23.0597C34.3906 21.7585 31.9121 20.8616 29.2578 20.4748C27.6406 16.9578 27.3945 13.6342 27.3066 11.3306ZM45.5 33.6107C44.252 30.3224 42.1953 27.4208 39.5586 25.1875C39.3828 24.2907 39.2598 23.3763 39.1895 22.4619C38.7148 14.7596 40.6484 9.78308 45.4824 4.59551C49.9121 9.32587 52.2852 14.2848 51.793 22.4619C51.7402 23.3939 51.6172 24.3083 51.4414 25.1875C48.8047 27.4032 46.748 30.3048 45.5 33.6107Z" fill="#7E53F9"/>
<path d="M28.5371 54.4841H31.1738V57.1219H28.5371V54.4841Z" fill="#7E53F9"/>
<path d="M36.5703 47.2215V40.8557C36.5703 35.1582 31.9297 30.5157 26.2344 30.5157H10.7656V37.1101C10.7656 42.4911 15.1426 46.8698 20.5215 46.8698H31.9648C33.7578 46.8698 34.8828 47.0281 36.5703 47.2215ZM33.9336 44.2848C32.6152 44.1969 32.9668 44.2145 20.5039 44.2145C16.584 44.2145 13.3848 41.014 13.3848 37.0925V33.1359H26.2168C30.4707 33.1359 33.916 36.6002 33.916 40.8381L33.9336 44.2848Z" fill="#7E53F9"/>
<path d="M70.4961 46.8698C75.875 46.8698 80.252 42.4911 80.252 37.1101V30.5157H64.7832C59.0879 30.5157 54.4473 35.1582 54.4473 40.8557V47.2215L55.9238 47.0456C56.9609 46.9225 58.0156 46.8698 59.0703 46.8698H70.4961ZM57.0664 40.8557C57.0664 36.6002 60.5293 33.1535 64.7656 33.1535H77.5977V37.1101C77.5977 41.0316 74.416 44.232 70.4785 44.232H59.0352C58.3848 44.232 57.7168 44.2496 57.0664 44.3024V40.8557Z" fill="#7E53F9"/>
<path d="M44.1816 16.8523H46.8184V19.49H44.1816V16.8523Z" fill="#7E53F9"/>
</svg>
