<svg width="91" height="91" viewBox="0 0 91 91" fill="none" xmlns="http://www.w3.org/2000/svg">
<path d="M47.2402 34.4592L49.1211 32.5959L51.0723 34.5647L49.1914 36.428L47.2402 34.4592Z" fill="#7E53F9"/>
<path d="M51.3008 38.5374L53.1816 36.6741L55.0449 38.5549L53.1641 40.4182L51.3008 38.5374Z" fill="#7E53F9"/>
<path d="M55.1504 42.3694L57.0313 40.5061L59.0176 42.4924L57.1367 44.3557L55.1504 42.3694Z" fill="#7E53F9"/>
<path d="M20.2402 62.7249L22.0332 60.7385L24.002 62.5139L22.209 64.5002L20.2402 62.7249Z" fill="#7E53F9"/>
<path d="M90.834 29.7659L81.377 28.9221C83.3281 26.4436 84.8398 23.5608 85.8066 20.4846L83.2754 19.7112C81.7637 24.5803 79.3555 27.3928 76.9121 29.9241L78.2832 31.2952L84.9453 31.8928C80.7266 36.1116 79.4434 37.6584 76.0156 39.0295L69.9512 32.9651C71.7266 31.8752 73.0625 30.135 73.625 28.0784L77.5625 13.9807L63.4648 17.9006C61.4082 18.4807 59.668 19.7991 58.5781 21.5745L52.5137 15.51C53.9375 11.8889 55.6602 10.553 59.6504 6.58032L60.248 13.2424L61.6191 14.6135L62.5508 13.717C67.8242 8.61939 75.6465 6.22876 82.4668 7.61743L83.6445 7.86352C83.9785 9.46313 84.7695 12.592 83.873 17.1799L86.4746 17.6897C87.4941 12.3987 86.5801 9.05884 85.877 5.61353C82.5547 4.92798 77.8262 3.60962 71.0234 5.71899C67.9473 6.66821 65.082 8.17993 62.5859 10.1487L61.7949 0.726807C53.3047 9.21704 52.1621 10.0081 50.5098 13.5237L47.2051 10.219L40.0156 17.4084L43.4785 20.8713C40.543 25.4417 39.3125 30.8381 40.0684 35.9182L32.9668 43.0198L35.6211 45.6741L23.7734 58.7873L25.7422 60.5627L37.502 47.5549L44.0234 54.0764L17.1465 78.387L13.1914 74.4319L20.416 66.4338L18.4473 64.6585L11.3105 72.5686L9.3418 70.5999L0.833984 79.1077L12.4531 90.7268L20.9609 82.219L19.0098 80.2678L45.8867 55.9397L48.541 58.594L55.6426 51.4924C56.6269 51.6331 57.6113 51.7034 58.5957 51.7034C62.7617 51.7034 66.9805 50.4377 70.6895 48.0647L74.1523 51.5276L81.3418 44.3381L78.0371 41.0334C81.5527 39.3987 82.3438 38.2561 90.834 29.7659ZM12.4531 86.9827L4.56055 79.0901L9.32422 74.3264L9.51758 74.5198L17.0234 82.0256L17.1992 82.2014L12.4531 86.9827ZM64.1855 20.467L73.7656 17.7952L71.0938 27.3752C70.6367 28.9924 69.5117 30.3284 68.0176 31.0315L60.5293 23.5432C61.25 22.0491 62.5684 20.9241 64.1855 20.467ZM48.5586 54.8499L47.873 54.1643L37.3965 43.7053L36.7109 43.0198L41.4746 38.2561L53.3047 50.0862L48.5586 54.8499ZM74.1523 47.801L67.2441 40.8928L65.3809 42.7561L68.7734 46.1487C64.7832 48.5569 60.1602 49.5413 55.8359 48.8381L42.7227 35.7249C42.0371 31.4006 43.0039 26.7776 45.4121 22.7874L63.5 40.8752L65.3633 39.012C64.4316 38.0803 44.4277 18.0764 43.7598 17.4084L47.2051 13.9631C48.2246 14.9827 76.5781 43.3362 77.5977 44.3557L74.1523 47.801Z" fill="#7E53F9"/>
</svg>
