<svg width="91" height="99" viewBox="0 0 91 99" fill="none" xmlns="http://www.w3.org/2000/svg">
<path d="M33.0938 21.1499L33.6876 18.3362L36.3696 18.8913L35.7757 21.7049L33.0938 21.1499Z" fill="#7E53F9"/>
<path d="M89.7612 86.094L72.0792 84.7351L68.5543 67.6999C76.1405 65.3839 80.7574 57.4022 78.6118 49.4589L69.5313 16.0202L45.9106 20.9011L39.2823 19.5038L38.6884 22.3175L44.3014 23.4851L42.3091 36.9983L18.9757 39.0464L24.378 19.3315L30.2784 20.5757L30.8723 17.762L22.3282 15.9819L13.152 49.3632C10.9872 57.3065 15.5849 65.3073 23.1712 67.6425L19.6079 84.6776L1.90678 85.9983L0.833984 91.1472L37.0026 98.7077L38.0754 93.5589L22.4049 85.2519L25.9681 68.2167C26.5428 68.2741 27.0984 68.3124 27.6731 68.3124C34.7995 68.3124 41.3512 63.1253 42.4815 55.4882L45.8915 32.3089L49.2439 55.5073C50.3551 63.221 57.0026 68.3698 64.0524 68.3698C64.6079 68.3698 65.1635 68.3315 65.719 68.2741L69.2439 85.3093L53.5543 93.578L54.6271 98.7269L67.3857 96.0854L66.811 93.2718L56.8685 95.339L56.8302 95.1093L71.198 87.5296L87.4049 88.7737L87.4432 89.0034L69.6079 92.6976L70.1826 95.5112L90.834 91.2429L89.7612 86.094ZM34.8378 95.0901L34.7995 95.3198L4.22479 88.9268L4.2631 88.6972L20.47 87.4722L34.8378 95.0901ZM39.6462 55.0862C38.6309 61.996 32.0217 66.628 25.1635 65.1925C18.3053 63.7569 14.0907 56.8663 15.9489 50.1288L18.1712 41.994L41.8876 39.946L39.6462 55.0862ZM52.0984 55.1054L49.9719 40.3671L66.2171 45.1905L67.0409 42.4343L49.5121 37.2472L47.5198 23.5042L67.4623 19.3698L74.3014 44.5589L69.8761 43.2382L69.0524 45.9944L75.1826 47.8128L75.834 50.1862C76.7152 53.4401 76.2363 56.828 74.4547 59.6991C68.5543 69.2886 53.7267 66.3601 52.0984 55.1054Z" fill="#7E53F9"/>
<path d="M44.3594 8.32563L44.436 0.726807L47.3096 0.745947L47.2329 8.34478L44.3594 8.32563Z" fill="#7E53F9"/>
<path d="M30.9863 7.50259L32.8637 5.32056L38.63 10.2588L36.7526 12.4409L30.9863 7.50259Z" fill="#7E53F9"/>
<path d="M53.0371 10.2205L58.8034 5.28223L60.6808 7.46426L54.9145 12.4025L53.0371 10.2205Z" fill="#7E53F9"/>
<path d="M30.1445 32.4812L32.9989 32.1749L33.3055 35.0269L30.451 35.3331L30.1445 32.4812Z" fill="#7E53F9"/>
<path d="M35.9102 31.8495L38.5921 31.5624L38.8987 34.4143L36.2167 34.7014L35.9102 31.8495Z" fill="#7E53F9"/>
</svg>
