<svg width="91" height="109" viewBox="0 0 91 109" fill="none" xmlns="http://www.w3.org/2000/svg">
<path d="M79.5007 27.1361L77.4769 29.583C83.4431 34.5189 87.006 42.9986 87.006 52.2799C87.006 66.8979 78.0882 79.0057 66.8514 79.0057C60.5057 78.9846 54.687 75.1033 50.8922 68.4799H56.0784V64.7252L49.6905 59.958C62.9301 56.6674 70.0981 40.3619 68.1585 25.5963C70.5619 25.7861 72.902 26.5455 75.1156 27.8744L76.739 25.1533C73.8507 23.4447 70.7938 22.5166 67.6104 22.39C66.7882 18.7197 65.46 15.3236 63.6258 12.2861L60.8851 13.9314C68.285 26.1869 66.1346 44.1166 56.3735 52.8072C41.1522 66.4338 21.2506 47.8291 25.6146 24.2463C28.798 7.05488 43.3658 -1.17168 54.8135 7.18145L56.6687 4.6291C43.661 -4.84199 26.9428 3.70098 22.7685 22.4111C16.7179 22.6432 11.0889 25.765 6.8514 31.3127C-2.10854 42.9986 -2.10854 61.9197 7.08331 73.5635L9.57101 71.6018C-3.12049 55.5072 4.78535 27.0307 22.2203 25.6174C20.1121 41.6908 28.3342 56.8994 40.6673 59.9791L34.2794 64.7463V68.501H39.4656C33.0144 79.7439 20.6181 82.7182 11.5317 73.7955L9.31802 76.0314C12.1852 78.858 15.474 80.7354 18.9526 81.6002L12.5647 86.3674V90.1221H21.883V108.727H25.0454V90.1221H34.3637V86.3674L27.9758 81.6002C30.5478 80.9674 32.9934 79.765 35.2702 78.0775C38.4115 75.715 41.0889 72.4033 43.0707 68.4799H43.6188V108.727H46.7811V68.4799H47.3293C50.4494 74.7025 55.6357 79.9127 62.4031 81.6213L56.0151 86.3885V90.1432H65.3335V108.727H68.4958V90.1221H77.8142V86.3674L71.4263 81.6002C76.0011 80.4611 80.1965 77.5924 83.5274 73.2471C93.8156 59.7893 91.9393 37.4299 79.5007 27.1361ZM17.0763 86.958L23.4642 82.1908L29.8521 86.958H17.0763ZM45.1789 60.5486L51.5668 65.3158H38.8121L45.1789 60.5486ZM60.5057 86.958L66.8936 82.1908L73.2815 86.958H60.5057Z" fill="#7E53F9"/>
<path d="M61.4539 9.22749C60.8215 8.42593 60.1257 7.66655 59.43 6.97046L57.1953 9.2064C57.8067 9.81812 58.4181 10.4931 58.9662 11.1892L61.4539 9.22749Z" fill="#7E53F9"/>
<path d="M29.9355 36.7338H33.0979V39.8978H29.9355V36.7338Z" fill="#7E53F9"/>
<path d="M33.0996 42.9987H36.2619V46.1627H33.0996V42.9987Z" fill="#7E53F9"/>
</svg>
