<svg width="29" height="24" viewBox="0 0 29 24" fill="none" xmlns="http://www.w3.org/2000/svg">
<path d="M1.9894 10.3331C9.7576 6.94866 14.9376 4.7174 17.5295 3.63937C24.9297 0.561364 26.4674 0.0266819 27.4696 0.00883816C27.6901 0.00514327 28.1829 0.0597735 28.5022 0.318836C28.7718 0.537583 28.846 0.833079 28.8815 1.04048C28.917 1.24787 28.9611 1.72033 28.926 2.08949C28.525 6.30304 26.7898 16.5282 25.907 21.2475C25.5335 23.2444 24.798 23.9139 24.0859 23.9795C22.5385 24.1218 21.3634 22.9568 19.8646 21.9743C17.5193 20.4369 16.1944 19.4799 13.9178 17.9797C11.2869 16.246 12.9924 15.2931 14.4918 13.7358C14.8842 13.3283 21.7023 7.12666 21.8343 6.56407C21.8508 6.49371 21.8661 6.23144 21.7103 6.09295C21.5545 5.95446 21.3245 6.00182 21.1586 6.03949C20.9233 6.09288 17.1767 8.56927 9.9186 13.4687C8.85513 14.1989 7.89187 14.5547 7.02882 14.5361C6.07737 14.5155 4.24718 13.9981 2.88662 13.5559C1.21783 13.0134 -0.108482 12.7266 0.00701071 11.8054C0.0671663 11.3255 0.727962 10.8348 1.9894 10.3331Z" fill="#FB6CC2"/>
</svg>
