<svg width="236" height="226" viewBox="0 0 236 226" fill="none" xmlns="http://www.w3.org/2000/svg">
<path d="M110.78 5.13093C113.678 -0.94205 122.322 -0.942046 125.22 5.13093L154.724 66.9613C155.89 69.4053 158.214 71.0935 160.899 71.4474L228.82 80.4007C235.491 81.2801 238.163 89.5015 233.282 94.1342L183.595 141.301C181.631 143.165 180.744 145.897 181.237 148.559L193.711 215.923C194.936 222.54 187.942 227.621 182.028 224.411L121.816 191.731C119.436 190.439 116.564 190.439 114.184 191.731L53.9717 224.411C48.0577 227.621 41.0641 222.54 42.2893 215.923L54.7631 148.559C55.2561 145.897 54.3686 143.165 52.4046 141.301L2.71765 94.1342C-2.1626 89.5015 0.508701 81.2801 7.17994 80.4007L75.1013 71.4474C77.7861 71.0935 80.1097 69.4053 81.2759 66.9613L110.78 5.13093Z" fill="#C915FE"/>
</svg>
