<svg width="114" height="114" viewBox="0 0 114 114" fill="none" xmlns="http://www.w3.org/2000/svg">
<path d="M0.875 75.0818H9.61655V78.3923H0.875V75.0818Z" fill="#FB6CC2"/>
<path d="M7.14453 95.1877L13.3254 89.0081L15.6653 91.3475L9.48444 97.5272L7.14453 95.1877Z" fill="#FB6CC2"/>
<path d="M7.14453 58.264L9.48444 55.9246L15.6653 62.1042L13.3254 64.4437L7.14453 58.264Z" fill="#FB6CC2"/>
<path d="M105.133 75.0818H113.874V78.3923H105.133V75.0818Z" fill="#FB6CC2"/>
<path d="M99.0625 62.1042L105.243 55.9246L107.583 58.264L101.402 64.4437L99.0625 62.1042Z" fill="#FB6CC2"/>
<path d="M99.0625 91.3695L101.402 89.03L107.583 95.2097L105.243 97.5492L99.0625 91.3695Z" fill="#FB6CC2"/>
<path d="M90.8281 15.4257V33.3468C86.4353 30.8087 80.8945 33.9868 80.8945 39.0851C80.8945 42.7267 83.8746 45.7061 87.5169 45.7061C91.1813 45.7061 94.1614 42.7267 94.1393 39.063V28.1382L110.563 23.5255V32.9716C106.17 30.4335 100.629 33.6116 100.629 38.7099C100.629 42.3515 103.609 45.331 107.252 45.331C110.784 45.331 113.653 42.5722 113.852 39.1071H113.874V8.93701L90.8281 15.4257ZM87.5169 42.3735C85.6847 42.3735 84.2057 40.8948 84.2057 39.063C84.2057 37.2311 85.6847 35.7524 87.5169 35.7524C89.3491 35.7524 90.8281 37.2311 90.8281 39.063C90.8281 40.8948 89.327 42.3735 87.5169 42.3735ZM94.1393 24.6731V17.9196L110.563 13.3069V20.0604L94.1393 24.6731ZM107.252 41.9542C105.419 41.9542 103.94 40.4755 103.94 38.6436C103.94 36.8118 105.419 35.3331 107.252 35.3331C109.084 35.3331 110.563 36.8118 110.563 38.6436C110.563 40.4755 109.084 41.9542 107.252 41.9542Z" fill="#FB6CC2"/>
<path d="M24.4948 19.5749C21.4044 19.5749 18.6009 18.0079 16.9674 15.3815L14.7158 11.762H10.8086V32.486C6.41573 29.9479 0.875 33.126 0.875 38.2243C0.875 41.8659 3.85507 44.8454 7.49739 44.8454C11.1838 44.8454 14.2081 41.8217 14.1198 38.0698V17.0809C16.4597 20.8329 20.3669 22.8854 24.4948 22.8854V19.5749ZM7.49739 41.5348C5.66519 41.5348 4.18619 40.0561 4.18619 38.2243C4.18619 36.3924 5.66519 34.9137 7.49739 34.9137C9.32958 34.9137 10.8086 36.3924 10.8086 38.2243C10.8086 40.0561 9.32958 41.5348 7.49739 41.5348Z" fill="#FB6CC2"/>
<path d="M70.4986 42.1528L67.6731 30.3893H59.0419V14.0573H85.0238V0.726807H29.7268V14.0573H55.7086V30.3893H47.0113L44.2298 42.1528C41.2719 43.2784 38.4684 44.7792 35.8415 46.6551L37.762 49.3477C42.0886 46.2579 47.0113 44.2495 52.1988 43.4549C47.8501 48.1118 44.583 55.4833 42.9937 64.2231H26.0624C27.2545 61.2657 28.8659 58.4628 30.8968 55.9026L28.292 53.8501C23.1044 60.427 20.3672 68.3282 20.3672 76.737C20.3672 107.481 55.8411 124.674 79.9687 106.002L77.9378 103.376C73.3683 106.907 68.0925 109.158 62.4635 110.019C66.7901 105.384 70.0572 97.9686 71.6907 89.2288H88.644C86.8339 93.7532 84.0525 97.8583 80.366 101.301L82.6397 103.707C90.0788 96.7327 94.3392 86.9114 94.3392 76.7149C94.3613 60.9567 84.4277 47.4717 70.4986 42.1528ZM33.038 4.03735H81.7126V10.7467H33.038V4.03735ZM88.644 64.2231H71.7348C70.1234 55.5053 66.8343 48.0897 62.5297 43.4549C74.4058 45.2868 84.2732 53.3645 88.644 64.2231ZM49.6381 33.6999H65.0683L66.8122 40.961C60.4988 39.3057 53.9427 39.3719 47.9384 40.961L49.6381 33.6999ZM57.3642 43.3667C63.5231 47.5159 66.9446 56.962 68.3574 64.2452H46.3932C48.2695 54.6005 52.265 46.7876 57.3642 43.3667ZM24.9587 67.5337H42.486C42.1107 70.4911 41.8899 73.5589 41.8899 76.7149C41.8899 79.871 42.0886 82.9608 42.486 85.9182H24.9587C24.1199 83.005 23.6784 79.9151 23.6784 76.737C23.7005 73.5809 24.1419 70.4911 24.9587 67.5337ZM26.1066 89.2288H43.0157C44.6272 97.9686 47.8722 105.34 52.2209 109.997C40.3226 108.165 30.4774 100.087 26.1066 89.2288ZM57.3642 110.107C52.2429 106.664 48.2695 98.8735 46.3932 89.2288H68.3574C66.9226 96.6003 63.501 105.98 57.3642 110.107ZM89.7919 85.9182H72.2425C72.5737 83.4684 72.7723 80.9524 72.8165 78.3702L69.5053 78.304C69.4391 80.9083 69.2404 83.4464 68.9093 85.9182H45.8413C45.4219 82.9608 45.2232 79.871 45.2232 76.7149C45.2232 73.5589 45.444 70.469 45.8413 67.5337H68.9093C69.2404 70.0055 69.4611 72.5657 69.5053 75.17L72.8165 75.1038C72.7503 72.5216 72.5516 69.9835 72.2425 67.5337H89.7698C91.5137 73.6251 91.4254 80.0696 89.7919 85.9182Z" fill="#FB6CC2"/>
<path d="M35.1354 51.4444L32.9501 48.9504C32.1554 49.6567 31.3828 50.385 30.6543 51.1354L33.0384 53.4307C33.7227 52.7686 34.407 52.0844 35.1354 51.4444Z" fill="#FB6CC2"/>
<path d="M52.4199 75.1038H55.709V78.4143H52.4199V75.1038Z" fill="#FB6CC2"/>
<path d="M59.0195 75.1038H62.3307V78.4143H59.0195V75.1038Z" fill="#FB6CC2"/>
</svg>
