<svg width="114" height="95" viewBox="0 0 114 95" fill="none" xmlns="http://www.w3.org/2000/svg">
<path d="M15.7422 90.9224H19.2734V94.2268H15.7422V90.9224Z" fill="#FB6CC2"/>
<path d="M67.6084 19.018V0.226807H61.8701V3.53124H64.2979V27.213H49.9521V3.53124H58.3389V0.226807H46.6416V19.018H0.625V94.2268H12.6533V90.9224H3.93555V22.3224H46.6416V27.213H41.1682V30.5174H73.0598V27.213H67.5863V22.3224H110.314V90.9224H23.1809V94.2268H113.625V19.018H67.6084Z" fill="#FB6CC2"/>
<path d="M12.5215 38.7563V71.8006V71.8227V83.278H49.0479V71.8227V71.8006V38.7563H12.5215ZM28.368 68.7606C29.1404 68.9588 29.935 69.069 30.7736 69.069C31.6123 69.069 32.4068 68.9588 33.1793 68.7606V70.4789C33.1793 71.8006 32.0979 72.8801 30.7736 72.8801C29.4494 72.8801 28.368 71.8006 28.368 70.4789V68.7606ZM36.7326 59.8386C36.7326 63.099 34.0621 65.7646 30.7957 65.7646C27.5293 65.7646 24.8588 63.099 24.8588 59.8386V56.3579C24.8588 53.0976 27.5293 50.432 30.7957 50.432C34.0621 50.432 36.7326 53.0976 36.7326 56.3579V59.8386ZM25.0574 69.069V70.4568C25.0574 73.6071 27.6176 76.1625 30.7736 76.1625C33.9297 76.1625 36.4898 73.6071 36.4898 70.4568V69.069H42.9785C44.5014 69.069 45.7373 70.3026 45.7373 71.8006V79.9516H15.832V71.8006C15.832 70.2806 17.068 69.069 18.5908 69.069H25.0574ZM45.7373 42.0608V66.4254C44.8986 66.0069 43.9717 65.7646 42.9785 65.7646H37.8803C39.2266 64.1564 40.0432 62.0856 40.0432 59.8386V56.3579C40.0432 51.2691 35.8939 47.1276 30.7957 47.1276C25.6975 47.1276 21.5482 51.2691 21.5482 56.3579V59.8386C21.5482 62.0856 22.3648 64.1564 23.7111 65.7646H18.5908C17.5977 65.7646 16.6707 66.0069 15.832 66.4254V42.0608H45.7373Z" fill="#FB6CC2"/>
<path d="M85.3301 38.7563H100.095V42.0608H85.3301V38.7563Z" fill="#FB6CC2"/>
<path d="M59.8398 38.7563H81.9102V42.0608H59.8398V38.7563Z" fill="#FB6CC2"/>
<path d="M59.8398 49.0664H79.968V52.3708H59.8398V49.0664Z" fill="#FB6CC2"/>
<path d="M59.8398 59.376H100.074V62.6804H59.8398V59.376Z" fill="#FB6CC2"/>
<path d="M59.8398 69.6638H79.968V72.9682H59.8398V69.6638Z" fill="#FB6CC2"/>
<path d="M59.8398 79.9736H100.074V83.2781H59.8398V79.9736Z" fill="#FB6CC2"/>
<path d="M90.1426 27.2129H93.4531V30.5173H90.1426V27.2129Z" fill="#FB6CC2"/>
<path d="M96.7637 27.2129H100.074V30.5173H96.7637V27.2129Z" fill="#FB6CC2"/>
</svg>
