<svg width="114" height="114" viewBox="0 0 114 114" fill="none" xmlns="http://www.w3.org/2000/svg">
<path d="M94.1188 32.0667V21.1198H90.8076L90.7855 55.1743L62.839 75.17C60.455 75.17 52.773 75.17 50.3889 75.17L22.4866 55.1522L22.5307 4.03735H36.0846V0.726807H19.2196L19.1975 32.0004L0.169149 40.4534C0.169149 40.6741 0.125 112.094 0.125 113.639L113.081 113.727L113.125 43.2563V40.5416L94.1188 32.0667ZM94.1188 35.6862L108.865 42.2411L94.1188 52.7907V35.6862ZM19.1975 35.62L19.1754 52.7245L4.42955 42.1528L19.1975 35.62ZM5.82025 110.35L21.714 98.9838L19.7935 96.2913L3.43619 107.989L3.48034 45.5516L47.0336 76.8032L27.8949 90.4868L29.8154 93.1793L50.3889 78.4585C52.773 78.4585 60.455 78.4585 62.839 78.4585L107.408 110.416L5.82025 110.35ZM109.77 108.055L66.2164 76.8032L109.814 45.6178L109.77 108.055Z" fill="#FB6CC2"/>
<path d="M22.5312 94.2829L25.2023 92.3628L27.1228 95.0554L24.4517 96.9755L22.5312 94.2829Z" fill="#FB6CC2"/>
<path d="M90.8085 17.8096H94.1197L94.1417 0.771338L39.4629 0.749268V4.05981L90.8085 4.10395V17.8096Z" fill="#FB6CC2"/>
<path d="M34.0977 48.6414H79.2182V51.9519H34.0977V48.6414Z" fill="#FB6CC2"/>
<path d="M32.9277 23.1502C32.9277 25.8428 35.091 28.0498 37.7841 28.116L44.0975 44.3156L69.1742 44.3377L75.5317 28.116C78.2248 28.0498 80.3882 25.8428 80.3882 23.1502C80.3882 20.4135 78.1586 18.1844 75.4214 18.1844C71.2934 18.1844 68.9756 22.9516 71.4921 26.1959L69.2184 27.6305C66.3266 29.4402 62.4856 28.1602 61.2715 24.96L58.9095 18.7803C60.521 17.9637 61.6247 16.2863 61.6247 14.3662C61.6247 11.6295 59.3952 9.40039 56.6579 9.40039C51.4704 9.40039 49.7707 16.4188 54.4063 18.7803L52.0443 24.9379C51.4704 26.4607 50.2342 27.6305 48.689 28.1381C45.8635 29.0871 44.1196 27.6084 41.8238 26.1738C44.3403 22.9295 42.0004 18.1844 37.8945 18.1844C35.1573 18.1844 32.9277 20.4135 32.9277 23.1502ZM75.4214 21.4949C76.3264 21.4949 77.077 22.2453 77.077 23.1502C77.077 24.0551 76.3264 24.8055 75.4214 24.8055C74.5163 24.8055 73.7658 24.0551 73.7658 23.1502C73.7658 22.2453 74.5163 21.4949 75.4214 21.4949ZM56.6579 12.6889C57.563 12.6889 58.3135 13.4393 58.3135 14.3441C58.3135 15.249 57.563 15.9994 56.6579 15.9994C55.7529 15.9994 55.0023 15.249 55.0023 14.3441C55.0023 13.4393 55.7529 12.6889 56.6579 12.6889ZM55.1348 26.1297L56.6579 22.157L58.1811 26.1297C60.1457 31.2721 66.3266 33.3467 70.9844 30.4334L71.1168 30.3451L66.9447 41.0051L46.3932 40.983L42.2211 30.301C47.2321 33.4791 53.2585 31.0734 55.1348 26.1297ZM37.8945 21.4949C38.7996 21.4949 39.5501 22.2453 39.5501 23.1502C39.5501 24.0551 38.7996 24.8055 37.8945 24.8055C36.9895 24.8055 36.2389 24.0551 36.2389 23.1502C36.2389 22.2453 36.9895 21.4949 37.8945 21.4949Z" fill="#FB6CC2"/>
<path d="M41.3379 57.9993H71.9554V61.3098H41.3379V57.9993Z" fill="#FB6CC2"/>
<path d="M51.8008 66.9597H55.112V70.2703H51.8008V66.9597Z" fill="#FB6CC2"/>
<path d="M58.4902 66.9597H61.6028V70.2703H58.4902V66.9597Z" fill="#FB6CC2"/>
</svg>
