<svg width="114" height="101" viewBox="0 0 114 101" fill="none" xmlns="http://www.w3.org/2000/svg">
<path d="M77.9301 38.4601H113.375V15.7902H90.8191C91.9006 13.355 92.0992 10.6541 91.415 8.06387C90.5984 5.07516 88.7004 2.59564 86.0078 1.04593L84.5732 0.226807L75.6789 15.7902H61.907V19.111H110.064V35.1394H49.1283L44.4273 26.9259L41.5582 28.5863L51.0705 45.2346L45.3543 48.5111C44.957 47.8026 26.9256 16.233 26.3076 15.1925C25.6014 13.9527 25.2262 12.5359 25.2262 11.0969C25.2262 8.70589 26.2635 6.44775 28.007 4.89805L39.8367 25.5976L42.7059 23.9372L39.9471 19.0889H51.9533V15.7681H38.049L29.1768 0.226807L27.7422 1.04593C24.1668 3.10482 21.9377 6.95694 21.9377 11.0969C21.9377 12.713 22.2908 14.3069 22.9309 15.7902H0.375V38.4601H35.8199C44.3611 53.4258 36.3937 39.4564 49.2607 61.9935L45.9723 67.7495C44.5818 66.1555 42.9266 64.8051 41.0506 63.7203C31.7148 58.3406 19.8189 61.595 14.4559 70.9596C5.8043 86.0803 19.8852 104.167 36.5924 99.4962C41.6465 98.0794 45.8178 94.7807 48.3559 90.2202C48.9076 89.2682 52.2402 83.4236 56.875 75.3209C61.5098 83.4236 64.8424 89.2682 65.3721 90.198C67.9102 94.7807 72.1035 98.0794 77.1576 99.4962C85.3236 101.777 93.6221 98.5 98.2127 92.0798L95.5201 90.1538C88.6783 99.7176 74.0457 99.0313 68.2633 88.5819C67.6895 87.5635 63.9154 80.9662 58.7951 72.0001C60.009 69.8969 61.267 67.6609 62.5912 65.3585L67.4688 73.904C69.1902 71.3138 70.6027 68.7679 74.3547 66.6204C78.1066 64.473 82.4545 63.8974 86.6258 65.0486C96.4029 67.7052 101.236 78.531 97.043 87.5635L100.045 88.9583C105.077 78.0882 99.2721 65.0486 87.4865 61.8385C79.9826 59.8017 72.4346 62.4584 67.7777 67.7716L64.4893 62.0156C74.2002 44.9689 71.5076 49.6844 77.9301 38.4601ZM85.7209 4.89805C86.9127 5.9607 87.7955 7.35543 88.2148 8.92727C88.7887 11.0526 88.5018 13.2886 87.4203 15.1925C87.31 15.3917 87.1996 15.5688 87.0893 15.7902H79.5191L85.7209 4.89805ZM3.68555 35.1394V19.111H24.7627C26.8814 22.8303 28.8457 26.2618 33.9219 35.1394H3.68555ZM68.3736 48.5111L62.6574 45.2346L66.5418 38.4601H74.134C71.2428 43.4635 70.0289 45.6109 68.3736 48.5111ZM62.7236 38.4601L56.875 48.666L51.0264 38.438H62.7236V38.4601ZM47.0316 51.3891L52.7479 48.1126L54.977 52.009L51.1809 58.6505L47.0316 51.3891ZM45.4867 88.5598C43.39 92.3676 39.9029 95.1128 35.7096 96.2861C21.8053 100.16 10.1742 85.1283 17.325 72.5978C21.7611 64.8272 31.6486 62.1263 39.3953 66.5983C41.5803 67.8602 43.4121 69.5649 44.8025 71.6459L46.2812 73.8819L61.0022 48.1126L66.7184 51.3891C64.423 55.3962 47.2965 85.394 45.4867 88.5598Z" fill="#FB6CC2"/>
<path d="M28.603 70.4284C19.5763 72.8858 17.9431 85.1505 26.1091 89.8439C34.231 94.5152 44.0302 87.0102 41.5583 77.8669C40.0355 72.2216 34.231 68.9008 28.603 70.4284ZM37.6519 84.2871C35.6655 87.7629 31.2073 88.9805 27.7423 86.988C22.1585 83.7779 23.24 75.3431 29.4417 73.6385C35.6655 71.9559 40.8741 78.6418 37.6519 84.2871Z" fill="#FB6CC2"/>
<path d="M77.1363 71.4688C72.0822 74.369 70.3166 80.8777 73.2298 85.9474C76.121 91.0172 82.6097 92.7883 87.6638 89.866C92.7179 86.9658 94.4835 80.4571 91.5703 75.3873C88.657 70.3176 82.1904 68.5465 77.1363 71.4688ZM85.9865 86.988C82.5214 88.9804 78.0632 87.7849 76.0769 84.287C74.0906 80.8113 75.2824 76.3393 78.7695 74.3468C82.2345 72.3543 86.6927 73.5498 88.6791 77.0477C90.6654 80.5235 89.4736 84.9733 85.9865 86.988Z" fill="#FB6CC2"/>
<path d="M55.2852 15.7903H58.6619V19.1111H55.3072L55.2852 15.7903Z" fill="#FB6CC2"/>
<path d="M96.1152 25.4648H99.4258V28.7635H96.1152V25.4648Z" fill="#FB6CC2"/>
<path d="M102.736 25.4648H106.047V28.7856H102.736V25.4648Z" fill="#FB6CC2"/>
</svg>
