<svg width="330" height="46" viewBox="0 0 330 46" fill="none" xmlns="http://www.w3.org/2000/svg">
<path fill-rule="evenodd" clip-rule="evenodd" d="M214.572 4.20605C216.869 4.20605 218.838 4.65727 220.561 5.47765C222.284 6.29804 223.596 7.4876 224.54 8.96429C225.483 10.482 225.975 12.2048 225.975 14.2148C225.975 16.2247 225.483 17.9475 224.54 19.4652C223.596 20.9419 222.284 22.1315 220.561 22.9519C218.838 23.8133 216.869 24.2235 214.572 24.2235C212.316 24.2235 210.347 23.7722 208.624 22.9519C206.901 22.1315 205.589 20.9829 204.645 19.4652C203.702 17.9475 203.21 16.2247 203.21 14.2148C203.21 12.2048 203.702 10.482 204.645 8.96429C205.589 7.4876 206.901 6.29804 208.624 5.47765C210.306 4.61625 212.316 4.20605 214.572 4.20605ZM217.812 18.8089C218.715 18.3987 219.412 17.7834 219.904 17.0041C220.397 16.2247 220.643 15.2813 220.643 14.1737C220.643 13.0662 220.397 12.1228 219.904 11.3434C219.412 10.564 218.715 9.94875 217.812 9.53856C216.91 9.08735 215.844 8.88225 214.613 8.88225C213.382 8.88225 212.316 9.12837 211.413 9.53856C210.511 9.94875 209.814 10.564 209.321 11.3434C208.829 12.1638 208.583 13.0662 208.583 14.1737C208.583 15.2813 208.829 16.2247 209.321 17.0041C209.814 17.7834 210.511 18.3987 211.413 18.8089C212.316 19.2601 213.382 19.4652 214.613 19.4652C215.844 19.4652 216.91 19.2191 217.812 18.8089ZM140.409 17.6193H145.66C145.639 17.6603 145.608 17.7012 145.578 17.7422L145.578 17.7423C145.547 17.7833 145.516 17.8244 145.495 17.8654C144.921 18.5627 144.183 19.0549 143.198 19.4241C142.255 19.7933 141.147 19.9574 139.917 19.9574C138.645 19.9574 137.538 19.7523 136.594 19.3011C135.651 18.8909 134.913 18.2346 134.42 17.3732C133.928 16.5117 133.641 15.4863 133.641 14.2147C133.641 12.9841 133.887 11.9586 134.338 11.1382C134.83 10.3178 135.487 9.70255 136.348 9.29236C137.21 8.88217 138.235 8.67707 139.425 8.67707C140.409 8.67707 141.312 8.80012 142.05 9.04624C142.829 9.29236 143.486 9.66153 143.978 10.1127C144.511 10.564 144.839 11.1382 145.003 11.7945H150.336C150.049 10.3178 149.474 9.00522 148.531 7.8977C147.587 6.79018 146.357 5.88776 144.839 5.23145C143.321 4.57514 141.476 4.24699 139.384 4.24699C137.784 4.24699 136.348 4.45208 134.995 4.90329C133.641 5.3545 132.492 5.9698 131.467 6.8312C130.441 7.69261 129.662 8.71809 129.088 9.98968C128.514 11.2203 128.226 12.6559 128.226 14.2557C128.226 15.8554 128.514 17.2911 129.047 18.5217C129.58 19.7523 130.359 20.8188 131.385 21.6802C132.369 22.5416 133.518 23.1569 134.83 23.6081C136.143 24.0593 137.538 24.2644 139.055 24.2644C140.614 24.2644 142.009 24.0183 143.198 23.5671C144.388 23.1158 145.372 22.4595 146.152 21.6392C146.275 21.5161 146.398 21.393 146.48 21.229L146.726 23.8132H150.5V13.8865H140.327V17.6193H140.409ZM85.7304 4.61625L91.5962 18.6038L97.3799 4.61625H105.584V23.7722H100.538V9.25143L94.2624 23.7722H88.8889L82.613 9.33346V23.7722H77.5676V4.61625H85.7304ZM125.519 16.1016H113.87V19.5062H126.381V23.7722H108.578V4.61625H126.257V8.92327H113.87V12.2868H125.519V16.1016ZM151.648 23.7722L160.344 4.61625H167.4L176.096 23.7722H170.435L168.835 20.0805H158.909L157.309 23.7722H151.648ZM163.831 8.67716L160.714 15.8555H166.949L163.831 8.67716ZM198.164 5.43663C197.016 4.90338 195.621 4.61625 194.021 4.61625H183.274V23.7722H188.566V17.8245H194.021C195.621 17.8245 197.016 17.5373 198.164 17.0041C199.313 16.4708 200.215 15.6915 200.83 14.707C201.446 13.7225 201.733 12.574 201.733 11.2614C201.733 9.94875 201.446 8.75919 200.83 7.77473C200.256 6.74925 199.354 5.96988 198.164 5.43663ZM195.703 12.9842C195.211 13.3944 194.555 13.5995 193.693 13.5995H188.566V8.88226H193.693C194.555 8.88226 195.211 9.08735 195.703 9.49754C196.195 9.90774 196.4 10.482 196.4 11.2614C196.4 11.9587 196.154 12.533 195.703 12.9842ZM244.475 13.0661C243.367 12.6559 241.932 12.3688 240.086 12.2047L236.271 11.8356C235.164 11.7535 234.425 11.5484 234.015 11.2613C233.605 10.9741 233.4 10.646 233.4 10.1948C233.4 9.57949 233.769 9.12828 234.466 8.80012C235.164 8.47197 236.107 8.30789 237.297 8.30789C238.199 8.30789 238.937 8.38993 239.553 8.59503C240.168 8.7591 240.701 9.04624 241.029 9.3744C241.358 9.70255 241.604 10.1127 241.686 10.564H247.059C246.977 9.29235 246.526 8.18484 245.706 7.2414C244.844 6.29795 243.737 5.5596 242.301 5.02635C240.865 4.4931 239.225 4.24699 237.379 4.24699C235.492 4.24699 233.851 4.4931 232.456 4.94431C231.062 5.39553 229.954 6.09286 229.175 7.0363C228.395 7.93872 228.026 9.08726 228.026 10.3999C228.026 12.0406 228.642 13.3533 229.831 14.2967C231.021 15.2402 232.949 15.8554 235.574 16.1016L239.142 16.4297C240.332 16.5528 241.152 16.7579 241.604 17.004C242.014 17.2911 242.26 17.6603 242.26 18.1525C242.26 18.8088 241.891 19.3011 241.152 19.6292C240.414 19.9574 239.389 20.1214 238.076 20.1214C237.133 20.1214 236.312 19.9984 235.656 19.7933C234.958 19.5882 234.425 19.26 234.015 18.8909C233.605 18.4807 233.359 18.0295 233.277 17.4962H227.903C227.944 18.8088 228.395 19.9984 229.257 21.0239C230.118 22.0493 231.308 22.8287 232.784 23.362C234.302 23.8952 236.025 24.1823 237.994 24.1823C239.922 24.1823 241.604 23.8952 243.039 23.362C244.475 22.8287 245.624 22.0493 246.403 21.0239C247.223 20.0394 247.592 18.8498 247.592 17.4962C247.592 16.3887 247.346 15.4863 246.854 14.7479C246.362 14.0506 245.582 13.4763 244.475 13.0661ZM250.259 4.61625H255.55V23.7722H250.259V4.61625ZM257.847 9.33346H265.149V23.7722H270.44V9.33346H277.742V4.61625H257.847V9.33346ZM280.039 4.61625H285.33V23.7722H280.039V4.61625ZM299.113 18.8499L292.796 4.61625H287.135L296.036 23.7722H302.066L310.967 4.61625H305.389L299.113 18.8499ZM317.489 16.1016V19.5062H330V23.7722H312.198V4.61625H329.877V8.92327H317.489V12.2868H329.18V16.1016H317.489ZM83.2282 30.0482L75.9678 44.7741H77.9367L79.7005 41.1234H88.8888L90.6527 44.7741H92.6626L85.4022 30.0482H83.2282ZM80.5209 39.5647L84.3357 31.689L88.1505 39.5647H80.5209ZM107.512 39.1545H102.056V37.7188H109.152V44.7741H107.717L107.635 41.6156C107.348 42.1489 106.937 42.6411 106.486 43.0923C105.83 43.7076 105.091 44.1998 104.189 44.528C103.328 44.8561 102.302 45.0202 101.195 45.0202C100.046 45.0202 98.9386 44.8561 97.9541 44.487C96.9696 44.1178 96.1082 43.5845 95.3699 42.9282C94.6315 42.2309 94.0983 41.4515 93.6881 40.5081C93.3189 39.6057 93.1138 38.5392 93.1138 37.3906C93.1138 36.2421 93.3189 35.2166 93.7291 34.2732C94.1393 33.3297 94.6726 32.5093 95.4109 31.853C96.1493 31.1557 97.0107 30.6635 97.9951 30.2943C98.9796 29.9251 100.087 29.7611 101.277 29.7611C102.712 29.7611 103.984 30.0072 105.091 30.4994C106.24 30.9916 107.101 31.689 107.799 32.5093C108.496 33.3297 108.906 34.3142 109.029 35.3807H107.142C107.019 34.6013 106.691 33.904 106.158 33.2887C105.625 32.6734 104.968 32.2222 104.148 31.8941C103.328 31.5659 102.384 31.4018 101.277 31.4018C100.005 31.4018 98.8975 31.6479 97.9541 32.1402C97.0107 32.6324 96.3133 33.2887 95.7801 34.1911C95.2468 35.0936 95.0007 36.1601 95.0007 37.3906C95.0007 38.6212 95.2468 39.6877 95.7801 40.5901C96.3133 41.4926 97.0517 42.1899 97.9951 42.6821C98.9386 43.1744 100.046 43.4205 101.359 43.4205C102.589 43.4205 103.697 43.1744 104.64 42.7231C105.543 42.2719 106.281 41.6566 106.814 40.8363C107.142 40.303 107.389 39.7698 107.512 39.1545ZM113.582 38.17H123.591V36.6113H113.582V31.6479H124.042V30.0482H111.696V44.7741H124.124V43.1744H113.582V38.17ZM129.375 30.0482L139.671 42.7231V30.0482H141.435V44.7741H139.096L128.76 32.0171V44.7741H126.996V30.0482H129.375ZM149.023 32.1811C149.967 31.6889 151.074 31.4428 152.305 31.4428C153.412 31.4428 154.356 31.6068 155.217 31.976C156.037 32.3042 156.735 32.7964 157.268 33.4527C157.801 34.068 158.129 34.8474 158.293 35.7088H160.139C160.016 34.5192 159.606 33.4937 158.909 32.6323C158.211 31.7299 157.309 31.0736 156.16 30.5403C155.053 30.0481 153.74 29.802 152.346 29.802C150.705 29.802 149.31 30.1301 148.08 30.7454C146.849 31.4017 145.906 32.2631 145.208 33.4117C144.511 34.5602 144.183 35.8728 144.183 37.3905C144.183 38.9083 144.511 40.2209 145.208 41.3694C145.906 42.518 146.849 43.4204 148.08 44.0357C149.31 44.692 150.746 44.9791 152.346 44.9791C153.781 44.9791 155.053 44.733 156.16 44.2408C157.268 43.7485 158.211 43.0512 158.909 42.1488C159.606 41.2464 160.016 40.2209 160.139 39.0723H158.293C158.129 39.9337 157.801 40.6721 157.268 41.3284C156.735 41.9847 156.078 42.4769 155.217 42.8051C154.397 43.1332 153.412 43.2973 152.305 43.2973C151.033 43.2973 149.967 43.0512 149.023 42.559C148.08 42.0667 147.382 41.3694 146.849 40.467C146.357 39.5646 146.07 38.5391 146.07 37.3085C146.07 36.0779 146.316 35.0525 146.849 34.15C147.382 33.3707 148.08 32.6733 149.023 32.1811ZM173.881 30.0482H176.014L169.04 38.6622V44.7741H167.195V38.7032L160.221 30.0482H162.313L168.097 37.2266L173.881 30.0482Z" fill="white"/>
<path d="M62.5132 9.33342L33.5946 38.252L18.6636 23.321V29.9251L33.5946 44.8151L62.5132 15.8965V44.8151H67.1483V4.65723L62.5132 9.33342Z" fill="url(#paint0_linear_527_4359)"/>
<path d="M13.9877 12.1641L33.5949 31.7713L57.8373 7.52891V0.924805L33.5949 25.2082L9.31152 0.924805V44.8154H13.9877V12.1641Z" fill="url(#paint1_linear_527_4359)"/>
<path d="M53.1611 44.8151H57.8373V26.1514L53.1611 30.7865V44.8151Z" fill="url(#paint2_linear_527_4359)"/>
<path d="M0 44.8151H4.6762V9.33342L0 4.65723V44.8151Z" fill="url(#paint3_linear_527_4359)"/>
<defs>
<linearGradient id="paint0_linear_527_4359" x1="16.4697" y1="56.5864" x2="71.3401" y2="9.85474" gradientUnits="userSpaceOnUse">
<stop stop-color="#0166FF"/>
<stop offset="1" stop-color="#C02DD6"/>
</linearGradient>
<linearGradient id="paint1_linear_527_4359" x1="-1.29565" y1="35.727" x2="53.5747" y2="-11.0047" gradientUnits="userSpaceOnUse">
<stop stop-color="#0166FF"/>
<stop offset="1" stop-color="#C02DD6"/>
</linearGradient>
<linearGradient id="paint2_linear_527_4359" x1="23.436" y1="64.7656" x2="78.3064" y2="18.0339" gradientUnits="userSpaceOnUse">
<stop stop-color="#0166FF"/>
<stop offset="1" stop-color="#C02DD6"/>
</linearGradient>
<linearGradient id="paint3_linear_527_4359" x1="-5.19201" y1="31.1519" x2="49.6784" y2="-15.5798" gradientUnits="userSpaceOnUse">
<stop stop-color="#0166FF"/>
<stop offset="1" stop-color="#C02DD6"/>
</linearGradient>
</defs>
</svg>
