<svg width="19" height="19" viewBox="0 0 19 19" fill="none" xmlns="http://www.w3.org/2000/svg">
<path d="M18.332 1.05371C18.7188 1.15918 19 1.47559 19 1.8623C19 10.8975 11.6875 18.1748 2.6875 18.1748C2.26562 18.1748 1.94922 17.9287 1.84375 17.542L1 13.8857C0.929688 13.499 1.10547 13.0771 1.49219 12.9014L5.42969 11.2139C5.78125 11.0732 6.16797 11.1787 6.41406 11.46L8.17188 13.6045C10.9141 12.3037 13.1289 10.0537 14.3945 7.38184L12.25 5.62402C11.9688 5.37793 11.8633 4.99121 12.0039 4.63965L13.6914 0.702148C13.8672 0.31543 14.2891 0.104492 14.6758 0.209961L18.332 1.05371Z" fill="#FB6CC2"/>
</svg>
