<svg width="16" height="19" viewBox="0 0 16 19" fill="none" xmlns="http://www.w3.org/2000/svg">
<path d="M8.125 9.1748C5.62891 9.1748 3.625 7.1709 3.625 4.6748C3.625 2.21387 5.62891 0.174805 8.125 0.174805C10.5859 0.174805 12.625 2.21387 12.625 4.6748C12.625 7.1709 10.5859 9.1748 8.125 9.1748ZM11.2539 10.2998C13.8555 10.2998 16 12.4443 16 15.0459V16.4873C16 17.4365 15.2266 18.1748 14.3125 18.1748H1.9375C0.988281 18.1748 0.25 17.4365 0.25 16.4873V15.0459C0.25 12.4443 2.35938 10.2998 4.96094 10.2998H5.55859C6.33203 10.6865 7.21094 10.8623 8.125 10.8623C9.03906 10.8623 9.88281 10.6865 10.6562 10.2998H11.2539Z" fill="#FB6CC2"/>
</svg>
