<svg width="30" height="24" viewBox="0 0 30 24" fill="none" xmlns="http://www.w3.org/2000/svg">
<path d="M2.51991 10.3331C10.2881 6.94866 15.4681 4.7174 18.06 3.63937C25.4602 0.561364 26.9979 0.0266819 28.0001 0.00883816C28.2206 0.00514327 28.7135 0.0597735 29.0327 0.318836C29.3023 0.537583 29.3765 0.833079 29.412 1.04048C29.4475 1.24787 29.4917 1.72033 29.4565 2.08949C29.0555 6.30304 27.3203 16.5282 26.4375 21.2475C26.064 23.2444 25.3285 23.9139 24.6164 23.9795C23.069 24.1218 21.8939 22.9568 20.3951 21.9743C18.0498 20.4369 16.7249 19.4799 14.4484 17.9797C11.8174 16.246 13.523 15.2931 15.0223 13.7358C15.4147 13.3283 22.2328 7.12666 22.3648 6.56407C22.3813 6.49371 22.3966 6.23144 22.2408 6.09295C22.085 5.95446 21.855 6.00182 21.6891 6.03949C21.4538 6.09288 17.7072 8.56927 10.4491 13.4687C9.38565 14.1989 8.42238 14.5547 7.55934 14.5361C6.60789 14.5155 4.7777 13.9981 3.41714 13.5559C1.74835 13.0134 0.422036 12.7266 0.537528 11.8054C0.597684 11.3255 1.25848 10.8348 2.51991 10.3331Z" fill="white"/>
</svg>
