<svg width="330" height="44" viewBox="0 0 330 44" fill="none" xmlns="http://www.w3.org/2000/svg">
<path fill-rule="evenodd" clip-rule="evenodd" d="M214.572 3.27442C216.869 3.27442 218.838 3.72465 220.561 4.54326C222.284 5.36186 223.596 6.54884 224.54 8.02233C225.483 9.53675 225.975 11.2558 225.975 13.2614C225.975 15.267 225.483 16.986 224.54 18.5005C223.596 19.9739 222.284 21.1609 220.561 21.9795C218.838 22.8391 216.869 23.2484 214.572 23.2484C212.316 23.2484 210.347 22.7981 208.624 21.9795C206.901 21.1609 205.589 20.0149 204.645 18.5005C203.702 16.986 203.21 15.267 203.21 13.2614C203.21 11.2558 203.702 9.53675 204.645 8.02233C205.589 6.54884 206.901 5.36186 208.624 4.54326C210.306 3.68372 212.316 3.27442 214.572 3.27442ZM217.812 17.8456C218.715 17.4363 219.412 16.8223 219.904 16.0446C220.397 15.267 220.643 14.3256 220.643 13.2205C220.643 12.1153 220.397 11.174 219.904 10.3963C219.412 9.61861 218.715 9.00465 217.812 8.59535C216.91 8.14511 215.844 7.94047 214.613 7.94047C213.382 7.94047 212.316 8.18605 211.413 8.59535C210.511 9.00465 209.814 9.61861 209.321 10.3963C208.829 11.2149 208.583 12.1153 208.583 13.2205C208.583 14.3256 208.829 15.267 209.321 16.0446C209.814 16.8223 210.511 17.4363 211.413 17.8456C212.316 18.2958 213.382 18.5005 214.613 18.5005C215.844 18.5005 216.91 18.2549 217.812 17.8456ZM140.409 16.6586H145.66C145.639 16.6995 145.608 16.7405 145.578 16.7814C145.547 16.8223 145.516 16.8633 145.495 16.9042C144.921 17.6 144.183 18.0912 143.198 18.4595C142.255 18.8279 141.147 18.9916 139.917 18.9916C138.645 18.9916 137.538 18.787 136.594 18.3367C135.651 17.9274 134.913 17.2726 134.42 16.413C133.928 15.5535 133.641 14.5302 133.641 13.2614C133.641 12.0335 133.887 11.0102 134.338 10.1916C134.83 9.37303 135.487 8.75907 136.348 8.34977C137.21 7.94047 138.235 7.73582 139.425 7.73582C140.409 7.73582 141.312 7.8586 142.05 8.10419C142.829 8.34977 143.486 8.71814 143.978 9.16837C144.511 9.61861 144.839 10.1916 145.003 10.8465H150.336C150.049 9.37302 149.474 8.06325 148.531 6.95814C147.587 5.85302 146.357 4.95256 144.839 4.29767C143.321 3.64279 141.476 3.31535 139.384 3.31535C137.784 3.31535 136.348 3.52 134.995 3.97023C133.641 4.42046 132.492 5.03442 131.467 5.89396C130.441 6.75349 129.662 7.77675 129.088 9.04558C128.514 10.2735 128.226 11.706 128.226 13.3023C128.226 14.8986 128.514 16.3312 129.047 17.5591C129.58 18.787 130.359 19.8512 131.385 20.7107C132.369 21.5702 133.518 22.1842 134.83 22.6344C136.143 23.0846 137.538 23.2893 139.055 23.2893C140.614 23.2893 142.009 23.0437 143.198 22.5935C144.388 22.1433 145.372 21.4884 146.152 20.6698C146.275 20.547 146.398 20.4242 146.48 20.2605L146.726 22.8391H150.5V12.934H140.327V16.6586H140.409ZM85.7304 3.68372L91.5962 17.6409L97.3799 3.68372H105.584V22.7981H100.538V8.30884L94.2624 22.7981H88.8889L82.613 8.3907V22.7981H77.5676V3.68372H85.7304ZM125.519 15.1442H113.87V18.5414H126.381V22.7981H108.578V3.68372H126.257V7.98139H113.87V11.3377H125.519V15.1442ZM151.648 22.7981L160.344 3.68372H167.4L176.096 22.7981H170.435L168.835 19.1144H158.909L157.309 22.7981H151.648ZM163.831 7.73582L160.714 14.8986H166.949L163.831 7.73582ZM198.164 4.50232C197.016 3.97023 195.621 3.68372 194.021 3.68372H183.274V22.7981H188.566V16.8633H194.021C195.621 16.8633 197.016 16.5767 198.164 16.0446C199.313 15.5126 200.215 14.7349 200.83 13.7526C201.446 12.7702 201.733 11.6242 201.733 10.3144C201.733 9.00465 201.446 7.81767 200.83 6.83535C200.256 5.81209 199.354 5.03442 198.164 4.50232ZM195.703 12.0335C195.211 12.4428 194.555 12.6474 193.693 12.6474H188.566V7.94047H193.693C194.555 7.94047 195.211 8.14512 195.703 8.55442C196.195 8.96372 196.4 9.53674 196.4 10.3144C196.4 11.0102 196.154 11.5833 195.703 12.0335ZM244.475 12.1153C243.367 11.706 241.932 11.4195 240.086 11.2558L236.271 10.8874C235.164 10.8056 234.425 10.6009 234.015 10.3144C233.605 10.0279 233.4 9.70047 233.4 9.25023C233.4 8.63628 233.769 8.18604 234.466 7.8586C235.164 7.53116 236.107 7.36744 237.297 7.36744C238.199 7.36744 238.937 7.4493 239.553 7.65395C240.168 7.81767 240.701 8.10419 241.029 8.43163C241.358 8.75907 241.604 9.16837 241.686 9.6186H247.059C246.977 8.34977 246.526 7.24465 245.706 6.30326C244.844 5.36186 243.737 4.62512 242.301 4.09302C240.865 3.56093 239.225 3.31535 237.379 3.31535C235.492 3.31535 233.851 3.56093 232.456 4.01116C231.062 4.4614 229.954 5.15721 229.175 6.09861C228.395 6.99907 228.026 8.14512 228.026 9.45488C228.026 11.0921 228.642 12.4019 229.831 13.3433C231.021 14.2847 232.949 14.8986 235.574 15.1442L239.142 15.4716C240.332 15.5944 241.152 15.7991 241.604 16.0446C242.014 16.3312 242.26 16.6995 242.26 17.1907C242.26 17.8456 241.891 18.3367 241.152 18.6642C240.414 18.9916 239.389 19.1553 238.076 19.1553C237.133 19.1553 236.312 19.0326 235.656 18.8279C234.958 18.6233 234.425 18.2958 234.015 17.9274C233.605 17.5181 233.359 17.0679 233.277 16.5358H227.903C227.944 17.8456 228.395 19.0326 229.257 20.0558C230.118 21.0791 231.308 21.8567 232.784 22.3888C234.302 22.9209 236.025 23.2074 237.994 23.2074C239.922 23.2074 241.604 22.9209 243.039 22.3888C244.475 21.8567 245.624 21.0791 246.403 20.0558C247.223 19.0735 247.592 17.8865 247.592 16.5358C247.592 15.4307 247.346 14.5302 246.854 13.7935C246.362 13.0977 245.582 12.5247 244.475 12.1153ZM250.259 3.68372H255.55V22.7981H250.259V3.68372ZM257.847 8.3907H265.149V22.7981H270.44V8.3907H277.742V3.68372H257.847V8.3907ZM280.039 3.68372H285.33V22.7981H280.039V3.68372ZM299.113 17.8865L292.796 3.68372H287.135L296.036 22.7981H302.066L310.967 3.68372H305.389L299.113 17.8865ZM317.489 15.1442V18.5414H330V22.7981H312.198V3.68372H329.877V7.98139H317.489V11.3377H329.18V15.1442H317.489ZM83.2282 29.0605L75.9678 43.7544H77.9367L79.7005 40.1116H88.8888L90.6527 43.7544H92.6626L85.4022 29.0605H83.2282ZM80.5209 38.5563L84.3357 30.6977L88.1505 38.5563H80.5209ZM107.512 38.147H102.056V36.7144H109.152V43.7544H107.717L107.635 40.6028C107.348 41.1349 106.937 41.626 106.486 42.0763C105.83 42.6902 105.091 43.1814 104.189 43.5088C103.328 43.8363 102.302 44 101.195 44C100.046 44 98.9386 43.8363 97.9541 43.4679C96.9696 43.0995 96.1082 42.5674 95.3699 41.9125C94.6315 41.2167 94.0983 40.4391 93.6881 39.4977C93.3189 38.5972 93.1138 37.533 93.1138 36.387C93.1138 35.2409 93.3189 34.2177 93.7291 33.2763C94.1393 32.3349 94.6726 31.5163 95.4109 30.8614C96.1493 30.1656 97.0107 29.6744 97.9951 29.306C98.9796 28.9377 100.087 28.7739 101.277 28.7739C102.712 28.7739 103.984 29.0195 105.091 29.5107C106.24 30.0018 107.101 30.6977 107.799 31.5163C108.496 32.3349 108.906 33.3172 109.029 34.3814H107.142C107.019 33.6037 106.691 32.9079 106.158 32.2939C105.625 31.68 104.968 31.2298 104.148 30.9023C103.328 30.5749 102.384 30.4112 101.277 30.4112C100.005 30.4112 98.8975 30.6567 97.9541 31.1479C97.0107 31.6391 96.3133 32.2939 95.7801 33.1944C95.2468 34.0949 95.0007 35.1591 95.0007 36.387C95.0007 37.6149 95.2468 38.6791 95.7801 39.5795C96.3133 40.48 97.0517 41.1758 97.9951 41.667C98.9386 42.1581 100.046 42.4037 101.359 42.4037C102.589 42.4037 103.697 42.1581 104.64 41.7079C105.543 41.2577 106.281 40.6437 106.814 39.8251C107.142 39.293 107.389 38.7609 107.512 38.147ZM113.582 37.1646H123.591V35.6093H113.582V30.6567H124.042V29.0605H111.696V43.7544H124.124V42.1581H113.582V37.1646ZM129.375 29.0605L139.671 41.7079V29.0605H141.435V43.7544H139.096L128.76 31.0251V43.7544H126.996V29.0605H129.375ZM149.023 31.1888C149.967 30.6977 151.074 30.4521 152.305 30.4521C153.412 30.4521 154.356 30.6158 155.217 30.9842C156.037 31.3116 156.735 31.8028 157.268 32.4577C157.801 33.0716 158.129 33.8493 158.293 34.7088H160.139C160.016 33.5219 159.606 32.4986 158.909 31.6391C158.211 30.7386 157.309 30.0837 156.16 29.5516C155.053 29.0605 153.74 28.8149 152.346 28.8149C150.705 28.8149 149.31 29.1423 148.08 29.7563C146.849 30.4112 145.906 31.2707 145.208 32.4167C144.511 33.5628 144.183 34.8726 144.183 36.387C144.183 37.9014 144.511 39.2111 145.208 40.3572C145.906 41.5032 146.849 42.4037 148.08 43.0177C149.31 43.6725 150.746 43.9591 152.346 43.9591C153.781 43.9591 155.053 43.7135 156.16 43.2223C157.268 42.7311 158.211 42.0353 158.909 41.1349C159.606 40.2344 160.016 39.2112 160.139 38.0651H158.293C158.129 38.9246 157.801 39.6614 157.268 40.3163C156.735 40.9712 156.078 41.4623 155.217 41.7898C154.397 42.1172 153.412 42.2809 152.305 42.2809C151.033 42.2809 149.967 42.0353 149.023 41.5442C148.08 41.053 147.382 40.3572 146.849 39.4567C146.357 38.5563 146.07 37.533 146.07 36.3051C146.07 35.0772 146.316 34.0539 146.849 33.1535C147.382 32.3758 148.08 31.68 149.023 31.1888ZM173.881 29.0605H176.014L169.04 37.6558V43.7544H167.195V37.6967L160.221 29.0605H162.313L168.097 36.2233L173.881 29.0605Z" fill="white"/>
<path d="M62.5132 8.3907L33.5946 37.2465L18.6636 22.3479V28.9377L33.5946 43.7953L62.5132 14.9395V43.7953H67.1483V3.72466L62.5132 8.3907Z" fill="url(#paint0_linear_425_9206)"/>
<path d="M13.9877 11.2149L33.5949 30.7795L57.8373 6.58977V0L33.5949 24.2307L9.31152 0V43.7953H13.9877V11.2149Z" fill="url(#paint1_linear_425_9206)"/>
<path d="M53.1611 43.7953H57.8373V25.1721L53.1611 29.7972V43.7953Z" fill="url(#paint2_linear_425_9206)"/>
<path d="M0 43.7953H4.6762V8.3907L0 3.72466V43.7953Z" fill="url(#paint3_linear_425_9206)"/>
<defs>
<linearGradient id="paint0_linear_425_9206" x1="16.4697" y1="55.5411" x2="71.2398" y2="8.79338" gradientUnits="userSpaceOnUse">
<stop stop-color="#0166FF"/>
<stop offset="1" stop-color="#C02DD6"/>
</linearGradient>
<linearGradient id="paint1_linear_425_9206" x1="-1.29565" y1="34.7266" x2="53.4744" y2="-12.0211" gradientUnits="userSpaceOnUse">
<stop stop-color="#0166FF"/>
<stop offset="1" stop-color="#C02DD6"/>
</linearGradient>
<linearGradient id="paint2_linear_425_9206" x1="23.436" y1="63.7025" x2="78.2061" y2="16.9547" gradientUnits="userSpaceOnUse">
<stop stop-color="#0166FF"/>
<stop offset="1" stop-color="#C02DD6"/>
</linearGradient>
<linearGradient id="paint3_linear_425_9206" x1="-5.19201" y1="30.1618" x2="49.5781" y2="-16.586" gradientUnits="userSpaceOnUse">
<stop stop-color="#0166FF"/>
<stop offset="1" stop-color="#C02DD6"/>
</linearGradient>
</defs>
</svg>
