<svg width="29" height="22" viewBox="0 0 29 22" fill="none" xmlns="http://www.w3.org/2000/svg">
<path d="M28.4336 7.31836C28.6602 7.14844 29 7.31836 29 7.60156V19.1562C29 20.6855 27.7539 21.875 26.2812 21.875H2.71875C1.18945 21.875 0 20.6855 0 19.1562V7.60156C0 7.31836 0.283203 7.14844 0.509766 7.31836C1.8125 8.33789 3.45508 9.58398 9.23242 13.7754C10.4219 14.625 12.4609 16.4941 14.5 16.4941C16.4824 16.4941 18.5781 14.625 19.7109 13.7754C25.4883 9.58398 27.1309 8.33789 28.4336 7.31836ZM14.5 14.625C13.1406 14.6816 11.2715 12.9824 10.3086 12.3027C2.77539 6.86523 2.20898 6.35547 0.509766 4.99609C0.169922 4.76953 0 4.37305 0 3.91992V2.84375C0 1.37109 1.18945 0.125 2.71875 0.125H26.2812C27.7539 0.125 29 1.37109 29 2.84375V3.91992C29 4.37305 28.7734 4.76953 28.4336 4.99609C26.7344 6.35547 26.168 6.86523 18.6348 12.3027C17.6719 12.9824 15.8027 14.6816 14.5 14.625Z" fill="#FB6CC2"/>
</svg>
