<svg width="180" height="182" viewBox="0 0 180 182" fill="none" xmlns="http://www.w3.org/2000/svg">
<path d="M61.8855 85.7618C60.7164 83.4701 59.0636 81.7028 56.9473 80.4598C54.8309 79.2131 52.3982 78.5916 49.6491 78.5916H20V118.925H29.7055V108.343H49.6509C52.3982 108.343 54.8309 107.72 56.9473 106.477C59.0618 105.232 60.7164 103.464 61.8836 101.149C63.0527 98.8335 63.6364 96.144 63.6364 93.0823C63.66 90.0701 63.0527 88.0773 61.8855 85.7618ZM53.9545 94.0283C53.9545 96.716 51.8145 98.9086 49.1873 98.9086H29.7055V88.103H49.1873C51.8145 88.103 53.9545 90.2938 53.9545 92.9815V94.0283ZM101.633 93.4875C101.633 91.8283 101.189 90.4881 100.325 89.5128C99.4636 88.5118 98.3436 88.0241 96.9927 88.0241H78.3927V107.925H69.0909V65.7583H78.3909V78.83H97.5055C100.14 78.83 102.469 79.4405 104.498 80.6596C106.527 81.8788 108.111 83.6113 109.231 85.8791C110.349 88.147 110.909 90.7796 110.909 93.7808V107.901H101.562L101.633 93.4875ZM118.115 100.892C119.224 103.073 120.94 104.881 123.053 106.093C125.169 107.314 127.602 107.925 130.349 107.925H160V65.7583H150.295V78.7475H130.349C127.602 78.7475 125.167 79.358 123.053 80.579C120.936 81.8 119.282 83.5343 118.115 85.804C116.947 88.0736 116.364 90.7118 116.364 93.7148C116.364 96.6701 116.947 98.6465 118.115 100.892ZM126.069 92.811C126.074 91.5396 126.578 90.322 127.472 89.4251C128.366 88.5281 129.575 88.025 130.836 88.026H150.32V98.6226H130.836C129.575 98.6236 128.366 98.1205 127.472 97.2236C126.578 96.3266 126.074 95.109 126.069 93.8376V92.811Z" fill="white"/>
<path d="M160 111.592H125.455V113.425H160V111.592Z" fill="#FF1C1C"/>
<path d="M54.5455 73.0918H20V74.9251H54.5455V73.0918Z" fill="white"/>
</svg>
