<svg width="180" height="182" viewBox="0 0 180 182" fill="none" xmlns="http://www.w3.org/2000/svg">
<path d="M96.384 57.2662C95.8497 56.6411 94.8695 56.6411 94.3349 57.2662L91.9293 60.0794C91.3947 60.7045 91.3947 61.8507 91.9293 62.4758C92.1965 62.7884 92.5531 62.9968 92.9095 62.9968C93.2658 62.9968 93.6222 62.7884 93.8893 62.4758L96.2952 59.6626C97.0079 58.9333 97.0079 57.8914 96.384 57.2662Z" fill="#FF3100"/>
<path d="M66.4528 89.7762C65.9181 90.4015 65.9181 91.5477 66.4528 92.1727C66.7199 92.4854 67.0763 92.6938 67.4326 92.6938C67.789 92.6938 68.1456 92.4854 68.4128 92.1727L68.7691 91.7558C68.5908 90.4015 68.4128 89.0469 68.2345 87.5884L66.4528 89.7762Z" fill="#FF3100"/>
<path d="M87.0336 65.8121L74.3818 80.6075C74.5601 81.9618 74.8273 83.3164 75.0057 84.6707L89.0828 68.2085C89.6175 67.5834 89.6175 66.4373 89.0828 65.8121C88.4593 65.187 87.5683 65.187 87.0336 65.8121Z" fill="#FF3100"/>
<path d="M30.5366 115.418C30.5366 114.584 30.5366 113.646 30.4475 112.813C30.4475 109.791 30.4475 106.77 30.4475 103.644C30.4475 103.331 30.4475 103.019 30.4475 102.706C32.4967 102.706 34.4568 102.706 36.506 102.706C36.506 104.686 36.506 106.561 36.506 108.645C37.1297 108.645 37.7534 108.645 38.3771 108.645C39.4462 108.645 40.5154 108.645 41.6736 108.645C43.0101 108.645 43.812 107.707 43.812 106.144C43.812 102.289 43.812 98.4343 43.812 94.5793C43.812 92.9123 43.0992 92.0785 41.6736 92.0785C39.8917 92.0785 38.1098 92.0785 36.3279 92.0785C36.0606 92.0785 35.8824 92.0785 35.6151 92.0785C35.6151 91.8704 35.6151 91.7661 35.6151 91.5577C35.6151 89.4738 35.6151 87.4942 35.6151 85.4103C35.8824 85.4103 36.1497 85.4103 36.3279 85.4103C38.1098 85.4103 39.8917 85.4103 41.6736 85.4103C42.7428 85.4103 43.5447 84.5769 43.5447 83.3265C43.5447 80.3049 43.5447 77.3876 43.5447 74.366C43.5447 73.2198 42.8319 72.2821 41.7627 72.2821C40.0699 72.2821 38.3771 72.2821 36.5951 72.2821C36.5951 74.2618 36.5951 76.2414 36.5951 78.2211C34.5459 78.2211 32.5858 78.2211 30.5366 78.2211C30.5366 74.0533 30.5366 69.8858 30.5366 65.614C30.7148 65.614 30.8039 65.5098 30.9821 65.5098C35.3478 65.5098 39.7135 65.5098 43.9902 65.5098C45.683 65.5098 47.3758 65.9265 48.7122 67.1768C50.1379 68.4271 50.9397 70.0942 50.9397 72.1779C51.0286 76.2414 50.9397 80.3049 50.9397 84.4726C50.9397 86.2438 50.1379 87.5984 48.8906 88.5361C48.8014 88.6404 48.7122 88.6404 48.6231 88.8488C50.7614 90.0989 51.2961 92.1827 51.2961 94.7877C51.2961 98.9551 51.2961 103.227 51.2961 107.395C51.2961 112.083 49.3361 114.688 45.3266 115.418C45.2375 115.418 45.1484 115.522 45.0593 115.522C40.2481 115.418 35.3478 115.418 30.5366 115.418Z" fill="white"/>
<path d="M53.9622 115.414C56.2788 101.035 58.5063 86.6569 60.8227 72.1741C59.7537 72.1741 58.6844 72.1741 57.6153 72.1741C57.6153 69.8819 57.6153 67.6939 57.6153 65.5059C62.4264 65.5059 67.2378 65.5059 72.0488 65.5059C72.316 67.0687 72.5835 68.7358 72.7615 70.2987C74.1872 79.2591 75.5237 88.2196 76.9491 97.2843C77.8401 103.119 78.7311 108.849 79.6221 114.684C79.6221 114.893 79.6221 115.205 79.6221 115.414C77.1274 115.414 74.6327 115.414 72.0488 115.414C71.6925 112.913 71.3361 110.516 71.0687 108.016C70.9798 107.495 70.8906 107.287 70.4451 107.287C68.0396 107.287 65.7229 107.287 63.3174 107.287C63.1391 107.287 62.9611 107.287 62.7827 107.287C62.6936 108.12 62.5156 108.954 62.4264 109.787C62.1592 111.663 61.9809 113.434 61.7137 115.31C59.1299 115.414 56.546 115.414 53.9622 115.414ZM66.8811 77.6964C65.8121 85.3023 64.7428 92.9082 63.7629 100.514C65.9012 100.514 68.0396 100.514 70.0888 100.514C69.0195 92.9082 67.9504 85.3023 66.8811 77.6964Z" fill="white"/>
<path d="M114.824 91.555C114.824 88.5334 113.487 86.3453 111.082 85.1992C109.834 84.5741 108.587 84.4699 107.25 84.4699C105.112 84.4699 102.974 84.4699 100.835 84.4699C100.568 84.4699 100.39 84.4699 100.123 84.4699C100.123 80.3022 100.123 76.2387 100.123 72.071C104.577 72.071 109.032 72.071 113.398 72.071C113.398 69.7789 113.398 67.5909 113.398 65.4028C106.448 65.4028 99.4988 65.4028 92.4602 65.4028C92.4602 82.0734 92.4602 98.64 92.4602 115.311C97.8059 115.311 103.241 115.311 108.587 115.311C108.765 115.311 108.943 115.206 109.121 115.206C112.507 114.685 114.734 112.081 114.734 108.226C114.912 102.704 114.912 97.1812 114.824 91.555ZM107.25 106.246C107.25 107.601 106.538 108.538 105.379 108.538C103.597 108.538 101.905 108.538 100.033 108.538C100.033 102.704 100.033 97.077 100.033 91.2423C100.479 91.2423 100.835 91.2423 101.281 91.2423C102.617 91.2423 103.954 91.2423 105.201 91.2423C106.359 91.2423 107.161 92.18 107.161 93.5346C107.25 97.8063 107.25 102.078 107.25 106.246Z" fill="white"/>
<path d="M120.344 115.414C120.344 98.8471 120.344 82.1765 120.344 65.5059C126.135 65.5059 131.926 65.5059 137.717 65.5059C137.717 67.6939 137.717 69.8819 137.717 72.1741C134.51 72.1741 131.213 72.1741 127.917 72.1741C127.917 76.3418 127.917 80.4053 127.917 84.5728C130.679 84.5728 133.53 84.5728 136.381 84.5728C136.381 86.8651 136.381 89.0532 136.381 91.3455C133.53 91.3455 130.768 91.3455 127.917 91.3455C127.917 97.1802 127.917 102.911 127.917 108.641C131.213 108.641 134.421 108.641 137.717 108.641C137.717 110.933 137.717 113.226 137.717 115.414C131.926 115.414 126.135 115.414 120.344 115.414Z" fill="white"/>
<path d="M142.626 115.414C142.626 98.8471 142.626 82.1765 142.626 65.5059C148.418 65.5059 154.209 65.5059 160 65.5059C160 67.6939 160 69.8819 160 72.1741C156.793 72.1741 153.496 72.1741 150.2 72.1741C150.2 86.6569 150.2 101.035 150.2 115.414C147.616 115.414 145.121 115.414 142.626 115.414Z" fill="white"/>
<path d="M72.6895 106.766C72.3332 106.766 71.9768 106.558 71.7093 106.245C71.1747 105.62 71.1747 104.474 71.7093 103.849L74.1149 101.036C74.6495 100.411 75.6297 100.411 76.1641 101.036C76.6987 101.661 76.6987 102.807 76.1641 103.432L73.7585 106.245C73.4914 106.558 73.0458 106.766 72.6895 106.766ZM80.0844 98.1184C79.7281 98.1184 79.3717 97.9099 79.1043 97.5973C78.5699 96.9722 78.5699 95.8261 79.1043 95.201L94.9634 76.655C95.4981 76.0297 96.4782 76.0297 97.0126 76.655C97.5473 77.2801 97.5473 78.4262 97.0126 79.0513L81.1535 97.5973C80.7971 98.0142 80.4408 98.1184 80.0844 98.1184Z" fill="#FF3100"/>
<path d="M92.4726 69.4653L60.1307 107.287C59.5961 107.912 59.5961 109.058 60.1307 109.683C60.3979 109.996 60.7543 110.204 61.1109 110.204C61.4672 110.204 61.8236 109.996 62.0908 109.683L92.3834 74.2582C92.4726 72.6952 92.4726 71.0282 92.4726 69.4653Z" fill="#FF3100"/>
<path d="M100.052 65.5067L111.813 51.7534C112.348 51.1283 112.348 49.9822 111.813 49.3571C111.279 48.7319 110.299 48.7319 109.764 49.3571L95.9541 65.5067C97.2906 65.5067 98.6271 65.5067 100.052 65.5067Z" fill="#FF3100"/>
<path d="M133.997 126.978C133.997 126.04 134.71 125.207 135.512 125.207C136.314 125.207 137.027 126.04 137.027 126.978C137.027 127.915 136.314 128.749 135.512 128.749C134.621 128.749 133.997 128.02 133.997 126.978Z" fill="#929496"/>
<path d="M145.839 119.788C145.839 118.433 145.216 117.496 144.058 117.391C143.256 117.287 142.454 117.288 141.652 117.288C141.385 117.288 141.207 117.288 140.939 117.288C140.939 116.975 140.939 116.662 140.939 116.246C140.137 116.558 139.425 116.871 138.623 117.288C138.534 117.288 138.534 117.496 138.534 117.6C138.534 122.601 138.534 127.602 138.534 132.604C138.534 132.812 138.534 132.916 138.712 132.916C139.425 133.229 140.048 133.541 140.761 133.958C140.761 133.958 140.85 133.958 140.939 133.958C140.939 132.187 140.939 130.415 140.939 128.644C141.83 128.644 142.721 128.644 143.523 128.644C144.86 128.644 145.839 127.707 145.751 125.935C145.839 123.956 145.839 121.872 145.839 119.788ZM143.434 125.518C143.434 126.144 143.167 126.352 142.721 126.352C142.187 126.352 141.652 126.352 141.028 126.352C141.028 124.06 141.028 121.768 141.028 119.475C141.652 119.475 142.365 119.475 142.988 119.475C143.256 119.475 143.523 119.892 143.523 120.309C143.523 121.247 143.523 122.185 143.523 123.122C143.434 123.956 143.434 124.789 143.434 125.518Z" fill="#929496"/>
<path d="M151.539 128.648C151.004 128.648 150.47 128.648 149.935 128.648C149.579 128.648 149.311 128.648 148.955 128.543C147.975 128.231 147.44 127.397 147.44 126.251C147.44 124.063 147.44 121.875 147.44 119.687C147.44 118.333 148.331 117.395 149.579 117.291C150.202 117.291 150.826 117.291 151.539 117.291C151.539 117.187 151.539 117.082 151.539 116.978C151.539 115.832 151.539 114.582 151.539 113.436C151.539 113.227 151.628 113.123 151.717 113.019C152.43 112.706 153.053 112.394 153.766 111.977C153.766 113.748 153.766 115.519 153.766 117.291C153.944 117.291 154.033 117.291 154.212 117.291C154.924 117.291 155.548 117.291 156.261 117.395C157.241 117.603 157.864 118.437 157.864 119.687C157.864 121.875 157.864 124.063 157.864 126.251C157.864 127.501 157.152 128.335 156.082 128.543C155.815 128.543 155.637 128.648 155.37 128.648C154.835 128.648 154.39 128.648 153.855 128.648C153.855 129.585 153.855 130.419 153.855 131.252C153.855 132.086 153.855 133.024 153.855 133.962C153.677 133.857 153.499 133.857 153.41 133.753C152.875 133.44 152.34 133.232 151.806 132.92C151.628 132.815 151.628 132.711 151.628 132.607C151.628 131.461 151.628 130.21 151.628 129.065C151.539 128.96 151.539 128.856 151.539 128.648ZM151.449 119.583C151.093 119.583 150.648 119.583 150.291 119.583C149.935 119.583 149.668 119.896 149.668 120.312C149.668 122.084 149.668 123.959 149.668 125.73C149.668 126.043 149.935 126.355 150.202 126.46C150.648 126.46 151.004 126.46 151.449 126.46C151.449 124.168 151.449 121.875 151.449 119.583ZM153.855 126.46C154.212 126.46 154.568 126.46 154.924 126.46C155.37 126.46 155.637 126.147 155.637 125.626C155.637 125.313 155.637 124.897 155.637 124.584C155.637 123.23 155.637 121.875 155.637 120.521C155.637 120.104 155.459 119.687 155.192 119.687C154.746 119.687 154.39 119.687 153.944 119.687C153.855 121.875 153.855 124.168 153.855 126.46Z" fill="#929496"/>
<path d="M26.191 67.3778L26.9038 63.6269H24.32L23.6073 67.3778H21.558L22.2708 63.6269H20V61.3347H22.7163L23.34 58.0005H20.8453V55.7084H23.7854L24.4091 52.27H26.4583L25.8346 55.7084H28.3293L28.953 52.27H31.0022L30.3786 55.7084H32.9623V58.0005H30.0222L29.3985 61.3347H31.9823V63.6269H29.0421L28.3293 67.3778H26.191ZM24.7655 61.3347H27.3493L27.973 58.0005H25.3891L24.7655 61.3347Z" fill="#929496"/>
</svg>
