<svg width="180" height="182" viewBox="0 0 180 182" fill="none" xmlns="http://www.w3.org/2000/svg">
<g clip-path="url(#clip0_516_4813)">
<path d="M31.6494 78.2465C31.6494 75.551 30.3471 73.4544 26.5456 73.4544H13.4869V89.6278H17.1124V83.9371H25.4897C27.3728 83.9371 27.8656 84.4833 27.8656 86.3508V89.6278H31.491V85.7694C31.491 83.849 30.8047 82.7215 29.2911 82.3339C30.8575 81.823 31.6494 80.2902 31.6494 78.2465ZM26.0528 80.5369H17.1124V76.8723H26.0704C27.408 76.8723 28.0416 77.5946 28.0416 78.6693C28.024 79.7264 27.496 80.5369 26.0528 80.5369ZM171.881 93.2218H173.218V109.395H169.593V97.9259L162.113 109.395H157.942V93.2218H161.568V104.286L167.023 95.8117C168.431 93.6623 169.646 93.2218 171.881 93.2218ZM101.114 89.6278V86.1746C102.592 86.1746 102.944 85.2761 103.261 82.281L104.247 73.4544H117.235V89.6278H113.609V76.8723H107.362L106.728 83.0562C106.183 88.3769 104.739 89.8216 101.114 89.6278ZM6.5 116.425H38.4604V66.4248H6.5V116.425ZM9.98467 69.9132H34.9581V112.936H9.98467V69.9132ZM27.848 93.2218H31.4734V109.395H19.8755C15.2293 109.395 13.4693 107.651 13.4693 102.982V93.2218H17.0948V103.088C17.0948 105.149 17.9044 105.995 19.7875 105.995H27.848V93.2218ZM124.257 84.219H132.265V89.6454H135.89V73.4544H126.58C122.022 73.4544 120.632 74.7053 120.632 79.4093V89.6278H124.257V84.219ZM126.58 76.8723H132.265V80.854H124.257V79.4269C124.257 77.577 124.486 76.8723 126.58 76.8723ZM83.3563 83.6729V79.4269C83.3563 74.7758 84.6586 73.472 89.3048 73.472H98.7909V76.8723H89.1288C87.2457 76.8723 86.9817 77.1894 86.9817 79.2507V79.7969H96.151V83.1619H86.9817V83.8843C86.9817 85.9456 87.2457 86.2627 89.1288 86.2627H98.9317V89.663H89.3048C84.641 89.6278 83.3563 88.2888 83.3563 83.6729ZM167.551 73.4544H163.574C158.963 73.4544 157.625 74.7581 157.625 79.4093V83.6729C157.625 88.2888 159.421 89.6278 164.032 89.6278H167.111C171.758 89.6278 173.518 88.2888 173.518 83.6729V79.4269C173.5 74.7581 172.198 73.4544 167.551 73.4544ZM169.875 83.6729C169.875 85.7342 169.435 86.2275 167.551 86.2275H163.574C161.691 86.2275 161.251 85.7342 161.251 83.6729V79.4269C161.251 77.3656 161.691 76.8723 163.574 76.8723H167.551C169.435 76.8723 169.875 77.3656 169.875 79.4269V83.6729ZM107.784 93.2218H117.728V95.2303C117.728 96.8512 117.587 98.1901 117.235 99.4058H114.155V96.6221H107.802C105.919 96.6221 105.479 97.1154 105.479 99.1767V103.44C105.479 105.502 105.919 105.995 107.802 105.995H117.728V109.395H107.784C103.173 109.395 101.836 108.056 101.836 103.44V99.1767C101.836 94.5256 103.173 93.2218 107.784 93.2218ZM79.2732 73.4544H66.0737L65.2641 81.6468C64.8594 85.5404 64.2786 86.1746 63.205 86.1746H62.9938V91.1429H66.4433L66.5841 89.0816H77.2317L77.3725 91.1429H80.8219V86.1218H79.3084V73.4544H79.2732ZM69.2592 76.8723H75.6477V85.7518H67.8864C68.3792 84.8885 68.5904 83.6729 68.7488 82.1225L69.2592 76.8723ZM93.3351 93.2218H89.0408C84.4298 93.2218 83.0923 94.5256 83.0923 99.1767V103.44C83.0923 108.056 84.4298 109.395 89.0408 109.395H93.3351C97.9813 109.395 99.2836 108.056 99.2836 103.44V99.1767C99.2836 94.5256 97.9813 93.2218 93.3351 93.2218ZM95.6582 103.44C95.6582 105.502 95.2182 105.995 93.3351 105.995H89.0408C87.1577 105.995 86.7177 105.502 86.7177 103.44V99.1767C86.7177 97.1154 87.1577 96.6221 89.0408 96.6221H93.3351C95.2182 96.6221 95.6582 97.1154 95.6582 99.1767V103.44ZM126.228 93.2218H136.207V95.2303C136.207 96.8512 136.066 98.1901 135.714 99.4058H132.634V96.6221H126.228C124.345 96.6221 123.905 97.1154 123.905 99.1767V103.44C123.905 105.502 124.345 105.995 126.228 105.995H136.207V109.395H126.228C121.617 109.395 120.28 108.056 120.28 103.44V99.1767C120.28 94.5256 121.617 93.2218 126.228 93.2218ZM58.3828 100.85C59.2276 100.34 59.9316 99.2296 59.9316 97.5206C59.9316 95.3184 58.682 93.2218 54.9685 93.2218H45.4825V109.395H55.3381C58.9108 109.395 60.6707 107.563 60.6707 104.55C60.6531 102.542 59.5092 101.344 58.3828 100.85ZM56.3237 98.0668C56.3237 99.0534 55.8309 99.582 54.5814 99.582H49.1256V96.675H54.5814C55.8309 96.675 56.3237 97.1154 56.3237 98.0668ZM55.3733 105.995H49.108V102.859H55.3733C56.5877 102.859 57.0277 103.44 57.0277 104.374C57.0277 105.325 56.5877 105.995 55.3733 105.995ZM150.938 73.4544H154.563V89.6278H150.938V83.1443H142.93V89.6454H139.305V73.4544H142.93V79.7264H150.938V73.4544ZM50.9031 73.4544H60.7939V75.4629C60.7939 77.0837 60.6531 78.4227 60.3011 79.6383H57.2213V76.8723H50.9031C49.02 76.8723 48.58 77.3656 48.58 79.4269V83.6905C48.58 85.7518 49.02 86.2451 50.9031 86.2451H60.7939V89.6454H50.9031C46.2921 89.6454 44.9545 88.3064 44.9545 83.6905V79.4269C44.9545 74.7581 46.2921 73.4544 50.9031 73.4544ZM153.226 93.2218H154.563V109.395H150.938V97.9259L143.458 109.395H139.287V93.2218H142.912V104.286L148.368 95.8117C149.776 93.6623 150.99 93.2218 153.226 93.2218ZM75.2078 93.2218H64.6482V96.4107L66.5313 96.675V109.395H70.1568V105.22H75.2078C79.3788 105.22 80.8044 103.106 80.8044 99.8462V98.5954C80.8044 95.5122 79.4492 93.2218 75.2078 93.2218ZM77.2141 99.7229C77.2141 101.238 76.6333 101.837 75.2078 101.837H70.1568V96.6397H75.2078C76.6333 96.6397 77.2141 97.3621 77.2141 98.7539V99.7229Z" fill="white"/>
</g>
<defs>
<clipPath id="clip0_516_4813">
<rect width="167" height="50" fill="white" transform="translate(6.5 66.4248)"/>
</clipPath>
</defs>
</svg>
