<svg width="180" height="182" viewBox="0 0 180 182" fill="none" xmlns="http://www.w3.org/2000/svg">
<path fill-rule="evenodd" clip-rule="evenodd" d="M104.088 42.0058C96.5868 47.1967 94.2091 57.342 98.8576 65.3649L128.401 116.4C128.803 117.095 129.717 117.284 130.378 116.827C137.88 111.636 140.257 101.49 135.608 93.4659L106.066 42.4326C105.663 41.7375 104.749 41.5481 104.088 42.0058Z" fill="#EE7203"/>
<path fill-rule="evenodd" clip-rule="evenodd" d="M74.5466 42.0058C67.0458 47.1967 64.6681 57.342 69.3166 65.3649L98.8598 116.4C99.2621 117.095 100.176 117.284 100.837 116.827C108.339 111.636 110.716 101.49 106.067 93.4659L76.525 42.4326C76.1223 41.7375 75.2083 41.5481 74.5466 42.0058Z" fill="#EE7203"/>
<path fill-rule="evenodd" clip-rule="evenodd" d="M77.3767 99.4587C77.3767 89.7275 69.4599 81.8384 59.6937 81.8384C49.9279 81.8384 42.0107 89.7275 42.0107 99.4587C42.0107 109.19 49.9279 117.079 59.6937 117.079C69.4599 117.079 77.3767 109.19 77.3767 99.4587Z" fill="#FB471F"/>
<path fill-rule="evenodd" clip-rule="evenodd" d="M29.479 131.007H32.1905L32.176 134.686H32.6673L35.6284 131.007H38.8682L34.8069 135.732L39.0664 140.764H35.7169L32.6739 137.026H32.1839L32.1984 140.764H29.4856V131.007H29.479Z" fill="white"/>
<path fill-rule="evenodd" clip-rule="evenodd" d="M40.6421 140.757L42.5123 137.465L38.7441 131H41.8294L44.0073 134.927L46.0453 131H49.079L43.6772 140.757H40.6421Z" fill="white"/>
<path fill-rule="evenodd" clip-rule="evenodd" d="M26.9934 135.615C27.7779 135.205 28.3128 134.393 28.3128 133.45C28.3128 132.104 27.214 131.007 25.8642 131.007H20V140.764H26.0847C27.5587 140.764 28.746 139.572 28.746 138.109C28.746 136.968 28.0196 135.995 27.0013 135.615H26.9934ZM22.6323 133.179H24.7732C25.2487 133.179 25.6304 133.559 25.6304 134.035C25.6304 134.51 25.2487 134.891 24.7732 134.891H22.6323V133.179ZM25.1245 138.584H22.6323V136.785H25.1245C25.6225 136.785 26.0266 137.187 26.0266 137.685C26.0266 138.182 25.6225 138.584 25.1245 138.584Z" fill="white"/>
<path fill-rule="evenodd" clip-rule="evenodd" d="M58.3521 131.007H61.0649V134.657H64.8026V131.007H67.5154V140.764H64.8026V137.056H61.0649V140.764H58.3521V131.007Z" fill="white"/>
<path fill-rule="evenodd" clip-rule="evenodd" d="M82.021 134.752H92.4893V137.012H82.021V134.752Z" fill="white"/>
<path fill-rule="evenodd" clip-rule="evenodd" d="M102.151 140.757V135.198L97.9867 140.757H95.6265V131H98.3393V136.353L102.364 131H104.863V140.757H102.151Z" fill="white"/>
<path fill-rule="evenodd" clip-rule="evenodd" d="M112.773 133.377H109.855V131.007H118.416V133.377H115.484V140.764H112.773V133.377Z" fill="white"/>
<path fill-rule="evenodd" clip-rule="evenodd" d="M73.6646 130.678C70.784 130.678 68.4463 133.011 68.4463 135.885C68.4463 138.76 70.784 141.093 73.6646 141.093C76.5452 141.093 78.8842 138.76 78.8842 135.885C78.8842 133.011 76.5452 130.678 73.6646 130.678ZM73.6646 138.387C72.2791 138.387 71.1578 137.268 71.1578 135.885C71.1578 134.503 72.2791 133.384 73.6646 133.384C75.0501 133.384 76.1714 134.503 76.1714 135.885C76.1714 137.268 75.0501 138.387 73.6646 138.387Z" fill="white"/>
<path fill-rule="evenodd" clip-rule="evenodd" d="M135.922 137.816C135.255 137.941 134.565 138.028 133.964 138.028C131.406 138.028 130.064 136.719 130.064 134.415V131H132.777V134.049C132.777 135.125 133.283 135.571 134.367 135.571C134.91 135.571 135.43 135.512 135.922 135.388V131H138.633V140.757H135.922V137.816Z" fill="white"/>
<path fill-rule="evenodd" clip-rule="evenodd" d="M139.593 131.007H142.306L142.291 134.686H142.781L145.744 131.007H148.983L144.922 135.732L149.181 140.764H145.831L142.789 137.026H142.298L142.312 140.764H139.601V131.007H139.593Z" fill="white"/>
<path fill-rule="evenodd" clip-rule="evenodd" d="M124.076 130.678C121.195 130.678 118.856 133.011 118.856 135.885C118.856 138.76 121.195 141.093 124.076 141.093C126.956 141.093 129.294 138.76 129.294 135.885C129.294 133.011 126.956 130.678 124.076 130.678ZM124.076 138.387C122.69 138.387 121.569 137.268 121.569 135.885C121.569 134.503 122.69 133.384 124.076 133.384C125.461 133.384 126.582 134.503 126.582 135.885C126.582 137.268 125.461 138.387 124.076 138.387Z" fill="white"/>
<path fill-rule="evenodd" clip-rule="evenodd" d="M55.2666 137.334C54.8123 137.97 54.0634 138.387 53.2207 138.387C51.8353 138.387 50.7139 137.268 50.7139 135.885C50.7139 134.503 51.8353 133.384 53.2207 133.384C54.0634 133.384 54.8123 133.801 55.2666 134.437L57.4062 132.784C56.454 131.504 54.9364 130.678 53.2207 130.678C50.3402 130.678 48.0024 133.011 48.0024 135.885C48.0024 138.76 50.3402 141.093 53.2207 141.093C54.9364 141.093 56.4606 140.259 57.4062 138.987L55.2666 137.334Z" fill="white"/>
<path fill-rule="evenodd" clip-rule="evenodd" d="M155.874 131.007H153.206L149.085 140.764H151.922L152.62 139.008H156.401L157.098 140.764H160L155.866 131.007H155.874ZM153.411 136.902L154.518 134.145L155.61 136.902H153.419H153.411Z" fill="white"/>
</svg>
