<svg width="180" height="182" viewBox="0 0 180 182" fill="none" xmlns="http://www.w3.org/2000/svg">
<g clip-path="url(#clip0_516_4788)">
<path d="M40 109.925H29.7824L28.1941 104.586H15.8588L14.2706 109.925H4L16.2294 72.9248H27.7706L40 109.925ZM22 83.8662L18.2941 96.4462H25.7588L22 83.8662Z" fill="#01AC6A"/>
<path d="M63.9321 88.7002H83V92.4933C83 97.9782 81.2535 102.43 77.7603 105.849C74.2673 109.233 69.7659 110.925 64.2562 110.925C58.3865 110.925 53.5249 109.055 49.6717 105.315C45.8906 101.575 44 96.9632 44 91.4783C44 86.0289 45.8906 81.3988 49.6717 77.5878C53.4529 73.8125 58.1343 71.9248 63.716 71.9248C67.2092 71.9248 70.4322 72.7084 73.3851 74.2755C76.3019 75.807 78.6067 77.8906 80.2992 80.5262L72.0886 85.1741C71.3324 83.9988 70.2162 83.0549 68.7397 82.3426C67.2632 81.6303 65.6246 81.2741 63.8241 81.2741C60.8352 81.2741 58.3865 82.2358 56.4778 84.159C54.5692 86.1179 53.6149 88.5755 53.6149 91.5317C53.6149 94.4521 54.5513 96.8919 56.4238 98.8508C58.3324 100.845 60.9973 101.843 64.4183 101.843C68.8116 101.843 71.7105 100.204 73.1149 96.9275H63.9321V88.7002Z" fill="#01AC6A"/>
<path d="M86 109.925V72.9248H96V109.925H86Z" fill="#01AC6A"/>
<path d="M128.527 72.9248H138V109.925H128.527V89.9977L119.479 104.851H118.521L109.527 90.0505V109.925H100V72.9248H109.527L119 88.7291L128.527 72.9248Z" fill="#01AC6A"/>
<path d="M178 109.925H167.782L166.195 104.586H153.86L152.271 109.925H142L154.229 72.9248H165.77L178 109.925ZM160 83.8662L156.295 96.4462H163.76L160 83.8662Z" fill="#01AC6A"/>
</g>
<defs>
<clipPath id="clip0_516_4788">
<rect width="172" height="39" fill="white" transform="translate(4 71.9248)"/>
</clipPath>
</defs>
</svg>
