<svg width="180" height="182" viewBox="0 0 180 182" fill="none" xmlns="http://www.w3.org/2000/svg">
<g clip-path="url(#clip0_516_4783)">
<path d="M63.2119 80.8851C63.3876 80.8851 63.7389 80.8851 64.2659 80.7094V82.466C63.3876 83.3443 61.9823 83.8713 60.4014 83.8713C58.6448 83.8713 57.0639 82.6417 56.5369 81.0607C55.4829 82.993 53.375 83.8713 51.6185 83.8713C48.4566 83.8713 46.8757 81.5877 46.8757 79.1285C46.8757 76.318 48.9836 74.5614 52.4967 73.8587H56.1856V72.6291C56.1856 69.8186 55.3073 68.9403 54.0777 68.9403C53.5507 68.9403 53.0237 69.1159 52.6724 69.2916L50.9158 72.8048H49.3349C48.2809 72.2778 47.754 71.2239 47.754 70.3456C47.754 68.2377 50.5645 67.1837 54.2533 67.1837C58.6448 67.1837 61.8067 68.4133 61.8067 72.6291V78.4259C61.8067 79.6555 62.158 80.8851 63.2119 80.8851ZM56.1856 79.6555V75.4397C54.0777 75.791 52.4967 76.1423 52.4967 78.6015C52.4967 80.0068 53.5507 80.7094 54.2533 80.7094C54.956 80.7094 55.6586 80.3581 56.1856 79.6555ZM21.9321 62.4409C23.8644 62.4409 24.2157 63.8462 24.2157 64.9001V79.8311C24.2157 80.8851 23.8644 82.2904 21.9321 82.2904V83.6956H31.9447V82.1147C30.1881 82.1147 30.1881 80.7094 30.1881 79.6555V63.4949H37.2144V79.8311C37.2144 80.8851 37.2144 82.2904 35.4579 82.2904V83.6956H45.4704V82.1147C43.5382 82.1147 43.1868 80.7094 43.1868 79.6555V64.9001C43.1868 63.8462 43.5382 62.4409 45.4704 62.4409V61.0356H21.9321V62.4409ZM83.237 75.264C83.237 80.5338 80.9535 84.0469 75.6837 84.0469C74.6297 84.0469 73.5758 83.8713 72.3462 83.3443V89.141C72.3462 90.0193 72.6975 91.4246 74.6297 91.4246V92.6542H64.4415V91.2489C66.3738 91.2489 66.7251 90.0193 66.7251 88.9654V71.7508C66.7251 70.8725 66.3738 69.4673 64.4415 69.4673V68.062L71.9949 67.1837V69.9942L74.8054 67.535C75.6837 67.1837 76.2107 67.008 76.9133 67.008C81.1291 67.008 83.237 71.0482 83.237 75.264ZM77.4403 75.4397C77.4403 72.6291 76.562 70.5212 74.4541 70.5212C72.6975 70.5212 72.3462 71.7508 72.3462 73.6831V80.8851C73.0488 81.4121 73.7515 81.939 74.6297 81.939C77.089 81.7634 77.4403 78.2502 77.4403 75.4397ZM100.803 73.3318C100.803 73.8587 101.154 74.3857 101.857 74.3857C102.384 74.3857 102.735 73.8587 102.735 73.3318C102.735 72.8048 102.384 72.2778 101.857 72.2778C101.154 72.2778 100.803 72.6291 100.803 73.3318ZM99.0463 75.6153L95.8845 74.5614L98.695 72.9804C99.749 70.6969 101.506 69.2916 103.613 68.7646V67.3594H96.0601V68.7646C96.5871 68.7646 97.8167 69.1159 97.8167 69.6429L93.7766 74.21L93.0739 74.3857V71.0482C93.0739 70.1699 93.0739 68.7646 94.8305 68.7646V67.3594H85.1693V68.7646C86.9259 68.7646 87.4528 69.9942 87.4528 71.0482V79.8311C87.4528 80.7094 87.1015 82.1147 85.1693 82.1147V83.52H94.6548V82.1147C92.8983 82.1147 92.8983 80.8851 92.8983 79.8311V76.1423H93.7766C94.6548 78.0745 96.5871 82.993 98.8707 83.6956H104.316V82.1147C102.033 80.8851 100.1 79.1285 99.0463 75.6153Z" fill="white"/>
<path d="M128.206 99.8563H143.312L142.61 105.829H141.38L139.623 102.491C139.448 101.964 139.096 101.789 138.57 101.789H136.11V112.328C136.11 113.206 136.462 114.612 138.394 114.612V116.017H128.381V114.612C130.138 114.612 130.665 113.382 130.665 112.328V103.545C130.665 102.667 130.314 101.262 128.381 101.262V99.8563H128.206ZM38.971 93.3569H21.9321V94.9379C23.8644 94.9379 24.2157 96.3431 24.2157 97.3971V112.152C24.2157 113.206 23.8644 114.612 21.9321 114.612V116.017H32.4717V114.612C30.5394 114.612 30.1881 113.206 30.1881 112.152V95.8162H33.5256C34.2282 95.8162 34.7552 95.9918 35.1065 96.6944L36.8631 100.383H38.2684L38.971 93.3569ZM105.721 107.761L103.086 106.883L106.6 103.369C108.532 101.789 109.41 101.262 110.64 101.086V99.6806H103.086V101.086C103.613 101.086 104.843 101.437 104.843 101.964L100.803 106.356L99.9246 106.707V103.369C99.9246 102.491 99.9246 101.086 101.681 101.086V99.6806H92.02V101.086C93.7765 101.086 94.3035 102.316 94.3035 103.369V112.152C94.3035 113.031 93.9522 114.436 92.02 114.436V115.841H101.506V114.436C99.7489 114.436 99.7489 113.206 99.7489 112.152V108.464H100.627C101.33 110.22 103.438 115.49 105.721 116.017H111.167V114.612C108.532 113.733 107.478 109.342 105.721 107.761ZM160 107.761C160 113.733 155.784 116.193 151.92 116.193C145.772 116.193 143.839 111.625 143.839 107.761C143.839 101.789 148.055 99.3293 151.92 99.3293C158.068 99.505 160 104.072 160 107.761ZM154.203 107.41C154.203 104.423 153.852 101.086 151.744 101.086C149.285 101.086 149.285 104.95 149.285 108.112C149.285 111.098 149.636 114.436 151.744 114.436C154.203 114.436 154.203 110.571 154.203 107.41ZM127.503 107.761C127.503 113.733 123.287 116.193 119.423 116.193C113.275 116.193 111.342 111.625 111.342 107.761C111.342 101.789 115.558 99.3293 119.423 99.3293C125.571 99.505 127.503 104.072 127.503 107.761ZM121.706 107.41C121.706 104.423 121.355 101.086 119.247 101.086C116.788 101.086 116.788 104.95 116.788 108.112C116.788 111.098 117.139 114.436 119.247 114.436C121.706 114.436 121.706 110.571 121.706 107.41ZM91.3173 110.396C91.3173 114.085 88.3311 116.017 84.4666 116.017C84.1153 116.017 82.8857 116.017 82.0074 116.017H81.4804C80.4265 116.017 78.8456 116.017 77.9673 116.017H74.2784V114.612C76.035 114.612 76.562 113.382 76.562 112.328V103.545C76.562 102.667 76.2107 101.262 74.2784 101.262V99.8563H84.291V101.262C82.5344 101.262 82.0074 102.491 82.0074 103.545V105.829L84.9936 105.302C88.3311 105.126 91.3173 106.707 91.3173 110.396ZM85.6962 110.747C85.6962 108.991 84.8179 107.234 82.5344 107.234C82.3587 107.234 82.1831 107.234 82.0074 107.234V113.909C82.3587 114.085 82.8857 114.085 83.237 114.085C84.9936 114.085 85.6962 112.328 85.6962 110.747ZM53.375 107.761C53.375 113.733 49.1592 116.193 45.2947 116.193C39.1467 116.193 37.2144 111.625 37.2144 107.761C37.2144 101.789 41.4302 99.3293 45.2947 99.3293C51.4428 99.505 53.375 104.072 53.375 107.761ZM47.754 107.41C47.754 104.423 47.4026 101.086 45.2947 101.086C42.8355 101.086 42.8355 104.95 42.8355 108.112C42.8355 111.098 43.1868 114.436 45.2947 114.436C47.754 114.436 47.754 110.571 47.754 107.41ZM72.8732 107.585C72.8732 112.855 70.5896 116.368 65.3198 116.368C64.2659 116.368 63.2119 116.193 61.9823 115.666V121.462C61.9823 122.341 62.3336 123.746 64.2659 123.746V125.151H54.2533V123.746C56.0099 123.746 56.5369 122.516 56.5369 121.462V104.248C56.5369 103.369 56.1856 101.964 54.2533 101.964V100.559L61.8067 99.6806V102.491L64.6172 100.032C65.4955 99.6807 66.0225 99.505 66.7251 99.505C70.7653 99.505 72.8732 103.369 72.8732 107.585ZM67.0764 107.761C67.0764 104.95 66.1981 102.843 64.0902 102.843C62.3336 102.843 61.9823 104.072 61.9823 106.004V113.206C62.6849 113.733 63.3876 114.26 64.2659 114.26C66.7251 114.085 67.0764 110.571 67.0764 107.761Z" fill="white"/>
</g>
<defs>
<clipPath id="clip0_516_4783">
<rect width="140" height="67.8043" fill="white" transform="translate(20 57.5225)"/>
</clipPath>
</defs>
</svg>
