<svg width="180" height="182" viewBox="0 0 180 182" fill="none" xmlns="http://www.w3.org/2000/svg">
<g clip-path="url(#clip0_516_4784)">
<mask id="mask0_516_4784" style="mask-type:luminance" maskUnits="userSpaceOnUse" x="20" y="59" width="140" height="65">
<path d="M160 59.6064H20V123.243H160V59.6064Z" fill="white"/>
</mask>
<g mask="url(#mask0_516_4784)">
<path fill-rule="evenodd" clip-rule="evenodd" d="M61.9431 123.243H32.2434L20.2539 59.6064H49.9536L61.9431 123.243ZM67.9379 91.4099L61.9431 123.243H91.6429L97.6376 91.4099H67.9379ZM107.284 105.874V94.6999H107.345L111.209 105.874H115.561L119.425 94.6703V105.874H123.412V91.4395H117.326L113.613 102.228L109.931 91.4395H103.632V105.874H107.284ZM124.416 94.5813V91.4099H140.422V94.5813H134.397V105.874H130.411V94.5813H124.416ZM157.281 96.4189C156.855 92.5066 153.903 91.1135 148.973 91.1135L149.003 91.1432C143.618 91.1432 140.453 92.9808 140.453 98.6716C140.453 104.362 144.104 106.17 149.003 106.17C153.903 106.17 156.855 104.748 157.311 101.013H153.294C152.868 102.732 151.742 103.147 149.003 103.147C146.265 103.147 144.439 102.406 144.439 99.4719V97.812C144.439 94.8184 146.477 94.1367 148.973 94.1367C151.468 94.1367 152.929 94.5813 153.264 96.4189H157.281ZM107.649 108.749V120.042H116.261V123.213H103.632V108.779H107.619L107.649 108.749ZM121.951 123.184V108.749H117.965V123.184H121.951ZM141.487 108.749L135.158 123.184H129.741L123.442 108.749H127.733L132.723 120.338L137.775 108.749H141.487ZM156.49 111.743V108.749L156.459 108.779H142.948V123.213H156.55V120.22H146.965V117.256H154.208V114.381H146.965V111.743H156.49Z" fill="#FF0032"/>
</g>
</g>
<defs>
<clipPath id="clip0_516_4784">
<rect width="140" height="63.6364" fill="white" transform="translate(20 59.6064)"/>
</clipPath>
</defs>
</svg>
