<svg width="180" height="182" viewBox="0 0 180 182" fill="none" xmlns="http://www.w3.org/2000/svg">
<g clip-path="url(#clip0_516_4786)">
<path d="M87.5311 115.984V94.8809H96.0925V88.4839H87.5311V73.3368H97.9665V66.8662H79.7253V115.984H87.5311Z" fill="white"/>
<path d="M120.485 109.513H109.529V94.2192H118.158V87.8222H109.529V73.3368H120.561V66.8662H101.67V115.984H120.485V109.513Z" fill="white"/>
<path d="M133.905 116.425C140.706 116.425 145.391 111.278 145.391 103.925C145.391 91.4984 130.527 85.6895 130.527 77.7484C130.527 74.7336 131.88 72.6013 134.434 72.6013C137.812 72.6013 138.635 76.7189 138.409 81.4248L145.172 80.0277C145.466 71.6454 141.718 66.4248 134.434 66.4248C127.527 66.4248 123.099 71.5719 123.099 78.4101C123.099 90.6161 137.963 95.8365 137.963 104.587C137.963 108.042 136.761 110.175 133.761 110.175C130.232 110.175 128.729 106.057 129.401 99.8071L122.495 101.204C121.747 111.057 126.779 116.425 133.905 116.425Z" fill="white"/>
<path d="M161.667 115.984V73.3368H169.103V66.8662H146.434V73.3368H153.794V115.984H161.667Z" fill="white"/>
<path d="M24.7816 89.8882H23.1268L26.1493 73.4469H27.3508C31.2575 73.4469 32.9879 74.8293 32.9879 78.1969C32.9879 81.2631 32.1568 86.0866 30.056 88.1381C28.8621 89.3072 27.1846 89.8882 24.7816 89.8882ZM35.6024 115.984C34.9224 114.447 34.7713 112.476 34.8468 110.138L35.2247 100.851C35.3758 96.5425 33.7964 93.6896 30.789 92.8881V92.7411C35.8971 92.1528 41.0052 86.6013 41.0052 77.2484C41.0052 70.8881 37.8543 67.1602 29.5875 67.1602H19.3712L10.5 115.984H18.3889L22.0009 95.8072H23.2779C26.1342 95.8072 27.4113 96.9102 27.4113 100.851L27.0334 110.572C26.9025 112.388 27.0554 114.213 27.4868 115.984H35.6024Z" fill="white"/>
<path d="M58.6646 109.55H47.7002L50.4054 94.3513H59.0423L60.1683 87.9911H51.5313L54.1609 73.5866H65.2085L66.41 67.1602H47.4736L38.6099 115.984H57.4631L58.6646 109.55Z" fill="white"/>
<path d="M63.8333 107.792H72.4552L70.6946 115.969H62.1104L63.8333 107.792Z" fill="white"/>
</g>
<defs>
<clipPath id="clip0_516_4786">
<rect width="159" height="50" fill="white" transform="translate(10.5 66.4248)"/>
</clipPath>
</defs>
</svg>
