<svg width="180" height="182" viewBox="0 0 180 182" fill="none" xmlns="http://www.w3.org/2000/svg">
<g clip-path="url(#clip0_516_4792)">
<mask id="mask0_516_4792" style="mask-type:luminance" maskUnits="userSpaceOnUse" x="20" y="21" width="140" height="141">
<path d="M159.98 21.4966H20V161.476H159.98V21.4966Z" fill="white"/>
</mask>
<g mask="url(#mask0_516_4792)">
<mask id="mask1_516_4792" style="mask-type:luminance" maskUnits="userSpaceOnUse" x="67" y="65" width="46" height="45">
<path d="M89.9375 75.2877L97.1035 94.5054H82.7717L89.9375 75.2877ZM89.9375 65.3765H84.5631L67.6953 109.78H77.0716L79.9215 102.137H99.9419L102.792 109.78H112.168L95.3003 65.3765H89.9259H89.9375Z" fill="white"/>
</mask>
<g mask="url(#mask1_516_4792)">
<path d="M111.4 84.8965L106.026 81.8603L111.4 78.8125V84.8965Z" fill="#F4D832"/>
<path d="M106.026 81.8608V75.7651L111.4 78.813L106.026 81.8608Z" fill="#E4CF30"/>
<path d="M106.026 75.7652V69.6812L111.4 72.729L106.026 75.7652Z" fill="#D58A22"/>
<path d="M111.4 78.8125L106.026 75.7647L111.4 72.7285V78.8125Z" fill="#D8CA31"/>
<path d="M106.026 69.6807V63.5967L111.4 66.6329L106.026 69.6807Z" fill="#9AB638"/>
<path d="M111.4 66.6328L106.026 63.5967L111.4 60.5488V66.6328Z" fill="#88AF3C"/>
<path d="M106.026 81.8604V87.9444L111.4 84.8965L106.026 81.8604Z" fill="#EABF2E"/>
<path d="M111.4 84.8965L106.026 87.9443L111.4 90.9921V84.8965Z" fill="#D88F23"/>
<path d="M106.026 87.9443V94.0285L111.4 90.9922L106.026 87.9443Z" fill="#D58A22"/>
<path d="M111.4 90.9922L106.026 94.0284L111.4 97.0762V90.9922Z" fill="#C65C1E"/>
<path d="M106.026 94.0283V100.124L111.4 97.0763L106.026 94.0283Z" fill="#C24B1F"/>
<path d="M111.4 97.0762L106.026 100.124L111.4 103.16V97.0762Z" fill="#C13724"/>
<path d="M106.026 100.125V106.209L111.4 103.161L106.026 100.125Z" fill="#BA2C26"/>
<path d="M106.026 106.208V112.293L111.4 109.256L106.026 106.208Z" fill="#AA3622"/>
<path d="M111.4 103.16L106.026 106.208L111.4 109.256V103.16Z" fill="#B32225"/>
<path d="M106.026 112.293L111.4 115.34V109.256L106.026 112.293Z" fill="#9F2120"/>
<path d="M106.026 69.6812V75.7652L111.4 72.729L106.026 69.6812Z" fill="#B9BB2E"/>
<path d="M111.4 66.6328L106.026 69.6806L111.4 72.7285V66.6328Z" fill="#A9BF35"/>
<path d="M100.651 84.8965L106.025 81.8603L100.651 78.8125V84.8965Z" fill="#75A951"/>
<path d="M106.025 81.8608V75.7651L100.651 78.813L106.025 81.8608Z" fill="#DACA30"/>
<path d="M106.025 75.7652V69.6812L100.651 72.729L106.025 75.7652Z" fill="#D58A22"/>
<path d="M100.651 78.8125L106.025 75.7647L100.651 72.7285V78.8125Z" fill="#C4CB32"/>
<path d="M106.025 69.6807V63.5967L100.651 66.6329L106.025 69.6807Z" fill="#88AF3C"/>
<path d="M100.651 66.6328L106.025 63.5967L100.651 60.5488V66.6328Z" fill="#78A83F"/>
<path d="M106.025 81.8604V87.9444L100.651 84.8965L106.025 81.8604Z" fill="#A19C44"/>
<path d="M100.651 84.8965L106.025 87.9443L100.651 90.9921V84.8965Z" fill="#C0A03A"/>
<path d="M106.025 87.9443V94.0285L100.651 90.9922L106.025 87.9443Z" fill="#B95D36"/>
<path d="M100.651 90.9922L106.025 94.0284L100.651 97.0762V90.9922Z" fill="#CA701F"/>
<path d="M106.025 94.0283V100.124L100.651 97.0763L106.025 94.0283Z" fill="#C65825"/>
<path d="M100.651 97.0762L106.025 100.124L100.651 103.16V97.0762Z" fill="#CB632F"/>
<path d="M106.025 100.125V106.209L100.651 103.161L106.025 100.125Z" fill="#BE3624"/>
<path d="M106.025 106.208V112.293L100.651 109.256L106.025 106.208Z" fill="#BA3823"/>
<path d="M100.651 103.16L106.025 106.208L100.651 109.256V103.16Z" fill="#BE4424"/>
<path d="M116.774 106.208V112.293L111.4 109.256L116.774 106.208Z" fill="#BA3823"/>
<path d="M111.4 103.16L116.774 106.208L111.4 109.256V103.16Z" fill="#B6383D"/>
<path d="M111.4 109.221L116.774 112.269L111.4 115.305V109.221Z" fill="#AA3826"/>
<path d="M106.025 112.293L100.651 115.34V109.256L106.025 112.293Z" fill="#B44E22"/>
<path d="M106.025 69.6812V75.7652L100.651 72.729L106.025 69.6812Z" fill="#B7C431"/>
<path d="M100.651 66.6328L106.025 69.6806L100.651 72.7285V66.6328Z" fill="#9AB638"/>
<path d="M73.8022 69.6812L79.1767 72.729L73.8022 75.7652V69.6812Z" fill="#629D5F"/>
<path d="M73.8024 63.5967V69.6807L68.4395 66.6329L73.8024 63.5967Z" fill="#589998"/>
<path d="M68.4395 60.5488L73.8024 63.5967L68.4395 66.6328V60.5488Z" fill="#5693B9"/>
<path d="M95.2885 75.7652L89.9141 72.729L95.2885 69.6812V75.7652Z" fill="#5EA17A"/>
<path d="M95.2886 69.6807V63.5967L100.663 66.6329L95.2886 69.6807Z" fill="#5CA28D"/>
<path d="M79.1768 66.6328V60.5488L84.5512 63.5967L79.1768 66.6328Z" fill="#559788"/>
<path d="M89.9141 66.6329L84.5513 69.6807V63.5967L89.9141 66.6329Z" fill="#4E8880"/>
<path d="M84.5512 69.6807L79.1768 66.6329L84.5512 63.5967V69.6807Z" fill="#467C80"/>
<path d="M89.9141 72.729L84.5513 75.7652V69.6812L89.9141 72.729Z" fill="#57997E"/>
<path d="M84.5512 75.7652L79.1768 72.729L84.5512 69.6812V75.7652Z" fill="#559777"/>
<path d="M89.9141 60.5488V66.6328L84.5513 63.5967L89.9141 60.5488Z" fill="#437882"/>
<path d="M95.2886 63.5967L100.663 60.5488V66.6328L95.2886 63.5967Z" fill="#66A042"/>
<path d="M95.2886 75.7652V69.6812L100.663 72.729L95.2886 75.7652Z" fill="#5CA28D"/>
<path d="M95.2886 69.6806L100.663 66.6328V72.7285L95.2886 69.6806Z" fill="#579697"/>
<path d="M89.9141 72.7285L84.5513 69.6806L89.9141 66.6328V72.7285Z" fill="#528F96"/>
<path d="M79.1768 72.7285V66.6328L84.5512 69.6806L79.1768 72.7285Z" fill="#498075"/>
</g>
<mask id="mask2_516_4792" style="mask-type:luminance" maskUnits="userSpaceOnUse" x="67" y="65" width="46" height="45">
<path d="M89.9375 75.2877L97.1035 94.5054H82.7717L89.9375 75.2877ZM89.9375 65.3765H84.5631L67.6953 109.78H77.0716L79.9215 102.137H99.9419L102.792 109.78H112.168L95.3003 65.3765H89.9259H89.9375Z" fill="white"/>
</mask>
<g mask="url(#mask2_516_4792)">
<path d="M89.9141 72.7285V66.6328L95.2885 69.6806L89.9141 72.7285Z" fill="#5DA280"/>
<path d="M89.9141 66.6328V60.5488L95.2885 63.5967L89.9141 66.6328Z" fill="#D58A22"/>
<path d="M95.2885 69.6807L89.9141 66.6329L95.2885 63.5967V69.6807Z" fill="#5A9DA1"/>
<path d="M68.4395 66.6328L73.8024 69.6806L68.4395 72.7285V66.6328Z" fill="#548DCB"/>
<path d="M73.8024 69.6812V75.7652L68.4395 72.729L73.8024 69.6812Z" fill="#59949C"/>
<path d="M89.9141 72.7285V78.8125L95.2885 75.7647L89.9141 72.7285Z" fill="#589C86"/>
<path d="M95.2885 75.7651L89.9141 78.813L95.2885 81.8608V75.7651Z" fill="#5B9D70"/>
<path d="M89.9141 78.8125V84.8965L95.2885 81.8603L89.9141 78.8125Z" fill="#72A97A"/>
<path d="M95.2885 81.8604L89.9141 84.8965L95.2885 87.9444V81.8604Z" fill="#9BB95A"/>
<path d="M73.8022 87.9444L79.1767 84.8965L73.8022 81.8604V87.9444Z" fill="#949B4A"/>
<path d="M79.1767 90.9921V84.8965L73.8022 87.9443L79.1767 90.9921Z" fill="#B0B740"/>
<path d="M73.8022 94.0285L79.1767 90.9922L73.8022 87.9443V94.0285Z" fill="#C0BB31"/>
<path d="M79.1767 84.8965V78.8125L73.8022 81.8603L79.1767 84.8965Z" fill="#819E5E"/>
<path d="M73.8022 81.8608L79.1767 78.813L73.8022 75.7651V81.8608Z" fill="#79A83F"/>
<path d="M79.1767 78.8125V72.7285L73.8022 75.7647L79.1767 78.8125Z" fill="#66A042"/>
<path d="M73.8024 100.124V94.0283L68.4395 97.0763L73.8024 100.124Z" fill="#CBB82B"/>
<path d="M68.4395 103.16L73.8024 100.124L68.4395 97.0762V103.16Z" fill="#CCC02F"/>
<path d="M73.8024 106.209V100.125L68.4395 103.161L73.8024 106.209Z" fill="#D7B32C"/>
<path d="M68.4395 109.256L73.8024 106.208L68.4395 103.16V109.256Z" fill="#CEB229"/>
<path d="M73.8024 112.293V106.208L68.4395 109.256L73.8024 112.293Z" fill="#CB8926"/>
<path d="M89.9141 84.8965V90.9921L95.2885 87.9443L89.9141 84.8965Z" fill="#A7AD5C"/>
<path d="M95.2885 87.9443L89.9141 90.9922L95.2885 94.0285V87.9443Z" fill="#C5C74D"/>
<path d="M95.2886 94.0283V100.124L100.663 97.0763L95.2886 94.0283Z" fill="#CCA22F"/>
<path d="M79.1768 97.0762V103.16L84.5512 100.124L79.1768 97.0762Z" fill="#D3B82D"/>
<path d="M89.9141 97.0763L84.5513 94.0283V100.124L89.9141 97.0763Z" fill="#CDB934"/>
<path d="M84.5512 94.0283L79.1768 97.0763L84.5512 100.124V94.0283Z" fill="#CDB52A"/>
<path d="M89.9141 90.9922L84.5513 87.9443V94.0285L89.9141 90.9922Z" fill="#C4C546"/>
<path d="M84.5512 87.9443L79.1768 90.9922L84.5512 94.0285V87.9443Z" fill="#C1C13A"/>
<path d="M79.1768 103.161L84.5512 106.209V100.125L79.1768 103.161Z" fill="#D69725"/>
<path d="M89.9141 103.16V97.0762L84.5513 100.124L89.9141 103.16Z" fill="#E0B62C"/>
<path d="M84.5513 100.125V106.209L89.9141 103.161L84.5513 100.125Z" fill="#D19F27"/>
<path d="M95.2886 106.208V112.293L100.663 109.245L95.2886 106.208Z" fill="#C13724"/>
<path d="M84.5513 106.208L89.9141 109.256V103.16L84.5513 106.208Z" fill="#CF751D"/>
<path d="M95.2886 106.208L100.663 109.244V103.16L95.2886 106.208Z" fill="#C06826"/>
<path d="M95.2886 100.112V106.208L100.663 103.16L95.2886 100.112Z" fill="#C47224"/>
<path d="M95.2886 100.124L100.663 103.16V97.0762L95.2886 100.124Z" fill="#D3842A"/>
<path d="M95.2886 87.9443V94.0285L100.663 90.9922L95.2886 87.9443Z" fill="#CCC047"/>
<path d="M95.2886 94.0284L100.663 97.0762V90.9922L95.2886 94.0284Z" fill="#C59D3A"/>
<path d="M79.1768 109.256L84.5512 106.208L79.1768 103.16V109.256Z" fill="#C1A12A"/>
<path d="M89.9141 90.9922L84.5513 94.0284L89.9141 97.0762V90.9922Z" fill="#D3C842"/>
<path d="M79.1768 90.9922V97.0762L84.5512 94.0284L79.1768 90.9922Z" fill="#CCC12F"/>
</g>
<mask id="mask3_516_4792" style="mask-type:luminance" maskUnits="userSpaceOnUse" x="100" y="102" width="1" height="1">
<path d="M100.035 102.253H100.046L100.035 102.206V102.253Z" fill="white"/>
</mask>
<g mask="url(#mask3_516_4792)">
<path d="M100.05 102.187L100.013 102.214L100.04 102.252L100.078 102.224L100.05 102.187Z" fill="url(#paint0_linear_516_4792)"/>
</g>
<mask id="mask4_516_4792" style="mask-type:luminance" maskUnits="userSpaceOnUse" x="67" y="65" width="46" height="45">
<path d="M89.9375 75.2877L97.1035 94.5054H82.7717L89.9375 75.2877ZM89.9375 65.3765H84.5631L67.6953 109.78H77.0716L79.9215 102.137H99.9419L102.792 109.78H112.168L95.3003 65.3765H89.9259H89.9375Z" fill="white"/>
</mask>
<g mask="url(#mask4_516_4792)">
<path d="M79.1768 78.8125V84.8965L84.5512 81.8603L79.1768 78.8125Z" fill="#7A9968"/>
<path d="M89.9141 78.8126L84.5513 75.7646V81.8605L89.9141 78.8126Z" fill="#5E9C6E"/>
<path d="M84.5512 75.7646L79.1768 78.8126L84.5512 81.8605V75.7646Z" fill="#568D75"/>
<path d="M79.1768 84.8965L84.5512 87.9444V81.8604L79.1768 84.8965Z" fill="#A2B549"/>
<path d="M89.9141 84.8965V78.8125L84.5513 81.8603L89.9141 84.8965Z" fill="#72A75D"/>
<path d="M84.5513 81.8604V87.9444L89.9141 84.8965L84.5513 81.8604Z" fill="#A4BC62"/>
<path d="M84.5513 87.9443L89.9141 90.9921V84.8965L84.5513 87.9443Z" fill="#B2BC68"/>
<path d="M89.9141 90.9922V97.0762L95.2885 94.0284L89.9141 90.9922Z" fill="#D1C33C"/>
<path d="M89.9141 97.0762V103.16L95.2885 100.124L89.9141 97.0762Z" fill="#D79F27"/>
<path d="M95.2885 94.0283L89.9141 97.0761L95.2885 100.124V94.0283Z" fill="#D6AD33"/>
<path d="M89.9141 103.16V109.256L95.2885 106.208L89.9141 103.16Z" fill="#D1A127"/>
<path d="M95.2885 106.208L89.9141 109.256L95.2885 112.293V106.208Z" fill="#C24B1F"/>
<path d="M89.9141 103.161L95.2885 106.209V100.125L89.9141 103.161Z" fill="#CC8223"/>
<path d="M73.8022 100.124L79.1767 97.0761L73.8022 94.0283V100.124Z" fill="#CFBB34"/>
<path d="M79.1767 103.16V97.0762L73.8022 100.124L79.1767 103.16Z" fill="#D8A826"/>
<path d="M73.8022 106.209L79.1767 103.161L73.8022 100.125V106.209Z" fill="#D4B42C"/>
<path d="M79.1767 109.256V103.16L73.8022 106.208L79.1767 109.256Z" fill="#CEA829"/>
<path d="M68.498 109.256V103.16L63.1353 106.208L68.498 109.256Z" fill="#CEA829"/>
<path d="M68.4395 115.34L73.8022 112.293L68.4395 109.256V115.34Z" fill="#BF6F26"/>
<path d="M79.1767 115.34V109.256L73.8022 112.293L79.1767 115.34Z" fill="#BF6C22"/>
<path d="M68.4629 115.34V109.256L63.1001 112.293L68.4629 115.34Z" fill="#C06921"/>
<path d="M73.8022 112.293L79.1767 109.256L73.8022 106.208V112.293Z" fill="#C67E26"/>
<path d="M63.1353 112.293L68.498 109.256L63.1353 106.208V112.293Z" fill="#C67E26"/>
<path d="M79.1768 90.9921L84.5512 87.9443L79.1768 84.8965V90.9921Z" fill="#BABA4C"/>
<path d="M79.1767 97.0762V90.9922L73.8022 94.0284L79.1767 97.0762Z" fill="#C8C531"/>
<path d="M68.4395 97.0762L73.8022 94.0284L68.4395 90.9922V97.0762Z" fill="#D8CA31"/>
<path d="M73.8022 94.0283V87.9443L68.4395 90.9922L73.8022 94.0283Z" fill="#D1C62F"/>
<path d="M89.9141 72.7285L84.5513 75.7647L89.9141 78.8125V72.7285Z" fill="#5DA281"/>
<path d="M100.663 78.8126L95.2886 75.7646V81.8605L100.663 78.8126Z" fill="#5FA26C"/>
<path d="M100.663 84.8965V78.8125L95.2886 81.8603L100.663 84.8965Z" fill="#80AC70"/>
<path d="M95.2886 81.8604V87.9444L100.663 84.8965L95.2886 81.8604Z" fill="#98B86E"/>
<path d="M95.2886 87.9443L100.663 90.9805V84.8965L95.2886 87.9443Z" fill="#B3B35B"/>
<path d="M100.663 72.7285L95.2886 75.7647L100.663 78.8125V72.7285Z" fill="#5A9E75"/>
<path d="M89.9141 60.5488V66.6328L95.2885 63.5967L89.9141 60.5488Z" fill="#5DA4A4"/>
<path d="M73.8022 69.6806L79.1767 72.7285V66.6328L73.8022 69.6806Z" fill="#5A9B6A"/>
<path d="M79.1768 72.7285V78.8125L84.5512 75.7647L79.1768 72.7285Z" fill="#518E6E"/>
<path d="M68.4395 78.8125V84.8965L73.8139 81.8603L68.4395 78.8125Z" fill="#82AD45"/>
<path d="M73.8139 75.7646L68.4395 78.8126L73.8139 81.8605V75.7646Z" fill="#7AAA53"/>
<path d="M68.4395 84.8965L73.8139 87.9444V81.8604L68.4395 84.8965Z" fill="#A1B337"/>
<path d="M68.4395 90.9921L73.8139 87.9443L68.4395 84.8965V90.9921Z" fill="#B9BB2E"/>
<path d="M68.4395 72.7285V78.8125L73.8139 75.7647L68.4395 72.7285Z" fill="#619C5E"/>
<path d="M79.1767 60.5488L73.8022 63.5967L79.1767 66.6328V60.5488Z" fill="#59949C"/>
<path d="M73.8022 63.5967V69.6807L79.1767 66.6329L73.8022 63.5967Z" fill="#559788"/>
</g>
<mask id="mask5_516_4792" style="mask-type:luminance" maskUnits="userSpaceOnUse" x="20" y="21" width="140" height="141">
<path d="M159.98 21.4966H20V161.476H159.98V21.4966Z" fill="white"/>
</mask>
<g mask="url(#mask5_516_4792)">
<path d="M49.629 81.6037C49.7105 81.8828 49.757 82.4993 49.629 83.267C49.2684 85.4425 47.7212 86.3265 45.9298 86.0357C43.7892 85.6751 42.8471 83.9419 43.1728 82.0456C43.3008 81.3127 43.545 80.7777 43.7078 80.5449L44.7898 81.0219C44.6152 81.2894 44.4408 81.6733 44.3593 82.1736C44.1731 83.302 44.7083 84.2909 46.1042 84.5235C47.3606 84.7329 48.2797 84.1163 48.489 82.8482C48.5588 82.418 48.5472 81.9293 48.489 81.6269L49.629 81.6037Z" fill="white"/>
<path d="M48.919 73.763C50.8967 74.4377 51.6877 76.0431 51.0829 77.8114C50.4779 79.6028 48.7679 80.1844 47.0462 79.6028C45.2431 78.9863 44.2777 77.3693 44.8825 75.5894C45.5106 73.7398 47.244 73.1931 48.9076 73.763M47.4999 78.1487C48.6865 78.5559 49.6985 78.2766 50.0127 77.3693C50.3268 76.4502 49.6288 75.6243 48.4539 75.2171C47.3719 74.8449 46.2668 75.0543 45.9411 75.9849C45.627 76.904 46.3249 77.7416 47.4882 78.1371" fill="white"/>
<path d="M53.2121 67.4463C52.5374 67.0857 51.7231 66.6553 50.9204 66.1899V66.2132C51.5136 66.7949 52.1652 67.4696 52.6886 68.0628L54.4569 69.9706L53.8984 70.9479L51.4207 70.3081C50.6645 70.1103 49.7804 69.8544 48.9777 69.5635C49.6989 70.0404 50.5365 70.5524 51.2112 70.9944L53.247 72.2972L52.584 73.4489L47.2676 69.9126L48.2216 68.249L50.3736 68.7726C51.1065 68.9703 51.8975 69.1912 52.6187 69.4472V69.424C52.0837 68.9004 51.4671 68.2956 50.9553 67.7604L49.4663 66.1085L50.4085 64.48L56.097 67.3649L55.399 68.5864L53.2354 67.4463H53.2121Z" fill="white"/>
<path d="M58.8885 60.3507C58.2953 59.8621 57.5974 59.2571 56.9111 58.6406L56.8878 58.6639C57.3646 59.3502 57.8533 60.1529 58.2488 60.8392L59.575 63.0729L58.8189 63.9103L56.5272 62.7703C55.8291 62.4213 55.0149 61.9792 54.2935 61.5371H54.2819C54.8985 62.1538 55.6081 62.8285 56.1666 63.3986L57.8882 65.0969L56.9924 66.0858L52.5254 61.5257L53.8051 60.0947L55.8058 61.0487C56.4923 61.3977 57.2135 61.7815 57.8649 62.1771L57.8882 62.1538C57.4577 61.5257 56.9807 60.8043 56.5969 60.1762L55.4801 58.2567L56.7365 56.8608L61.7038 60.8625L60.7616 61.9096L58.8885 60.3507Z" fill="white"/>
<path d="M60.3661 53.7893L62.5765 56.7093C63.2395 57.5818 63.9026 57.7795 64.4959 57.3258C65.1008 56.8721 65.1124 56.1974 64.4377 55.3016L62.2275 52.3818L63.3675 51.5093L65.5196 54.3594C66.7061 55.9299 66.4852 57.2676 65.159 58.2798C63.8793 59.2452 62.5881 59.1174 61.3666 57.4887L59.2261 54.6502L60.3777 53.7777L60.3661 53.7893Z" fill="white"/>
<path d="M68.8234 55.5807L65.915 49.9155L67.4157 49.1477L69.661 50.6251C70.3007 51.0555 70.9987 51.579 71.5804 52.0908H71.6037C71.1383 51.3696 70.7195 50.6251 70.2775 49.7758L69.4282 48.1241L70.6032 47.519L73.5115 53.1844L72.162 53.8707L69.8237 52.3119C69.1724 51.8815 68.4279 51.3346 67.8112 50.8113L67.7881 50.8345C68.2067 51.5674 68.6372 52.3585 69.1142 53.2774L69.9867 54.9875L68.8117 55.5923L68.8234 55.5807Z" fill="white"/>
<path d="M74.59 46.0083L73.2319 46.4947L75.378 52.4851L76.736 51.9987L74.59 46.0083Z" fill="white"/>
<path d="M83.1555 50.1487C82.9229 50.3347 82.3761 50.6024 81.6199 50.7768C79.4795 51.2654 78.0602 50.1836 77.6647 48.4153C77.1878 46.2981 78.4324 44.7742 80.3053 44.3438C81.0384 44.1809 81.6199 44.2041 81.8991 44.274L81.8642 45.4489C81.5501 45.3907 81.1313 45.3674 80.6312 45.4838C79.5145 45.7397 78.8047 46.6122 79.1189 47.9848C79.3981 49.2296 80.317 49.8462 81.5734 49.5553C81.9922 49.4622 82.4459 49.2645 82.7018 49.0899L83.1671 50.137L83.1555 50.1487Z" fill="white"/>
<path d="M86.2965 48.3563L85.9475 50.0199L84.4585 50.113L86.0057 43.6335L87.8902 43.5171L90.2517 49.7524L88.7045 49.8455L88.1113 48.2401L86.2848 48.3563H86.2965ZM87.8437 47.1814L87.3668 45.8553C87.2272 45.4831 87.0875 45.0177 86.9713 44.6455H86.948C86.8782 45.0294 86.8084 45.518 86.7269 45.8902L86.4361 47.2629L87.8437 47.1814Z" fill="white"/>
<path d="M92.6363 44.7623L90.938 44.6343L91.0309 43.436L95.9053 43.7966L95.8121 44.9949L94.0787 44.867L93.7065 50.0087L92.264 49.9041L92.6363 44.7623Z" fill="white"/>
<path d="M98.131 44.1807L96.9463 50.4326L98.3636 50.7013L99.5483 44.4492L98.131 44.1807Z" fill="white"/>
<path d="M106.875 49.8343C106.212 51.8119 104.607 52.6146 102.85 52.0214C101.058 51.428 100.465 49.7181 101.035 47.9963C101.64 46.1816 103.245 45.216 105.037 45.8094C106.887 46.4259 107.445 48.1593 106.887 49.8227M102.489 48.4501C102.094 49.6366 102.373 50.6486 103.292 50.9629C104.211 51.2769 105.037 50.5673 105.432 49.3924C105.793 48.3104 105.584 47.2053 104.641 46.8912C103.722 46.5772 102.885 47.2868 102.489 48.4501Z" fill="white"/>
<path d="M107.294 53.5915L110.342 47.9961L111.819 48.7988L111.866 51.486C111.866 52.2538 111.831 53.1379 111.726 53.9057H111.749C112.075 53.1379 112.459 52.3702 112.913 51.5325L113.808 49.8923L114.972 50.532L111.924 56.1276L110.598 55.4063L110.574 52.5911C110.574 51.8117 110.598 50.8926 110.679 50.0899H110.656C110.284 50.8462 109.876 51.6371 109.376 52.5562L108.457 54.243L107.294 53.6031V53.5915Z" fill="white"/>
<path d="M119.858 62.2114C119.427 62.0254 118.671 61.6066 118.043 61.0481C117.182 60.2687 116.763 59.4776 116.705 58.6635C116.647 57.8608 116.961 57.0348 117.601 56.3485C119.032 54.7897 120.986 54.9408 122.533 56.3485C123.138 56.9068 123.499 57.4536 123.627 57.7677L122.626 58.4191C122.475 58.0701 122.231 57.6862 121.719 57.2209C120.835 56.4065 119.706 56.302 118.776 57.3256C117.892 58.2912 117.973 59.4196 118.846 60.2223C119.09 60.4433 119.311 60.5946 119.427 60.6293L120.323 59.6406L119.602 58.9775L120.358 58.1516L122.114 59.7453L119.858 62.223V62.2114Z" fill="white"/>
<path d="M125.79 59.8853C126.139 60.1993 126.604 60.7112 127.081 61.3044C127.663 62.0489 127.965 62.6539 127.965 63.2355C127.965 63.7241 127.745 64.1546 127.279 64.5268C126.639 65.0269 125.848 64.9223 125.348 64.6198L125.325 64.643C125.464 65.0967 125.278 65.5621 124.918 66.0507C124.476 66.6556 123.952 67.3186 123.836 67.5746L122.917 66.423C122.998 66.2251 123.312 65.7947 123.801 65.1549C124.313 64.5268 124.324 64.1778 123.964 63.7125L123.696 63.3752L121.73 64.9223L120.846 63.8056L125.779 59.9085L125.79 59.8853ZM124.522 62.7003L124.871 63.1424C125.313 63.7009 125.86 63.8172 126.302 63.4681C126.767 63.1075 126.744 62.619 126.348 62.0838C126.128 61.8047 125.988 61.6767 125.906 61.6068L124.534 62.7003H124.522Z" fill="white"/>
<path d="M130.304 72.2977C128.477 73.3097 126.755 72.8095 125.86 71.1692C124.952 69.5174 125.662 67.8538 127.256 66.9813C128.931 66.0624 130.769 66.4463 131.676 68.0864C132.619 69.7966 131.851 71.4485 130.304 72.2861M128.012 68.2959C126.918 68.9008 126.43 69.8315 126.895 70.6807C127.36 71.53 128.442 71.5763 129.536 70.9831C130.536 70.4363 131.13 69.4825 130.653 68.61C130.187 67.7607 129.094 67.7025 128.012 68.3076" fill="white"/>
<path d="M134.55 74.6706L131.072 75.8456C130.036 76.1945 129.641 76.7645 129.873 77.4624C130.118 78.1838 130.746 78.4048 131.816 78.0442L135.294 76.8692L135.748 78.2302L132.363 79.3702C130.502 79.9985 129.303 79.3586 128.768 77.7883C128.256 76.2642 128.792 75.0894 130.723 74.4379L134.085 73.2979L134.55 74.6706Z" fill="white"/>
<path d="M136.353 81.1499C136.504 81.5803 136.655 82.1852 136.795 83.0461C136.934 83.9186 136.876 84.57 136.609 85.047C136.353 85.5007 135.876 85.8497 135.259 85.9544C134.643 86.059 134.084 85.9311 133.677 85.6169C133.142 85.2099 132.816 84.5234 132.677 83.6858C132.642 83.4998 132.63 83.3252 132.63 83.1974L130.385 83.5696L130.152 82.1619L136.353 81.1499ZM133.735 83.0228C133.735 83.1508 133.735 83.3019 133.782 83.4998C133.91 84.2559 134.364 84.6631 135.003 84.5583C135.585 84.4652 135.864 84.0117 135.748 83.3019C135.701 83.0111 135.643 82.8251 135.597 82.7204L133.747 83.0228H133.735Z" fill="white"/>
<path d="M57.2486 123.855L55.4337 124.948L54.0728 123.669L61.2968 119.551L63.0185 121.168L59.3657 128.648L57.9582 127.322L58.912 125.414L57.2486 123.855ZM59.645 124.262L60.4361 122.692C60.657 122.25 60.9595 121.726 61.1922 121.296H61.1689C60.7618 121.54 60.2615 121.901 59.8543 122.145L58.3537 123.052L59.6334 124.262H59.645Z" fill="white"/>
<path d="M66.4273 125.728L64.6357 124.564L65.4501 123.296L70.5803 126.624L69.7659 127.891L67.9396 126.705L64.4381 132.114L62.9258 131.137L66.4273 125.728Z" fill="white"/>
<path d="M77.5596 133.72C76.6172 136.151 74.5814 137.059 72.4061 136.233C70.2075 135.384 69.5559 133.231 70.3703 131.114C71.2312 128.892 73.2902 127.776 75.4772 128.613C77.7572 129.486 78.339 131.673 77.5596 133.72ZM72.1619 131.754C71.6034 133.208 71.8942 134.5 73.0109 134.93C74.1395 135.36 75.2097 134.534 75.768 133.092C76.2799 131.754 76.0822 130.37 74.9305 129.928C73.802 129.486 72.7202 130.312 72.1619 131.754Z" fill="white"/>
<path d="M87.2853 136.303C87.3551 135.349 87.4482 134.197 87.5877 133.045H87.553C87.1922 134.022 86.7387 135.116 86.3315 136L85.0169 138.978L83.621 138.815L83.1207 135.663C82.9694 134.709 82.83 133.546 82.7601 132.498H82.7369C82.5739 133.557 82.3995 134.778 82.2249 135.756L81.7481 138.745L80.0962 138.559L81.4921 130.707L83.8769 130.975L84.3539 133.697C84.4934 134.639 84.633 135.651 84.7028 136.605H84.7378C85.0635 135.721 85.4473 134.709 85.808 133.86L86.948 131.324L89.2862 131.591L88.8209 139.548L87.076 139.35L87.2969 136.314L87.2853 136.303Z" fill="white"/>
<path d="M97.4287 135.441L94.5089 135.767L94.7298 137.64L97.9755 137.279L98.1383 138.745L93.1012 139.315L92.2056 131.405L97.0797 130.858L97.2427 132.324L94.1599 132.673L94.346 134.313L97.2543 133.987L97.4287 135.441Z" fill="white"/>
<path d="M106.037 136.628L104.909 135.476C104.455 135.034 104.153 134.708 103.804 134.336H103.781C103.769 134.836 103.699 135.29 103.629 135.895L103.443 137.465L101.489 138.094L102.443 133.557L99.1274 130.497L101.093 129.869L102.199 131.032C102.571 131.416 102.862 131.742 103.176 132.102H103.199C103.222 131.556 103.257 131.172 103.315 130.672L103.513 129.09L105.467 128.461L104.525 132.847L108.015 136L106.037 136.639V136.628Z" fill="white"/>
<path d="M107.596 127.566C108.026 127.205 108.678 126.763 109.632 126.228C110.597 125.681 111.389 125.472 112.063 125.588C112.703 125.681 113.331 126.088 113.715 126.775C114.099 127.449 114.204 128.159 114.006 128.776C113.761 129.578 113.098 130.253 112.168 130.777C111.958 130.893 111.772 130.986 111.621 131.044L113.029 133.522L111.481 134.406L107.608 127.577L107.596 127.566ZM110.923 129.823C111.074 129.776 111.249 129.695 111.47 129.567C112.307 129.09 112.575 128.38 112.18 127.671C111.819 127.031 111.167 126.903 110.388 127.345C110.074 127.531 109.876 127.682 109.771 127.775L110.935 129.823H110.923Z" fill="white"/>
<path d="M122.44 121.354C124.185 123.285 124.069 125.518 122.335 127.077C120.579 128.659 118.369 128.252 116.845 126.577C115.251 124.809 115.193 122.459 116.938 120.888C118.752 119.248 120.963 119.725 122.44 121.354ZM118.241 125.274C119.288 126.437 120.556 126.751 121.451 125.949C122.359 125.134 122.103 123.808 121.067 122.657C120.114 121.598 118.787 121.144 117.857 121.97C116.949 122.785 117.205 124.122 118.241 125.262" fill="white"/>
<path d="M45.3716 107.709C45.3716 106.522 46.3256 105.568 47.5121 105.568C48.6987 105.568 49.6525 106.522 49.6525 107.709C49.6525 108.895 48.6987 109.849 47.5121 109.849C46.3256 109.849 45.3716 108.895 45.3716 107.709Z" fill="white"/>
<path d="M51.2695 116.817C51.2695 116.096 51.8513 115.503 52.5841 115.503C53.317 115.503 53.8986 116.084 53.8986 116.817C53.8986 117.55 53.317 118.132 52.5841 118.132C51.8513 118.132 51.2695 117.55 51.2695 116.817Z" fill="white"/>
<path d="M43.7544 96.7619C43.7544 96.0406 44.336 95.4473 45.069 95.4473C45.8019 95.4473 46.3834 96.029 46.3834 96.7619C46.3834 97.4947 45.8019 98.0763 45.069 98.0763C44.336 98.0763 43.7544 97.4947 43.7544 96.7619Z" fill="white"/>
<path d="M134.003 107.709C134.003 106.522 133.049 105.568 131.863 105.568C130.676 105.568 129.722 106.522 129.722 107.709C129.722 108.895 130.676 109.849 131.863 109.849C133.049 109.849 134.003 108.895 134.003 107.709Z" fill="white"/>
<path d="M128.105 116.817C128.105 116.096 127.523 115.503 126.79 115.503C126.057 115.503 125.476 116.084 125.476 116.817C125.476 117.55 126.057 118.132 126.79 118.132C127.523 118.132 128.105 117.55 128.105 116.817Z" fill="white"/>
<path d="M135.62 96.7619C135.62 96.0406 135.039 95.4473 134.306 95.4473C133.573 95.4473 132.991 96.029 132.991 96.7619C132.991 97.4947 133.573 98.0763 134.306 98.0763C135.039 98.0763 135.62 97.4947 135.62 96.7619Z" fill="white"/>
</g>
</g>
</g>
<defs>
<linearGradient id="paint0_linear_516_4792" x1="33.9396" y1="57.9526" x2="70.1085" y2="107.205" gradientUnits="userSpaceOnUse">
<stop stop-color="#6083C1"/>
<stop offset="0.32" stop-color="#5B9F43"/>
<stop offset="0.44" stop-color="#9BB43B"/>
<stop offset="0.54" stop-color="#CBC436"/>
<stop offset="0.62" stop-color="#E8CE33"/>
<stop offset="0.66" stop-color="#F3D232"/>
<stop offset="0.69" stop-color="#EFC630"/>
<stop offset="0.75" stop-color="#E7A92D"/>
<stop offset="0.83" stop-color="#DA7828"/>
<stop offset="0.92" stop-color="#C83621"/>
<stop offset="0.95" stop-color="#C0181E"/>
<stop offset="1" stop-color="#C0181E"/>
</linearGradient>
<clipPath id="clip0_516_4792">
<rect width="140" height="140.171" fill="white" transform="translate(20 21.3394)"/>
</clipPath>
</defs>
</svg>
