<svg width="180" height="182" viewBox="0 0 180 182" fill="none" xmlns="http://www.w3.org/2000/svg">
<path d="M26.1121 75.2951V69.4736H26.6501V74.7053H28.8626V69.6099H29.4006V74.7053H31.7252V75.2973H26.1121V75.2951ZM28.9007 61.09C30.5596 61.09 31.8014 62.0729 31.8014 64.7803C31.8014 67.4877 30.5596 68.4706 28.9007 68.4706C27.2419 68.4706 26 67.4877 26 64.7803C26 62.0729 27.2509 61.09 28.9007 61.09ZM28.9007 61.673C27.5535 61.673 26.5604 62.4727 26.5604 64.7803C26.5604 67.0879 27.5535 67.8876 28.9007 67.8876C30.248 67.8876 31.25 67.0879 31.25 64.7803C31.25 62.4727 30.248 61.673 28.9007 61.673ZM26.1121 56.0035C26.1121 54.2298 26.881 53.5194 28.0915 53.5194C29.0061 53.5194 29.6629 53.926 29.9341 54.8843L31.7207 53.439V54.0868L30.0372 55.445C30.0529 55.6215 30.0619 55.8047 30.0619 56.0035V59.1264H31.7207V59.7184H26.1121V56.0057V56.0035ZM29.5665 56.0035C29.5665 54.6453 28.9904 54.1025 28.0915 54.1025C27.1926 54.1025 26.6165 54.6453 26.6165 56.0035V59.1264H29.5665V56.0035ZM26.1121 46.3488V45.7657H29.0128C30.5685 45.7657 31.8171 46.6526 31.8171 49.0718C31.8171 51.4911 30.5663 52.3869 29.0128 52.3869H26.1121V51.7949H29.0128C30.3107 51.7949 31.2814 51.0756 31.2814 49.0718C31.2814 47.0681 30.3107 46.3488 29.0128 46.3488H26.1121ZM30.183 40.2727L26.1121 36.8146V36.3679H31.723V36.9509H27.0177L30.9451 40.2727L27.0177 43.5877H31.723V44.1797H26.1121V43.724L30.183 40.2749V40.2727ZM153.748 45.616L150.123 37.3865C149.854 36.7186 149.585 36.2584 149.319 36.006C149.05 35.7558 148.631 35.6285 148.059 35.6285H140.455C139.819 35.6285 139.39 35.8876 139.171 36.4059C138.953 36.9241 139.027 37.4692 139.397 38.0366L140.655 40.2459C140.401 39.9957 140.141 39.7499 139.87 39.5176C138.142 38.0299 136.135 36.8906 133.853 36.1043C131.569 35.318 129.171 34.9248 126.653 34.9248C124.136 34.9248 121.744 35.318 119.478 36.1043C117.211 36.8906 115.223 38.0366 113.51 39.5422C111.798 41.0478 110.439 42.8796 109.43 45.0375C108.845 46.2907 108.435 47.6399 108.191 49.0785C107.996 48.386 107.765 47.7092 107.485 47.0457C106.561 44.8543 105.286 42.9399 103.658 41.3002C102.028 39.6606 100.107 38.3649 97.8926 37.4111C95.6778 36.4572 93.277 35.9814 90.6923 35.9814H72.9159C72.3779 35.9814 71.9587 36.1579 71.6561 36.5086C71.3535 36.8593 71.2033 37.3374 71.2033 37.9383V46.9028C70.2819 44.7292 69.0132 42.8371 67.3947 41.2243C65.765 39.6025 63.8439 38.3225 61.6291 37.3843C59.4143 36.4483 57.0135 35.9792 54.4289 35.9792H36.6479C36.1099 35.9792 35.6907 36.1557 35.3881 36.5064C35.0855 36.8571 34.9353 37.3351 34.9353 37.936V103.524C34.9353 103.603 34.9443 103.67 34.9487 103.741C34.8658 103.922 34.8255 104.154 34.8255 104.44V145.885C34.8255 146.222 34.9106 146.497 35.0788 146.707C35.2469 146.919 35.4711 147.024 35.7445 147.024H42.2207C42.5166 147.024 42.761 146.919 42.9515 146.707C43.142 146.497 43.2362 146.233 43.2362 145.916V110.673H52.2836C52.2836 110.673 52.3038 110.67 52.315 110.668C52.0863 111.566 51.9697 112.527 51.9697 113.55V136.74C51.9697 138.428 52.2881 139.945 52.9225 141.294C53.5568 142.644 54.4154 143.794 55.4936 144.743C56.5741 145.693 57.8272 146.426 59.2552 146.942C60.6831 147.458 62.1918 147.717 63.7789 147.717C65.366 147.717 66.8791 147.469 68.3182 146.973C69.7574 146.477 71.0217 145.755 72.1111 144.806C73.2006 143.857 74.0681 142.702 74.7137 141.341C75.2562 140.198 75.5678 138.931 75.6552 137.542V145.818C75.6552 146.62 76.0139 147.02 76.7357 147.02H83.0527C83.7521 147.02 84.0996 146.62 84.0996 145.818V136.17H87.9418C89.5715 136.17 91.0846 135.868 92.4812 135.267C93.8778 134.667 95.0905 133.849 96.1172 132.815C96.7807 132.147 97.3411 131.396 97.8186 130.576V136.737C97.8186 138.426 98.1369 139.943 98.7713 141.292C99.4057 142.641 100.264 143.792 101.343 144.741C102.423 145.691 103.676 146.423 105.104 146.939C106.532 147.455 108.041 147.715 109.628 147.715C111.215 147.715 112.728 147.467 114.167 146.971C115.606 146.475 116.871 145.753 117.96 144.804C119.049 143.854 119.917 142.7 120.563 141.339C121.105 140.198 121.417 138.931 121.502 137.544V145.816C121.502 146.618 121.861 147.018 122.582 147.018H133.663C135.27 146.997 136.779 146.743 138.187 146.258C139.594 145.773 140.816 145.056 141.854 144.107C142.89 143.157 143.706 141.987 144.297 140.595C144.889 139.204 145.187 137.6 145.187 135.786V114.464C145.187 112.65 144.891 111.048 144.297 109.654C143.706 108.262 142.89 107.092 141.854 106.142C140.816 105.193 139.594 104.476 138.187 103.991C137.909 103.895 137.619 103.815 137.333 103.737C138.231 103.2 139.079 102.595 139.863 101.911C141.592 100.406 142.968 98.5741 143.993 96.4162C145.017 94.2583 145.528 91.8234 145.528 89.1137V52.34C145.528 50.5573 145.308 48.9021 144.876 47.3674C145.008 47.5014 145.136 47.6042 145.257 47.6734C145.609 47.8745 146.055 47.975 146.591 47.975H152.583C153.017 47.975 153.396 47.774 153.715 47.3719C154.033 46.9698 154.042 46.3845 153.739 45.616H153.748ZM121.311 53.0928C121.311 52.2908 121.437 51.5201 121.69 50.7852C121.941 50.0503 122.295 49.398 122.748 48.8283C123.201 48.2609 123.764 47.8075 124.436 47.4724C125.106 47.1373 125.88 46.9698 126.752 46.9698C127.624 46.9698 128.346 47.1373 129.018 47.4724C129.688 47.8075 130.251 48.2587 130.704 48.8283C131.157 49.398 131.511 50.0503 131.762 50.7852C132.013 51.5224 132.139 52.2908 132.139 53.0928V88.7228C132.139 89.5248 132.013 90.2709 131.762 90.9567C131.511 91.6425 131.15 92.2456 130.679 92.7639C130.208 93.2821 129.639 93.6931 128.967 93.9925C128.294 94.294 127.523 94.4437 126.651 94.4437C125.779 94.4437 125.015 94.2762 124.36 93.9411C123.705 93.606 123.152 93.1637 122.699 92.612C122.246 92.0602 121.901 91.4235 121.668 90.7042C121.432 89.9849 121.316 89.2232 121.316 88.4212V53.0928H121.311ZM104.512 71.7611C105.402 70.8921 106.164 69.9294 106.803 68.875C107.238 68.1557 107.606 67.385 107.917 66.5719V86.8933C107.637 85.0191 107.245 83.3236 106.727 81.8224C105.602 78.561 103.916 75.9764 101.665 74.0687C102.672 73.4008 103.62 72.6301 104.51 71.7611H104.512ZM84.595 48.176H89.6298C91.3761 48.176 92.7771 48.7122 93.8352 49.7822C94.8932 50.8522 95.4223 52.2908 95.4223 54.098V62.4281C95.4223 64.1347 94.9022 65.5063 93.8621 66.5428C92.8219 67.5793 91.2931 68.0976 89.2801 68.0976H84.5972V48.176H84.595ZM48.3315 48.176H53.3663C55.1126 48.176 56.5136 48.7367 57.5717 49.8581C58.6297 50.9795 59.1588 52.4427 59.1588 54.2499V70.1572C59.1588 71.8639 58.6387 73.2846 57.5986 74.4239C56.5584 75.5609 55.1641 76.1305 53.4179 76.1305H48.3315V48.176ZM67.2422 136.489C67.2422 136.996 67.1638 137.466 67.0046 137.897C66.8455 138.33 66.6191 138.71 66.3232 139.036C66.0273 139.362 65.6663 139.621 65.2427 139.811C64.819 140.001 64.3326 140.095 63.7833 140.095C63.2341 140.095 62.7522 139.99 62.3397 139.778C61.9272 139.568 61.5775 139.286 61.2928 138.94C61.0082 138.591 60.7907 138.192 60.6428 137.738C60.4948 137.285 60.4208 136.804 60.4208 136.3V114.028C60.4208 113.521 60.4993 113.036 60.6585 112.574C60.8176 112.109 61.0395 111.698 61.3242 111.341C61.6089 110.983 61.9631 110.697 62.389 110.487C62.8127 110.277 63.2991 110.17 63.8484 110.17C64.3976 110.17 64.8526 110.275 65.2763 110.487C65.7 110.697 66.0542 110.983 66.3388 111.341C66.6235 111.7 66.8477 112.111 67.0046 112.574C67.1638 113.038 67.2422 113.523 67.2422 114.028V136.489ZM74.7182 108.919C74.0726 107.559 73.2051 106.41 72.1156 105.47C71.0262 104.532 69.7619 103.815 68.3227 103.319C66.8836 102.823 65.3704 102.575 63.7833 102.575C62.1962 102.575 60.6876 102.823 59.2597 103.319C57.8317 103.815 56.5764 104.536 55.4981 105.486C54.5499 106.321 53.7833 107.322 53.178 108.475V104.472C53.178 104.134 53.0995 103.85 52.9404 103.618C52.7812 103.386 52.5638 103.27 52.2903 103.27H48.336V88.2179H54.4289C57.0135 88.2179 59.4143 87.7421 61.6291 86.7883C63.8439 85.8344 65.7672 84.5388 67.3947 82.8991C69.0109 81.2707 70.2797 79.3607 71.2033 77.1715V103.573C71.2033 104.811 71.757 105.43 72.8643 105.43H75.6619V112.737C75.5745 111.334 75.2629 110.058 74.7204 108.915L74.7182 108.919ZM90.93 124.784C90.93 125.858 90.6027 126.756 89.9459 127.474C89.2891 128.191 88.4103 128.548 87.3119 128.548H84.1063V110.927H87.2805C88.3812 110.927 89.2644 111.28 89.9324 111.986C90.5982 112.692 90.9322 113.615 90.9322 114.754V124.782L90.93 124.784ZM98.7758 108.95C98.6346 109.252 98.5135 109.562 98.4037 109.88C97.8321 108.615 97.0766 107.501 96.1217 106.547C95.095 105.524 93.8845 104.717 92.4857 104.127C91.0891 103.538 89.576 103.241 87.9463 103.241H84.595V78.4359C88.0517 78.6704 90.6542 79.8834 92.4005 82.0748C94.1468 84.2663 95.0188 87.7868 95.0188 92.6388V103.127C95.0188 103.897 95.2609 104.465 95.7495 104.833C96.236 105.202 96.765 105.385 97.3367 105.385H101.477C101.434 105.421 101.39 105.452 101.347 105.488C100.269 106.437 99.4102 107.592 98.7758 108.953V108.95ZM113.093 136.489C113.093 136.996 113.015 137.466 112.856 137.897C112.697 138.33 112.47 138.71 112.174 139.036C111.878 139.362 111.517 139.621 111.094 139.811C110.67 140.001 110.184 140.095 109.634 140.095C109.085 140.095 108.603 139.99 108.191 139.778C107.778 139.568 107.429 139.286 107.144 138.94C106.859 138.591 106.642 138.192 106.494 137.738C106.346 137.285 106.272 136.804 106.272 136.3V114.028C106.272 113.521 106.35 113.036 106.51 112.574C106.669 112.109 106.891 111.698 107.175 111.341C107.46 110.983 107.814 110.697 108.24 110.487C108.664 110.277 109.15 110.17 109.699 110.17C110.249 110.17 110.704 110.275 111.127 110.487C111.551 110.697 111.905 110.983 112.19 111.341C112.475 111.7 112.699 112.111 112.856 112.574C113.015 113.038 113.093 113.523 113.093 114.028V136.489ZM120.569 108.919C119.924 107.559 119.056 106.41 117.967 105.47C116.877 104.532 115.613 103.815 114.174 103.319C112.735 102.823 111.222 102.575 109.634 102.575C109.222 102.575 108.816 102.593 108.417 102.626V94.2427C108.417 93.9523 108.408 93.673 108.406 93.3893C108.655 94.4258 108.991 95.4154 109.43 96.3514C110.437 98.4937 111.798 100.317 113.51 101.822C115.223 103.328 117.211 104.492 119.478 105.309C120.146 105.55 120.825 105.752 121.513 105.921V112.739C121.426 111.336 121.114 110.063 120.574 108.921L120.569 108.919ZM136.75 135.54C136.75 136.09 136.665 136.59 136.496 137.043C136.326 137.497 136.095 137.897 135.797 138.245C135.501 138.594 135.136 138.868 134.701 139.067C134.266 139.268 133.786 139.378 133.257 139.4H129.955V110.927H133.098C134.178 110.927 135.055 111.245 135.734 111.877C136.411 112.509 136.75 113.49 136.75 114.819V135.54Z" fill="white"/>
</svg>
