<svg width="180" height="182" viewBox="0 0 180 182" fill="none" xmlns="http://www.w3.org/2000/svg">
<g clip-path="url(#clip0_516_4812)">
<path d="M71.7183 89.2386V89.3326H73.3176L75.4344 78.8427H78.9624V89.3326H80.5147V77.2432H74.1173L71.7183 89.2386Z" fill="#09C98D"/>
<path d="M84.8501 89.3326H92.4235V87.7803H86.4495V83.9701H91.6709V82.4178H86.4495V78.8427H92.4235V77.2432H84.8501V89.3326Z" fill="#09C98D"/>
<path d="M94.8271 78.7955H98.4965V89.3324H100.096V78.7955H103.718V77.2432H94.8271V78.7955Z" fill="#09C98D"/>
<path d="M63.8702 93.5166L60.7655 99.6318L57.6609 93.5166H55.9204L59.8718 101.372L57.755 105.606H59.4954L65.6107 93.5166H63.8702Z" fill="#09C98D"/>
<path d="M104.545 105.608H112.118V104.056H106.144V100.198H111.366V98.6461H106.144V95.0711H112.118V93.5186H104.545V105.608Z" fill="#09C98D"/>
<path d="M113.913 105.608H121.487V104.056H115.513V100.198H120.734V98.6461H115.513V95.0711H121.487V93.5186H113.913V105.608Z" fill="#09C98D"/>
<path d="M74.1291 93.5186H67.6846L65.5678 104.056H63.9214V105.608H75.4932V104.056H74.1291V93.5186ZM72.5297 104.056H67.1671L68.9547 95.0711H72.4827V104.056H72.5297Z" fill="#09C98D"/>
<path d="M130.469 93.0947C129.81 93.0947 129.293 93.3299 128.916 93.7533C128.587 93.5181 128.164 93.377 127.693 93.377C126.423 93.377 125.624 94.2707 125.624 95.776V97.8928H132.632V95.5878C132.632 94.0355 131.833 93.0947 130.469 93.0947ZM128.352 96.3875H127.129V95.823C127.129 94.8822 127.505 94.8822 127.74 94.8822C128.023 94.8822 128.399 94.8822 128.399 95.823V96.3875H128.352ZM131.127 96.3875H129.81V95.5878C129.81 94.6 130.233 94.6 130.516 94.6C130.798 94.6 131.174 94.6 131.174 95.5878V96.3875H131.127Z" fill="#09C98D"/>
<path d="M129.105 91.3088C131.128 91.3088 132.68 89.7565 132.68 87.8276C132.68 85.852 131.128 84.3467 129.105 84.3467C127.083 84.3467 125.53 85.899 125.53 87.8276C125.53 89.7565 127.13 91.3088 129.105 91.3088ZM129.105 85.8049C130.281 85.8049 131.175 86.6987 131.175 87.7806C131.175 88.9097 130.281 89.8035 129.105 89.8035C127.929 89.8035 127.036 88.9097 127.036 87.7806C127.036 86.6516 127.976 85.8049 129.105 85.8049Z" fill="#09C98D"/>
<path d="M132.632 77.2432H131.127V80.395H129.81V77.6667H128.305V80.395H127.129V77.2432H125.624V81.9003H132.632V77.2432Z" fill="#09C98D"/>
<path d="M90.022 31.4248C56.8587 31.4248 29.9985 58.2848 29.9985 91.4484C29.9985 124.565 56.8587 151.425 90.022 151.425C123.185 151.425 149.999 124.565 149.999 91.4484C149.999 58.2848 123.138 31.4248 90.022 31.4248ZM115.33 83.9688H117.494C120.081 83.9688 120.081 85.4271 120.081 85.9445C120.081 86.8384 119.799 87.8263 117.494 87.8263H115.33V83.9688ZM117.117 82.4635H115.33V78.7944H117.117C119.281 78.7944 119.516 79.8293 119.516 80.5819C119.516 81.3816 119.281 82.4635 117.117 82.4635ZM49.0969 83.5455H51.59C53.0012 83.5455 53.8949 84.3451 53.8949 85.6623C53.8949 86.9325 53.0012 87.7792 51.59 87.7792H49.0969V83.5455ZM49.0969 104.055V99.8215H51.59C53.0012 99.8215 53.8949 100.621 53.8949 101.938C53.8949 103.208 53.0012 104.055 51.59 104.055H49.0969ZM127.325 136.184V103.726H132.641V102.221H127.325V100.292H127.09H125.585V137.548C118.905 142.722 111.049 146.486 102.535 148.367V104.055H101.171V93.5181H99.6182V104.055H94.7731V93.5181H93.1737V104.055H88.3286V93.5181H86.7292V105.607H100.794V148.743C97.2662 149.402 93.6441 149.778 89.928 149.778C79.391 149.778 69.4654 146.956 60.9041 142.017L81.3196 101.515L85.3651 93.5181H83.6246L80.52 99.6804L77.5092 93.5181H75.7687L79.6262 101.233L59.5399 141.123C55.8238 138.818 52.3426 136.09 49.238 133.032V105.607H51.637C53.8949 105.607 55.4945 104.102 55.4945 101.938C55.4945 99.7744 53.8949 98.2692 51.637 98.2692H49.1439V95.0704H54.6005V93.5181H47.5445V105.607V131.338C37.7602 120.896 31.739 106.877 31.739 91.4484C31.739 76.0191 37.7132 62.0009 47.4975 51.5581V77.2891V89.3786H51.59C53.8479 89.3786 55.4475 87.8733 55.4475 85.7093C55.4475 83.5455 53.8479 82.0402 51.59 82.0402H49.0969V78.8415H54.5537V77.2891H49.1909V49.8176C59.7281 39.5157 74.1223 33.1182 89.975 33.1182C91.6684 33.1182 93.3619 33.2123 95.0083 33.3534L66.5019 77.2421L60.6219 86.2738V77.2421H59.0225V89.3316H59.634H59.7751H60.4807L66.4078 80.3467V89.3316H68.0071V78.1359L96.9369 33.5416C102.864 34.2472 108.509 35.8466 113.777 38.1986V78.5122V89.3316H117.541C120.175 89.3316 121.68 88.1085 121.68 85.8975C121.68 84.5803 121.163 83.5925 120.128 83.028C120.786 82.4635 121.116 81.6168 121.116 80.5819C121.116 78.4651 119.704 77.2421 117.164 77.2421H115.471V38.9983C134.899 48.4534 148.305 68.3986 148.305 91.4484C148.305 109.371 140.12 125.458 127.325 136.184Z" fill="#09C98D"/>
</g>
<defs>
<clipPath id="clip0_516_4812">
<rect width="140" height="140" fill="white" transform="translate(20 21.4248)"/>
</clipPath>
</defs>
</svg>
