<svg width="168" height="115" viewBox="0 0 168 115" fill="none" xmlns="http://www.w3.org/2000/svg">
<path d="M0.427906 4.02512L93.9812 54.9617L3.09221 110.513L0.427906 4.02512Z" fill="#CBF521"/>
<path d="M25.124 17.8963H35.3193C36.4805 17.8963 37.4434 16.9365 37.4434 15.7792C37.4434 14.6219 36.4805 13.6621 35.3193 13.6621H25.124C23.9629 13.6621 23 14.6219 23 15.7792C23 16.9365 23.9629 17.8963 25.124 17.8963Z" fill="#7E53F9"/>
<path d="M124.358 46.2935C123.197 46.2935 122.234 47.2532 122.234 48.4105V62.6938C122.234 63.8511 123.197 64.8109 124.358 64.8109C125.52 64.8109 126.482 63.8511 126.482 62.6938V48.4105C126.482 47.2532 125.548 46.2935 124.358 46.2935Z" fill="#7E53F9"/>
<path d="M164.771 90.3572V76.1303C164.771 70.9082 161.146 66.3353 156.049 65.1215V47.2533C156.049 40.648 150.895 35.2565 144.381 34.8049C143.588 30.3449 140.274 26.6753 135.828 25.4332L117.703 20.4087V18.5174C117.703 15.8076 115.494 13.634 112.804 13.634H98.2188C93.8574 5.53265 85.248 0 75.3643 0C65.4805 0 56.8994 5.53265 52.5098 13.6622H45.2314C44.0703 13.6622 43.1074 14.622 43.1074 15.7793C43.1074 16.9367 44.0703 17.8964 45.2314 17.8964H50.7256C49.9043 20.4087 49.4795 23.0621 49.4795 25.8284C49.4795 40.0552 61.0908 51.6569 75.3926 51.6569C80.1787 51.6569 84.8516 50.3301 88.9297 47.8461C89.9209 47.2251 90.2324 45.9266 89.6377 44.9386C89.0146 43.9507 87.7119 43.6402 86.7207 44.2329C83.3223 46.3218 79.4141 47.4227 75.4209 47.4227C63.4697 47.4227 53.7559 37.7406 53.7559 25.8284C53.7559 13.9163 63.4414 4.23417 75.3643 4.23417C87.3154 4.23417 97.0293 13.9163 97.0293 25.8284C97.0293 30.2037 95.7266 34.4379 93.2344 38.0228C92.5547 38.9826 92.8096 40.3093 93.7725 40.9585C94.7354 41.636 96.0664 41.3819 96.7178 40.4222C99.6914 36.1033 101.277 31.0506 101.277 25.8002C101.277 23.0339 100.824 20.3522 100.031 17.8682H112.804C113.172 17.8682 113.455 18.1787 113.455 18.5174V83.0179H65.5088C62.1953 80.9008 58.2305 79.6588 54.0107 79.6588C49.791 79.6588 45.8262 80.9008 42.5127 83.0179H25.124C23.9629 83.0179 23 83.9777 23 85.135C23 86.2924 23.9629 87.2521 25.124 87.2521H37.6416C34.8945 90.4983 33.082 94.5913 32.6572 99.0513H25.124C23.9629 99.0513 23 100.011 23 101.168C23 102.326 23.9629 103.285 25.124 103.285H40.2754C40.417 104.245 40.7002 105.205 41.04 106.136C41.3232 106.955 42.1162 107.548 43.0508 107.548C44.2119 107.548 45.1748 106.588 45.1748 105.431C45.1748 105.177 45.1182 104.894 45.0332 104.64C44.5801 103.511 44.3535 102.326 44.3535 101.084C44.3535 95.7769 48.6865 91.458 54.0107 91.458C59.335 91.458 63.668 95.7769 63.668 101.084C63.668 106.391 59.335 110.709 54.0107 110.709C52.9629 110.709 51.915 110.54 50.9238 110.201C49.8193 109.834 48.6016 110.427 48.2334 111.528C47.8652 112.629 48.46 113.843 49.5645 114.21C50.9805 114.69 52.4814 114.944 54.0107 114.944C60.9209 114.944 66.6982 109.863 67.7461 103.257H112.719C113.767 109.863 119.516 114.944 126.454 114.944C133.393 114.944 139.142 109.863 140.189 103.257H164.46C166.414 103.257 168 101.676 168 99.7288V93.8009C168 92.0226 166.584 90.5265 164.771 90.3572ZM156.049 90.3572V82.7356C156.049 82.0582 156.615 81.4936 157.295 81.4936H160.523V90.3854H156.049V90.3572ZM151.744 46.2936H134.61C132.685 46.2936 131.099 47.8743 131.099 49.7938V61.5084C131.099 63.1738 132.288 64.6134 133.931 64.9521L137.188 65.6014C137.329 65.6296 137.471 65.6296 137.612 65.6296C138.604 65.6296 139.481 64.9239 139.708 63.9359C139.935 62.7786 139.198 61.6777 138.037 61.4519L135.375 60.9156V50.5277H151.829V64.1618L147.751 63.3432C146.59 63.1173 145.485 63.8513 145.259 65.0086C145.032 66.1659 145.769 67.2668 146.93 67.4926L153.5 68.7911L155.284 69.271C158.399 70.0896 160.58 72.9124 160.58 76.1021V77.203H157.352C154.321 77.203 151.857 79.6588 151.857 82.6792V90.3007H145.032C141.294 83.9494 134.384 79.6588 126.511 79.6588C123.396 79.6588 120.422 80.3363 117.76 81.5219V39.0108H143.56C147.751 39.0108 151.263 42.2005 151.744 46.2936ZM91.7334 87.2803H110.113C107.338 90.5265 105.554 94.6195 105.129 99.0795H91.7334V87.2803ZM87.4854 99.1078H75.3643C74.9395 94.6195 73.1553 90.5547 70.3799 87.3085H87.4854V99.1078ZM134.695 29.5263C137.301 30.232 139.283 32.2644 140.02 34.7766H117.703V24.8122L134.695 29.5263ZM54.0107 87.2803C47.0439 87.2803 41.2666 92.4178 40.2471 99.0795H36.9336C37.9248 90.5547 45.2031 83.9212 54.0107 83.9212C62.8184 83.9212 70.0967 90.5547 71.0879 99.0795H67.7744C66.7549 92.4178 60.9775 87.2803 54.0107 87.2803ZM126.454 110.766C121.13 110.766 116.797 106.447 116.797 101.14C116.797 95.8333 121.13 91.5145 126.454 91.5145C131.778 91.5145 136.111 95.8333 136.111 101.14C136.111 106.447 131.778 110.766 126.454 110.766ZM126.454 87.2803C119.487 87.2803 113.71 92.4178 112.69 99.0795H109.377C110.368 90.5547 117.646 83.9212 126.454 83.9212C135.233 83.9212 142.54 90.583 143.531 99.0795H140.218C139.198 92.4178 133.421 87.2803 126.454 87.2803ZM163.752 99.1078H147.779C147.638 97.5552 147.326 96.0309 146.873 94.5913H163.752V99.1078Z" fill="#7E53F9"/>
<path d="M126.454 94.5068C122.772 94.5068 119.799 97.4708 119.799 101.14C119.799 104.81 122.772 107.774 126.454 107.774C130.136 107.774 133.109 104.81 133.109 101.14C133.109 97.4708 130.136 94.5068 126.454 94.5068ZM126.454 103.54C125.123 103.54 124.047 102.467 124.047 101.14C124.047 99.8137 125.123 98.741 126.454 98.741C127.785 98.741 128.861 99.8137 128.861 101.14C128.861 102.467 127.785 103.54 126.454 103.54Z" fill="#7E53F9"/>
<path d="M54.0107 107.774C57.6924 107.774 60.666 104.81 60.666 101.14C60.666 97.4708 57.6924 94.5068 54.0107 94.5068C50.3291 94.5068 47.3555 97.4708 47.3555 101.14C47.3555 104.81 50.3574 107.774 54.0107 107.774ZM54.0107 98.741C55.3418 98.741 56.418 99.8137 56.418 101.14C56.418 102.467 55.3418 103.54 54.0107 103.54C52.6797 103.54 51.6035 102.467 51.6035 101.14C51.6035 99.8137 52.6797 98.741 54.0107 98.741Z" fill="#7E53F9"/>
<path d="M95.8408 78.9815H105.413C107.367 78.9815 108.953 77.4008 108.953 75.4531V70.1745C108.953 68.2268 107.367 66.646 105.413 66.646H95.8408C93.8867 66.646 92.3008 68.2268 92.3008 70.1745V75.4531C92.3008 77.4008 93.8867 78.9815 95.8408 78.9815ZM96.5488 70.8802H104.705V74.7474H96.5488V70.8802Z" fill="#7E53F9"/>
<path d="M25.124 74.747C23.9629 74.747 23 75.7067 23 76.8641C23 78.0214 23.9629 78.9811 25.124 78.9811H33.082C35.0078 78.9811 36.5938 77.4004 36.5938 75.4809V70.1741C36.5938 68.2264 35.0078 66.6738 33.082 66.6738H25.124C23.9629 66.6738 23 67.6336 23 68.7909C23 69.9483 23.9629 70.908 25.124 70.908H32.374V74.7752H25.124V74.747Z" fill="#7E53F9"/>
<path d="M75.3643 8.32715C65.6787 8.32715 57.834 16.1745 57.834 25.8001C57.834 35.4258 65.707 43.2731 75.3643 43.2731C85.0215 43.2731 92.8945 35.4258 92.8945 25.8001C92.8945 16.1745 85.0498 8.32715 75.3643 8.32715ZM75.3643 39.0672C68.0293 39.0672 62.082 33.1111 62.082 25.8284C62.082 18.5456 68.0576 12.5895 75.3643 12.5895C82.6709 12.5895 88.6465 18.5456 88.6465 25.8284C88.6465 33.1111 82.6992 39.0672 75.3643 39.0672Z" fill="#7E53F9"/>
<path d="M133.224 73.2229H136.537C137.698 73.2229 138.661 72.2632 138.661 71.1059C138.661 69.9485 137.698 68.9888 136.537 68.9888H133.224C132.062 68.9888 131.1 69.9485 131.1 71.1059C131.1 72.2632 132.034 73.2229 133.224 73.2229Z" fill="#7E53F9"/>
<path d="M77.4883 24.9249V17.8397C77.4883 16.6824 76.5254 15.7227 75.3643 15.7227C74.2031 15.7227 73.2402 16.6824 73.2402 17.8397V25.8282C73.2402 26.3928 73.4668 26.9573 73.8916 27.3525L77.2617 30.5705C77.6865 30.9657 78.1963 31.1633 78.7344 31.1633C79.3008 31.1633 79.8389 30.9374 80.2637 30.514C81.085 29.6672 81.0566 28.3405 80.207 27.5219L77.4883 24.9249Z" fill="#7E53F9"/>
<path d="M30.7041 8.21415H48.9141C50.0752 8.21415 51.0381 7.2544 51.0381 6.09706C51.0381 4.93973 50.0752 3.97998 48.9141 3.97998H30.7041C29.543 3.97998 28.5801 4.93973 28.5801 6.09706C28.5801 7.2544 29.543 8.21415 30.7041 8.21415Z" fill="#7E53F9"/>
<path d="M25.124 37.2322H44.3535C45.5146 37.2322 46.4775 36.2725 46.4775 35.1151C46.4775 33.9578 45.5146 32.998 44.3535 32.998H25.124C23.9629 32.998 23 33.9578 23 35.1151C23 36.2725 23.9629 37.2322 25.124 37.2322Z" fill="#7E53F9"/>
<path d="M28.834 25.433C28.834 26.5903 29.7969 27.5501 30.958 27.5501H43.0791C44.2402 27.5501 45.2031 26.5903 45.2031 25.433C45.2031 24.2757 44.2402 23.3159 43.0791 23.3159H30.958C29.7969 23.3159 28.834 24.2757 28.834 25.433Z" fill="#7E53F9"/>
<path d="M29.4004 44.7694C29.4004 45.9268 30.3633 46.8865 31.5244 46.8865H49.0264C50.1875 46.8865 51.1504 45.9268 51.1504 44.7694C51.1504 43.6121 50.1875 42.6523 49.0264 42.6523H31.5244C30.335 42.6523 29.4004 43.6121 29.4004 44.7694Z" fill="#7E53F9"/>
</svg>
