<svg width="166" height="147" viewBox="0 0 166 147" fill="none" xmlns="http://www.w3.org/2000/svg">
<rect opacity="0.5" x="39" y="-11.7305" width="130" height="130" rx="40" transform="rotate(23 39 -11.7305)" fill="#FB6CC2"/>
<path d="M143.086 75.9346H147.131V80.0068H143.086V75.9346Z" fill="#7E53F9"/>
<path d="M151.23 75.9346H155.303V80.0068H151.23V75.9346Z" fill="#7E53F9"/>
<path d="M43.0176 48.4606L120.716 35.8638L121.368 39.8817L43.6691 52.4786L43.0176 48.4606Z" fill="#7E53F9"/>
<path d="M53.3613 58.2885L94.084 51.6914L94.7355 55.7094L54.0129 62.3064L53.3613 58.2885Z" fill="#7E53F9"/>
<path d="M163.964 89.6447H166V66.9486H164.045C158.236 66.107 153.702 61.6547 152.779 55.8178C151.611 48.5148 156.552 41.6463 163.855 40.4518L165.864 40.126L162.308 18C160.217 18.3258 29.5248 39.4473 27 39.8545L30.5836 61.9805L32.5926 61.6547C37.5607 60.8402 42.5289 62.8492 45.5152 66.9215H27V89.6176H29.0361C36.5563 89.6176 42.6646 95.726 42.6646 103.246C42.6646 110.766 36.5563 116.875 29.0361 116.875H27V139.571H166V116.875H163.964C156.444 116.875 150.335 110.766 150.335 103.246C150.335 95.7531 156.444 89.6447 163.964 89.6447ZM161.222 36.8682C152.942 39.2029 147.295 47.4561 148.761 56.4422C149.439 60.6502 151.557 64.2881 154.598 66.9215H140.372C140.155 65.6184 134.345 29.6738 133.883 26.7146L158.941 22.6695L161.222 36.8682ZM33.9771 57.4467L31.6695 43.248L129.838 27.3934L136.218 66.9758H125.739L122.535 47.1574L100.111 50.7682L102.717 66.9486H50.2934C47.1713 60.8131 40.7914 57.1209 33.9771 57.4467ZM104.807 54.1346L119.169 51.7998L121.612 66.9486H106.871L104.807 54.1346ZM146.263 103.246C146.263 112.314 153.132 119.807 161.928 120.811V135.471H136.082V123.58H132.01V135.471H31.0723V120.811C39.8684 119.807 46.7369 112.314 46.7369 103.246C46.7369 94.1785 39.8684 86.6855 31.0723 85.6811V71.0209H132.01V83.0477H136.082V71.0209H161.928V85.6811C153.132 86.6855 146.263 94.1785 146.263 103.246Z" fill="#7E53F9"/>
<path d="M132.01 105.391H136.082V119.508H132.01V105.391Z" fill="#7E53F9"/>
<path d="M132.01 87.2012H136.082V101.318H132.01V87.2012Z" fill="#7E53F9"/>
<path d="M43.6699 78.1611H51.5701V82.2334H43.6699V78.1611Z" fill="#7E53F9"/>
<path d="M55.6152 78.1611H59.6604V82.2334H55.6152V78.1611Z" fill="#7E53F9"/>
<path d="M63.7852 78.1611H119.412V82.2334H63.7852V78.1611Z" fill="#7E53F9"/>
<path d="M50.4023 89.6992H92.2109V93.7715H50.4023V89.6992Z" fill="#7E53F9"/>
<path d="M52.9004 101.21H92.2113V105.282H52.9004V101.21Z" fill="#7E53F9"/>
<path d="M51.2168 112.748H92.2109V116.82H51.2168V112.748Z" fill="#7E53F9"/>
<path d="M41.6328 124.259H121.449V128.331H41.6328V124.259Z" fill="#7E53F9"/>
<path d="M98.4824 116.821H121.45V89.6992H98.4824V116.821ZM102.555 93.7715H117.378V112.748H102.555V93.7715Z" fill="#7E53F9"/>
<path d="M143.059 127.354H147.131V131.399H143.059V127.354Z" fill="#7E53F9"/>
<path d="M151.23 127.327H155.303V131.399H151.23V127.327Z" fill="#7E53F9"/>
</svg>
