<svg width="179" height="156" viewBox="0 0 179 156" fill="none" xmlns="http://www.w3.org/2000/svg">
<rect opacity="0.25" x="25.0762" y="77.4995" width="108.84" height="108.84" transform="rotate(-45 25.0762 77.4995)" fill="#7E53F9"/>
<path d="M119.291 136.323C118.203 135.232 116.778 134.634 115.25 134.608V86.8895V86.8635V62.991C115.25 61.926 114.37 61.0428 113.308 61.0428C112.246 61.0428 111.366 61.926 111.366 62.991V84.9412H65.4208V39.716H79.3027V56.4449C79.3027 57.0943 79.6393 57.7178 80.1573 58.0555C80.7012 58.4191 81.3746 58.4711 81.9961 58.2373L88.3932 55.5357L94.7902 58.2373C95.0233 58.3412 95.2823 58.3932 95.5413 58.3932C95.9298 58.3932 96.2924 58.2893 96.6291 58.0555C97.1729 57.6918 97.4837 57.0943 97.4837 56.4449V39.716H111.366V53.8992C111.366 54.9643 112.246 55.8475 113.308 55.8475C114.37 55.8475 115.25 54.9643 115.25 53.8992V39.3264C115.25 37.3781 113.671 35.8195 111.754 35.8195H65.0323C63.0899 35.8195 61.536 37.4041 61.536 39.3264V84.9412H56.3562V63.5625C56.3562 62.4975 55.4756 61.6143 54.4137 61.6143C53.3519 61.6143 52.4713 62.4975 52.4713 63.5625V134.582H47.1102V124.296C47.1102 123.231 46.2297 122.347 45.1678 122.347C44.1059 122.347 43.2254 123.231 43.2254 124.296V134.582H39.0557C37.6312 131.439 35.1449 128.868 32.037 127.413V119.36C32.037 114.529 35.9737 110.58 40.7909 110.58H43.2254V115.204C43.2254 116.269 44.1059 117.152 45.1678 117.152C46.2297 117.152 47.1102 116.269 47.1102 115.204V48.7818C47.1102 47.0154 46.4369 45.3789 45.1937 44.132L35.7406 34.6766C34.4974 33.4297 32.8658 32.7543 31.1047 32.7543H29.0068V27.3771H31.1047C34.2902 27.3771 37.2945 28.624 39.5477 30.884L48.9491 40.3395C51.2023 42.5994 52.4454 45.6127 52.4454 48.8078V54.4707C52.4454 55.5357 53.326 56.4189 54.3878 56.4189C55.4497 56.4189 56.3303 55.5357 56.3303 54.4707V48.7818C56.3303 44.5477 54.6986 40.5732 51.6944 37.56L42.2671 28.1045C39.2887 25.1172 35.3003 23.4547 31.0788 23.4547H28.4889C27.9709 22.5975 26.9867 22 25.8472 22H8.05458C3.59996 22 0 25.6107 0 30.0787C0 34.5467 3.59996 38.1574 8.05458 38.1574H25.8731C26.9867 38.1574 27.9709 37.56 28.5407 36.6768H31.1306C31.8557 36.6768 32.5291 36.9625 33.0212 37.4561L42.4484 46.9115C42.9405 47.4051 43.2254 48.0805 43.2254 48.8078V98.7867H40.7909C29.4471 98.7867 20.2271 108.034 20.2271 119.412V127.179C18.5178 127.906 16.9379 128.946 15.5912 130.296C12.8459 133.024 11.3438 136.661 11.3438 140.531C11.3438 148.506 17.8444 155.026 25.8213 155.026C29.6802 155.026 33.332 153.519 36.0514 150.792C37.3204 149.519 38.3305 148.064 39.0298 146.454H115.095C116.675 146.454 118.151 145.83 119.265 144.713C120.378 143.596 121 142.116 121 140.531C121 138.921 120.404 137.44 119.291 136.323ZM93.5989 53.5355L89.1443 51.6652C88.6522 51.4574 88.1342 51.4574 87.6421 51.6652L83.1875 53.5355V39.716H93.5989V53.5355ZM25.122 34.235H8.05458C5.74957 34.235 3.88485 32.3646 3.88485 30.0527C3.88485 27.7408 5.74957 25.8965 8.05458 25.8965H25.122V34.235ZM78.707 88.8377H88.9889V102.709L84.6119 100.839C84.1199 100.631 83.576 100.631 83.0839 100.839L78.707 102.709V88.8377ZM24.1119 119.386C24.1119 110.164 31.5967 102.657 40.7909 102.657H43.2254V106.71H40.7909C33.8241 106.71 28.1522 112.398 28.1522 119.386V126.218C27.4011 126.088 26.6241 126.036 25.8472 126.036C25.2774 126.036 24.6817 126.062 24.1378 126.14V119.386H24.1119ZM33.332 148.012C31.3378 150.012 28.6702 151.104 25.8472 151.104C19.994 151.104 15.2545 146.35 15.2545 140.505C15.2545 137.674 16.3423 135.024 18.3624 133.024C20.3566 131.024 23.0242 129.933 25.8472 129.933C31.7003 129.933 36.4399 134.686 36.4399 140.531C36.414 143.337 35.3262 146.012 33.332 148.012ZM116.545 141.934C116.157 142.323 115.665 142.531 115.121 142.531H40.1693C40.2729 141.856 40.2988 141.206 40.2988 140.505C40.2988 139.83 40.247 139.154 40.1434 138.505H89.5328C90.5946 138.505 91.4752 137.622 91.4752 136.557C91.4752 135.492 90.5946 134.608 89.5328 134.608H56.3044V88.8377H74.7962V105.645C74.7962 106.294 75.1329 106.917 75.6768 107.281C76.2207 107.645 76.9199 107.697 77.5156 107.437L83.835 104.735L90.1543 107.437C90.3874 107.541 90.6464 107.593 90.9054 107.593C91.2939 107.593 91.6565 107.489 91.9673 107.281C92.5111 106.917 92.8478 106.32 92.8478 105.645V88.8377H111.366V134.608H98.6492C97.5873 134.608 96.7068 135.492 96.7068 136.557C96.7068 137.622 97.5873 138.505 98.6492 138.505H115.121C115.665 138.505 116.157 138.713 116.545 139.102C116.934 139.492 117.141 139.986 117.141 140.531C117.115 141.051 116.908 141.544 116.545 141.934Z" fill="#7E53F9"/>
<path d="M107.092 127.283V120.841C107.092 119.179 105.746 117.802 104.062 117.802H89.7919C88.1344 117.802 86.7617 119.153 86.7617 120.841V127.283C86.7617 128.946 88.1085 130.322 89.7919 130.322H104.062C105.746 130.322 107.092 128.972 107.092 127.283ZM103.208 126.426H90.6725V121.724H103.208V126.426Z" fill="#7E53F9"/>
<path d="M89.2735 67.5889C87.5123 67.5889 86.0879 69.0176 86.0879 70.784V77.0443C86.0879 78.8107 87.5123 80.2395 89.2735 80.2395H103.492C105.253 80.2395 106.678 78.8107 106.678 77.0443V70.784C106.678 69.0176 105.253 67.5889 103.492 67.5889H89.2735ZM102.793 76.343H89.9727V71.4854H102.793V76.343Z" fill="#7E53F9"/>
<path d="M25.8204 133.439C23.9298 133.439 22.1687 134.167 20.8219 135.518C19.4752 136.842 18.75 138.635 18.75 140.531C18.75 142.427 19.4752 144.194 20.8219 145.545C22.1687 146.869 23.9298 147.623 25.8204 147.623C27.711 147.623 29.4722 146.895 30.8189 145.545C32.1657 144.22 32.8908 142.427 32.8908 140.531C32.8908 136.609 29.7312 133.439 25.8204 133.439ZM28.0736 142.765C27.478 143.362 26.6751 143.7 25.8204 143.7C24.9658 143.7 24.1629 143.362 23.5672 142.765C22.9715 142.168 22.6348 141.362 22.6348 140.531C22.6348 139.7 22.9715 138.895 23.5672 138.297C24.1629 137.7 24.9658 137.362 25.8204 137.362C27.5815 137.362 29.006 138.791 29.006 140.531C29.006 141.362 28.6693 142.168 28.0736 142.765Z" fill="#7E53F9"/>
</svg>
