<svg width="186" height="144" viewBox="0 0 186 144" fill="none" xmlns="http://www.w3.org/2000/svg">
<rect opacity="0.5" x="56" y="0.5" width="130" height="130" rx="65" fill="#CBF521"/>
<path d="M28.5742 61.4438H32.3928V65.3441H28.5742V61.4438Z" fill="#7E53F9"/>
<path d="M123.259 61.4438H119.077V47.1427C123.415 46.2326 126.662 42.3844 126.662 37.782V14.7703H107.569V37.782C107.569 42.3844 110.842 46.2326 115.154 47.1427V61.4438H68.4482V52.2131H83.7744C86.2682 52.2131 88.3203 50.1589 88.3203 47.6628V41.6823C92.3207 40.4862 94.4248 35.7539 92.1908 31.8796L86.3721 21.7908L80.5533 31.8796C78.3193 35.7799 80.4234 40.5122 84.4238 41.6823V47.6628C84.4238 48.0268 84.1381 48.3128 83.7744 48.3128H68.4482V30.9175C72.4486 29.7214 74.5527 24.9891 72.3188 21.1148L66.5 11L60.6813 21.0888C58.4473 24.963 60.5254 29.7214 64.5518 30.9175V48.3128H49.2256C48.8619 48.3128 48.5762 48.0268 48.5762 47.6628V41.6823C50.1867 41.1883 51.5635 40.1222 52.4467 38.6141C53.6676 36.5079 53.6676 33.9857 52.4467 31.8796L46.6279 21.7908L40.8092 31.8796C38.5752 35.7799 40.6793 40.5122 44.6797 41.6823V47.6628C44.6797 50.1589 46.7318 52.2131 49.2256 52.2131H64.5518V61.4438H36.3672V65.3441H123.259C126.48 65.3441 129.104 67.9703 129.104 71.1945V108.039C119.544 108.637 119.129 113.188 109.543 113.188C99.4383 113.188 99.2824 107.987 88.0346 107.987C82.2158 107.987 79.1506 109.469 76.4231 110.77C73.8514 112.018 71.4356 113.188 66.5 113.188C56.3951 113.188 56.2133 107.987 44.9914 107.987C39.1727 107.987 36.1074 109.469 33.3799 110.77C30.8082 112.018 28.3924 113.188 23.4568 113.188C13.8715 113.188 13.4039 108.637 3.89648 108.039V71.1945C3.89648 67.9703 6.52012 65.3441 9.74121 65.3441H24.418V61.4438H17.8199V47.1427C22.158 46.2326 25.4051 42.3844 25.4051 37.782V14.7703H6.33828V37.782C6.33828 42.3844 9.61133 46.2326 13.9234 47.1427V61.4438H9.74121C4.36406 61.4438 0 65.8121 0 71.1945V111.888H1.94824C12.1051 111.888 12.183 117.088 23.4568 117.088C34.7047 117.088 34.8346 111.888 44.9654 111.888C52.6805 111.888 54.265 114.748 59.85 116.282V130.713H40.5754V144H92.3727V130.713H83.125V134.613H88.5022V140.1H44.4979V134.613C68.0846 134.613 51.6154 134.613 73.124 134.613H78.9688V130.713H73.124V116.282C78.709 114.748 80.2936 111.888 88.0086 111.888C98.1395 111.888 98.2434 117.088 109.517 117.088C120.791 117.088 120.895 111.888 131.026 111.888H132.974V71.1945C133 65.8121 128.636 61.4438 123.259 61.4438ZM111.465 37.782V18.6706H122.765V37.782C122.765 40.9022 120.22 43.4244 117.128 43.4244C114.011 43.4504 111.465 40.9022 111.465 37.782ZM83.9303 36.6639C83.4108 35.7799 83.4108 34.7138 83.9303 33.8297L86.3721 29.5914L88.8139 33.8297C89.3334 34.7138 89.3334 35.7799 88.8139 36.6639C87.7229 38.5361 85.0213 38.5361 83.9303 36.6639ZM64.0582 23.0389L66.5 18.8006L68.9418 23.0389C70.0328 24.937 68.682 27.2772 66.5 27.2772C64.318 27.3032 62.9672 24.937 64.0582 23.0389ZM44.1861 33.8297L46.6279 29.5914L49.0697 33.8297C50.1607 35.7279 48.81 38.068 46.6279 38.068C44.4459 38.068 43.0951 35.7279 44.1861 33.8297ZM10.2348 37.782V18.6706H21.5346V37.782C21.5346 40.9022 18.9889 43.4244 15.8977 43.4244C12.8064 43.4244 10.2348 40.9022 10.2348 37.782ZM69.2275 130.713C64.292 130.713 68.1105 130.713 63.7465 130.713V116.958C65.5129 117.114 67.4611 117.114 69.2275 116.958V130.713Z" fill="#7E53F9"/>
</svg>
