<svg width="167" height="162" viewBox="0 0 167 162" fill="none" xmlns="http://www.w3.org/2000/svg">
<rect opacity="0.5" x="103" y="-17" width="96" height="171" rx="45" transform="rotate(33 103 -17)" fill="#53F9E5"/>
<path d="M76.7617 143.596H80.6582V147.492H76.7617V143.596Z" fill="#7E53F9"/>
<path d="M41.7963 26V29.8965H109.907V37.5596L23.0932 37.5076V29.8965H37.5361V26C33.3279 26 4.05234 26 0 26V159H133C133 156.948 133 27.9742 133 26C131.831 26 44.6018 26 41.7963 26ZM113.803 29.8965H127.233L113.803 48.4438C113.803 46.3656 113.803 31.6889 113.803 29.8965ZM113.803 60.4709L127.233 79.0182H113.803V60.4709ZM113.803 82.9146H127.233L113.803 101.462V82.9146ZM23.0932 41.4041H37.9258V50.2102H31.7434V66.4715H48.0047V50.2102H41.8223V41.4041L64.5777 41.4301V50.2361H58.3953V66.4975H74.6566V50.2361H68.4742V41.4301L91.2297 41.4561V50.2621H85.0473V66.5234H101.309V50.2621H95.1262V41.4561H109.907V123.282H113.803V113.489L127.233 132.036H113.803V127.127H109.907V132.036C108.738 132.036 24.5998 132.036 23.0932 132.036C23.0932 127.153 23.0932 46.5994 23.0932 41.4041ZM44.1082 54.1066V62.575H35.6398V54.1066H44.1082ZM70.7602 54.1326V62.601H62.2918V54.1326H70.7602ZM97.4121 54.1586V62.627H88.9437V54.1586H97.4121ZM19.2227 29.8965V48.4438L5.7668 29.8965H19.2227ZM5.7668 79.0182L19.2227 60.4709V79.0182H5.7668ZM19.2227 82.9146V101.462L5.7668 82.9146H19.2227ZM3.89648 33.9488L17.3523 52.4961H3.89648V33.9488ZM3.89648 56.3926H17.3523L3.89648 74.9658V56.3926ZM3.89648 86.967L17.3523 105.514H3.89648V86.967ZM19.2227 113.489V132.036H5.7668L19.2227 113.489ZM3.89648 109.437H17.3523L3.89648 127.984V109.437ZM15.9756 155.104H3.89648V135.933H27.4832V143.596H15.9756V155.104ZM113.05 155.104H19.8721V147.492H72.7863V143.596H31.3537V135.933C41.043 135.933 58.9148 135.933 101.568 135.933V143.596H84.6316V147.492H113.05V155.104ZM129.104 155.104H116.946V143.596H105.465V135.933H129.104V155.104ZM129.104 127.984L115.674 109.437H129.104V127.984ZM129.104 105.54H115.674L129.104 86.993V105.54ZM129.104 74.9658L115.674 56.3926H129.104V74.9658ZM129.104 52.5221H115.674L129.104 33.9488V52.5221Z" fill="#7E53F9"/>
</svg>
