<svg width="186" height="131" viewBox="0 0 186 131" fill="none" xmlns="http://www.w3.org/2000/svg">
<rect opacity="0.5" x="56" y="0.5" width="130" height="130" rx="65" fill="#CBF521"/>
<path d="M18.998 123.887H23.4355V128H18.998V123.887Z" fill="#7E53F9"/>
<path d="M84.1738 34.389V11H76.9629V15.113H80.0137V44.5892H61.9863V15.113H72.5254V11H57.8262V34.389H0V128H15.1152V123.887H4.16016V38.502H57.8262V44.5892H50.948V48.7021H91.0242V44.5892H84.1461V38.502H137.84V123.887H28.3445V128H142V34.389H84.1738Z" fill="#7E53F9"/>
<path d="M14.9492 58.957V100.087V100.114V114.372H60.8496V100.114V100.087V58.957H14.9492ZM34.8625 96.3027C35.8332 96.5495 36.8316 96.6866 37.8855 96.6866C38.9395 96.6866 39.9379 96.5495 40.9086 96.3027V98.4415C40.9086 100.087 39.5496 101.43 37.8855 101.43C36.2215 101.43 34.8625 100.087 34.8625 98.4415V96.3027ZM45.3738 85.1977C45.3738 89.2558 42.018 92.5736 37.9133 92.5736C33.8086 92.5736 30.4527 89.2558 30.4527 85.1977V80.8654C30.4527 76.8073 33.8086 73.4895 37.9133 73.4895C42.018 73.4895 45.3738 76.8073 45.3738 80.8654V85.1977ZM30.7023 96.6866V98.414C30.7023 102.335 33.9195 105.516 37.8855 105.516C41.8516 105.516 45.0688 102.335 45.0688 98.414V96.6866H53.2227C55.1363 96.6866 56.6895 98.2221 56.6895 100.087V110.232H19.1094V100.087C19.1094 98.1947 20.6625 96.6866 22.5762 96.6866H30.7023ZM56.6895 63.07V93.3962C55.6355 92.8752 54.4707 92.5736 53.2227 92.5736H46.816C48.5078 90.572 49.534 87.9945 49.534 85.1977V80.8654C49.534 74.5314 44.3199 69.3765 37.9133 69.3765C31.5066 69.3765 26.2926 74.5314 26.2926 80.8654V85.1977C26.2926 87.9945 27.3187 90.572 29.0105 92.5736H22.5762C21.3281 92.5736 20.1633 92.8752 19.1094 93.3962V63.07H56.6895Z" fill="#7E53F9"/>
<path d="M106.445 58.957H125V63.07H106.445V58.957Z" fill="#7E53F9"/>
<path d="M74.4121 58.957H102.146V63.07H74.4121V58.957Z" fill="#7E53F9"/>
<path d="M74.4121 71.7896H99.7059V75.9025H74.4121V71.7896Z" fill="#7E53F9"/>
<path d="M74.4121 84.6221H124.972V88.735H74.4121V84.6221Z" fill="#7E53F9"/>
<path d="M74.4121 97.4272H99.7059V101.54H74.4121V97.4272Z" fill="#7E53F9"/>
<path d="M74.4121 110.259H124.972V114.372H74.4121V110.259Z" fill="#7E53F9"/>
<path d="M112.49 44.5894H116.65V48.7023H112.49V44.5894Z" fill="#7E53F9"/>
<path d="M120.811 44.5894H124.971V48.7023H120.811V44.5894Z" fill="#7E53F9"/>
</svg>
