<svg width="154" height="149" viewBox="0 0 154 149" fill="none" xmlns="http://www.w3.org/2000/svg">
<rect opacity="0.5" x="56" y="50.5" width="98" height="98" fill="#53F9E5"/>
<path d="M129.753 46.4201C131.545 46.4201 133 44.9654 133 43.173V37.3803C133 36.1853 132.351 35.0943 131.286 34.5228L86.0084 10.1309C85.0732 9.61133 83.8783 9.975 83.3588 10.9102C82.8393 11.8453 83.2029 13.0402 84.1381 13.5598L129.078 37.7699V42.5236H113.647V40.9131C113.647 39.1207 112.193 37.666 110.4 37.666H22.5996C20.8072 37.666 19.3525 39.1207 19.3525 40.9131V42.5236H4.36406V37.7699L66.7338 4.15625L76.1633 9.24765C77.0984 9.76719 78.2934 9.40351 78.8129 8.46836C79.3324 7.5332 78.9688 6.33828 78.0336 5.81875L67.6689 0.233789C67.0975 -0.0779297 66.3961 -0.0779297 65.8246 0.233789L2.18203 34.5228C1.11699 35.0943 0.467578 36.1853 0.467578 37.3803V43.173C0.467578 44.9654 1.92227 46.4201 3.71465 46.4201H5.84473V117.076H3.24707C1.45469 117.076 0 118.531 0 120.323V129.779C0 131.571 1.45469 133.026 3.24707 133.026H129.753C131.545 133.026 133 131.571 133 129.779V120.323C133 118.531 131.545 117.076 129.753 117.076H127.181V46.4201H129.753ZM106.478 60.0578H93.048C91.983 60.0578 91.0998 60.941 91.0998 62.006C91.0998 63.0711 91.983 63.9543 93.048 63.9543H106.478V68.8379H26.5221V63.9543H83.9563C85.0213 63.9543 85.9045 63.0711 85.9045 62.006C85.9045 60.941 85.0213 60.0578 83.9563 60.0578H26.5221V55.1742H106.478V60.0578ZM23.249 41.5625H109.777V51.2777H23.249V41.5625ZM9.74121 46.4201H19.3525V51.9531C19.3525 53.7455 20.8072 55.2002 22.5996 55.2002H22.6256V80.1117C22.6256 81.1768 23.5088 82.06 24.5738 82.06C25.6389 82.06 26.5221 81.1768 26.5221 80.1117V72.7344H106.478V129.104H93.2559V114.167C93.2559 112.375 91.8012 110.92 90.0088 110.92H88.8139V105.777C88.8139 104.712 87.9307 103.828 86.8656 103.828C85.8006 103.828 84.9174 104.712 84.9174 105.777V110.92C82.7873 110.92 70.3445 110.92 68.5262 110.92V92.035H84.9174V96.7107C84.9174 97.7758 85.8006 98.659 86.8656 98.659C87.9307 98.659 88.8139 97.7758 88.8139 96.7107V91.3855C88.8139 89.5931 87.3592 88.1385 85.5668 88.1385H77.2023V81.9301C77.2023 80.1377 75.7477 78.683 73.9553 78.683H47.5891C45.7967 78.683 44.342 80.1377 44.342 81.9301V110.92H43.0172C41.2248 110.92 39.7701 112.375 39.7701 114.167V129.104H26.548V89.2035C26.548 88.1385 25.6648 87.2553 24.5998 87.2553C23.5348 87.2553 22.6516 88.1385 22.6516 89.2035V117.076H9.74121V46.4201ZM73.3059 88.1385H67.8768C66.0844 88.1385 64.6297 89.5931 64.6297 91.3855V110.92H48.2385V82.5795H73.3059V88.1385ZM69.4613 114.816V129.104H43.6406V114.816H69.4613ZM73.3578 114.816H89.3594V129.104H73.3578V114.816ZM3.89648 120.947H22.6516V129.104H3.89648V120.947ZM129.104 129.104H110.374V120.947H129.104V129.104ZM123.285 117.05H110.4V55.1742H110.452C112.245 55.1742 113.699 53.7195 113.699 51.9271V46.3941H123.311L123.285 117.05Z" fill="#7E53F9"/>
<path d="M53.4072 108.322H56.9141C57.9791 108.322 58.8623 107.439 58.8623 106.374C58.8623 105.309 57.9791 104.426 56.9141 104.426H53.4072C52.3422 104.426 51.459 105.309 51.459 106.374C51.459 107.439 52.3162 108.322 53.4072 108.322Z" fill="#7E53F9"/>
<path d="M54.1865 120.947H57.6934C58.7584 120.947 59.6416 120.064 59.6416 118.999C59.6416 117.933 58.7584 117.05 57.6934 117.05H54.1865C53.1215 117.05 52.2383 117.933 52.2383 118.999C52.2383 120.064 53.1215 120.947 54.1865 120.947Z" fill="#7E53F9"/>
<path d="M82.8125 117.05H79.3057C78.2406 117.05 77.3574 117.933 77.3574 118.999C77.3574 120.064 78.2406 120.947 79.3057 120.947H82.8125C83.8775 120.947 84.7607 120.064 84.7607 118.999C84.7607 117.933 83.8775 117.05 82.8125 117.05Z" fill="#7E53F9"/>
<path d="M76.7344 104.426H73.2275C72.1625 104.426 71.2793 105.309 71.2793 106.374C71.2793 107.439 72.1625 108.322 73.2275 108.322H76.7344C77.7994 108.322 78.6826 107.439 78.6826 106.374C78.6826 105.309 77.7994 104.426 76.7344 104.426Z" fill="#7E53F9"/>
</svg>
