<svg width="165" height="154" viewBox="0 0 165 154" fill="none" xmlns="http://www.w3.org/2000/svg">
<rect opacity="0.25" y="24" width="130" height="130" rx="65" fill="#FF2742"/>
<path d="M33.9482 66.4481H42.7803C46.5988 66.4481 50.1836 65.2013 53.7164 62.6556C54.5996 62.0321 54.7815 60.8112 54.158 59.928C53.5346 59.0448 52.3137 58.863 51.4305 59.4864C48.5731 61.5386 45.7416 62.5517 42.7803 62.5517H33.9482C32.8832 62.5517 32 63.4349 32 64.4999C32 65.5649 32.8832 66.4481 33.9482 66.4481Z" fill="#7E53F9"/>
<path d="M165.001 83.4367C165.001 78.2414 161.546 73.8773 156.818 72.4486C158.87 70.3705 160.143 67.5391 160.143 64.3959C160.143 58.0836 155 52.9142 148.661 52.9142H137.569C136.063 51.0699 134.426 49.3555 132.686 47.8228L136.79 41.5105C137.258 40.8092 137.387 39.952 137.206 39.1207C136.998 38.1855 136.4 37.3543 135.569 36.8088L129.802 33.0941C128.166 32.0291 126.01 32.4187 125.023 33.9254L120.788 40.4715C117.931 39.3285 114.944 38.4713 111.853 37.9777V32.8863H112.84C114.632 32.8863 116.087 31.4316 116.087 29.6393V21.5605C116.087 19.7682 114.632 18.3135 112.84 18.3135H108.294C108.268 17.5861 108.242 16.8588 108.216 16.0795C108.086 13.6377 107.748 11.6115 107.177 10.0529C104.891 3.55879 100.916 0 95.9289 0C91.6687 0 88.3957 2.51973 87.6424 6.52012C87.6424 6.57207 86.993 13.1182 86.993 13.1441C86.7592 16.1314 84.0316 22.5996 81.0443 27.3014C79.3299 30.0029 75.3035 33.8475 71.7447 37.2504C69.6146 39.3025 67.5885 41.2248 66.0039 42.9393C64.5752 44.4978 63.0945 46.4201 61.5619 48.4463C60.2891 50.1088 58.9902 51.8232 57.6135 53.4857C56.9121 54.317 57.016 55.5379 57.8473 56.2393C58.2109 56.551 58.6525 56.7068 59.0941 56.7068C59.6396 56.7068 60.2111 56.473 60.5748 56.0055C62.0295 54.265 63.3543 52.5246 64.6531 50.8102C66.1338 48.8619 67.5365 46.9916 68.8613 45.5889C70.368 43.9523 72.3422 42.082 74.4203 40.0818C78.3168 36.3672 82.3432 32.5227 84.3174 29.4055C87.2527 24.7557 90.4998 17.5342 90.8375 13.5078L91.4609 7.06562C91.7726 5.84473 92.7598 3.92246 95.8769 3.92246C99.9553 3.92246 102.267 7.9748 103.462 11.3777C103.748 12.209 104.137 13.7416 104.267 16.3133C104.293 17.0146 104.319 17.69 104.345 18.3395H97.6174C95.825 18.3395 94.3703 19.7941 94.3703 21.5865V29.6912C94.3703 31.4836 95.825 32.9383 97.6174 32.9383H98.6045V37.9777C78.6545 41.0689 63.3283 58.3174 63.3283 79.0726C63.3283 90.4504 67.8742 101.101 76.1348 109.024C76.5244 109.387 76.992 109.569 77.4855 109.569C78.0051 109.569 78.4986 109.361 78.8883 108.972C79.6416 108.192 79.6156 106.971 78.8363 106.218C71.3551 99.0486 67.2248 89.4113 67.2248 79.0726C67.2248 58.2914 84.2135 41.3807 105.073 41.3807C115.489 41.3807 125.204 45.5629 132.348 52.9662H125.854C125.438 52.9662 124.997 52.9922 124.581 53.0441C118.918 48.81 112.19 46.576 105.073 46.576C102.449 46.576 99.8254 46.8877 97.3057 47.5111C96.2666 47.7709 95.6172 48.81 95.8769 49.875C96.1367 50.94 97.1758 51.5635 98.2408 51.3037C99.8773 50.9141 101.566 50.6543 103.28 50.5504V55.8236C103.28 56.8887 104.163 57.7719 105.229 57.7719C106.294 57.7719 107.177 56.8887 107.177 55.8236V50.5764C111.723 50.8881 116.061 52.2648 119.957 54.6287C116.632 56.6289 114.398 60.2916 114.398 64.4478C114.398 68.3963 116.424 71.9031 119.464 73.9553C118.866 74.3709 118.269 74.8385 117.749 75.358C115.593 77.5141 114.398 80.3974 114.398 83.4627C114.398 87.4891 116.476 91.0219 119.62 93.074C116.632 95.1521 114.658 98.607 114.658 102.504C114.658 103.672 114.84 104.789 115.152 105.854C112.58 106.816 109.93 107.387 107.177 107.595V102.763C107.177 101.698 106.294 100.815 105.229 100.815C104.163 100.815 103.28 101.698 103.28 102.763V107.595C96.8641 107.205 90.9934 104.686 86.3955 100.763L89.0711 98.0875C89.8244 97.3342 89.8244 96.0873 89.0711 95.334C88.3178 94.5807 87.0709 94.5807 86.3176 95.334L83.616 98.0355C79.4857 93.4377 76.8361 87.4891 76.4205 80.9689H81.1223C81.9016 83.0211 83.9018 84.5017 86.2396 84.5017H99.7994V92.5545C99.7994 95.5678 102.267 98.0355 105.28 98.0355C108.294 98.0355 110.762 95.5678 110.762 92.5545V82.6055C111.437 81.5924 111.827 80.3715 111.827 79.0467C111.827 76.1373 109.904 73.6435 107.229 72.8123V67.4611C107.229 66.3961 106.346 65.5129 105.28 65.5129C104.215 65.5129 103.332 66.3961 103.332 67.4611V72.8123C102.761 72.9941 102.215 73.2539 101.722 73.5656H86.2656C83.9277 73.5656 81.9535 75.0463 81.1482 77.0984H76.4465C76.8881 70.8381 79.4338 64.9154 83.5121 60.2656L86.1617 62.9152C86.5514 63.3049 87.0449 63.4867 87.5385 63.4867C88.032 63.4867 88.5256 63.3049 88.9152 62.9152C89.6686 62.1619 89.6686 60.915 88.9152 60.1617L86.2916 57.4601C87.5644 56.3432 88.9412 55.356 90.4219 54.4728C91.357 53.9273 91.6428 52.7324 91.0973 51.7973C90.5518 50.8621 89.3568 50.5764 88.4217 51.1219C83.668 53.9533 79.6676 57.9797 76.8881 62.7594C74.0047 67.6949 72.498 73.3059 72.498 79.0207C72.498 96.9445 87.1488 111.517 105.151 111.517C109.229 111.517 113.203 110.764 116.97 109.309C117.723 110.322 118.632 111.18 119.646 111.907C118.399 112.712 117.334 113.777 116.476 114.998C112.814 116.141 108.995 116.739 105.125 116.739C98.2928 116.739 91.6168 114.894 85.7721 111.439C84.8369 110.894 83.642 111.18 83.0965 112.115C82.551 113.05 82.8367 114.245 83.7719 114.79C90.2141 118.635 97.5914 120.661 105.125 120.661C108.32 120.661 111.515 120.297 114.606 119.57C114.502 120.22 114.424 120.869 114.424 121.544C114.424 124.454 115.515 127.103 117.282 129.129H103.436C96.4484 129.129 89.5646 127.285 83.5381 123.752C75.4853 119.077 66.3156 116.609 57.016 116.635L33.9229 116.661C32.8578 116.661 31.9746 117.544 31.9746 118.609C31.9746 119.674 32.8578 120.557 33.9229 120.557C34.0527 120.557 57.016 120.531 57.1459 120.531C65.7182 120.531 74.1605 122.817 81.5639 127.129C88.1879 130.974 95.7471 133.026 103.41 133.026H141.7C148.012 133.026 153.155 127.883 153.155 121.544C153.155 118.609 152.038 115.933 150.22 113.881C155.909 113.232 160.351 108.374 160.351 102.504C160.351 99.3344 159.052 96.4769 156.974 94.3988C158.688 93.8533 160.273 92.8922 161.598 91.5674C163.806 89.3853 165.001 86.5019 165.001 83.4367ZM127.984 36.549L133.205 39.9L129.646 45.3811C127.958 44.1601 126.218 43.0691 124.373 42.108L127.984 36.549ZM98.3187 22.21H112.19V29.0158H98.3187V22.21ZM102.553 37.5361V32.9123H107.956V37.5621C107.021 37.5102 106.06 37.4582 105.099 37.4582C104.267 37.4582 103.41 37.4842 102.553 37.5361ZM105.254 94.0871C104.371 94.0871 103.67 93.3857 103.67 92.5025V85.307C104.163 85.4369 104.709 85.4889 105.254 85.4889C105.8 85.4889 106.32 85.4109 106.839 85.307V92.5025C106.839 93.3857 106.138 94.0871 105.254 94.0871ZM105.254 81.6184C103.8 81.6184 102.605 80.4494 102.605 78.9947C102.605 77.54 103.8 76.3711 105.254 76.3711C106.709 76.3711 107.904 77.54 107.904 78.9947C107.904 80.4494 106.709 81.6184 105.254 81.6184ZM86.2656 77.4361H98.9162C98.7863 77.9297 98.7084 78.4752 98.7084 79.0207C98.7084 79.5662 98.7863 80.0857 98.9162 80.6053H86.2656C85.3824 80.6053 84.681 79.9039 84.681 79.0207C84.681 78.1375 85.3824 77.4361 86.2656 77.4361ZM141.726 129.104H125.906C121.724 129.104 118.321 125.701 118.321 121.518C118.321 117.336 121.724 113.933 125.906 113.933C126.218 113.933 141.414 113.933 141.726 113.933C145.908 113.933 149.311 117.336 149.311 121.518C149.285 125.701 145.882 129.104 141.726 129.104ZM148.921 110.063H126.14C121.957 110.063 118.554 106.66 118.554 102.478C118.554 98.3213 121.931 94.9443 126.088 94.9184C126.244 94.9184 148.791 94.9184 148.973 94.9184C153.129 94.9443 156.506 98.3213 156.506 102.478C156.48 106.66 153.103 110.063 148.921 110.063ZM158.896 88.7879C157.467 90.2166 155.571 90.9959 153.545 90.9959C150.558 90.9959 129.387 90.9959 125.906 90.9959C121.724 90.9959 118.347 87.593 118.347 83.4107C118.347 81.3846 119.126 79.4883 120.555 78.0596C121.983 76.6309 123.88 75.8516 125.906 75.8516H135.179C136.245 75.8516 137.128 74.9684 137.128 73.9033C137.128 72.8383 136.245 71.9551 135.179 71.9551H125.906C121.724 71.9551 118.347 68.5521 118.347 64.3699C118.347 60.1877 121.75 56.7848 125.906 56.7848H148.687C152.87 56.7848 156.272 60.1877 156.272 64.3699C156.272 68.5521 152.87 71.9551 148.687 71.9551H144.271C143.206 71.9551 142.323 72.8383 142.323 73.9033C142.323 74.9684 143.206 75.8516 144.271 75.8516H153.545C157.727 75.8516 161.104 79.2545 161.104 83.4107C161.104 85.4629 160.325 87.3592 158.896 88.7879Z" fill="#7E53F9"/>
</svg>
