<svg width="136" height="133" viewBox="0 0 136 133" fill="none" xmlns="http://www.w3.org/2000/svg">
<rect opacity="0.5" x="50" y="43" width="86" height="86" fill="#FB6CC2"/>
<path d="M85.3224 111.362C87.7453 107.751 89.074 103.465 89.074 99.0746V94.6326C89.074 93.5676 88.1882 92.6844 87.12 92.6844C86.0518 92.6844 85.1661 93.5676 85.1661 94.6326V99.0746C85.1661 103.127 83.8113 107.049 81.3103 110.245L78.184 109.439C77.8974 108.608 77.2982 107.907 76.4905 107.517L68.1797 103.361C66.4082 102.478 64.2979 102.711 62.7868 103.984L62.2658 104.426C61.9011 103.88 61.6926 103.231 61.6926 102.581V93.2299C62.3179 92.7623 62.9432 92.2688 63.5163 91.7232L73.26 82.6314C75.0837 80.917 76.6208 78.9428 77.7932 76.7088C78.184 75.9814 78.5226 75.2281 78.8092 74.4748H85.1921V85.5668C85.1921 86.6318 86.0779 87.515 87.1461 87.515C88.2142 87.515 89.1 86.6318 89.1 85.5668V73.2799C90.9237 72.033 92.0961 69.9809 92.0961 67.617V54.2131C92.0961 51.8752 90.8976 49.7971 89.1 48.5502V39.874C89.1 17.8719 71.3321 0 49.5261 0C27.0426 0 11.1505 13.7936 9.97816 34.341C9.92605 35.4061 10.7337 36.3412 11.8279 36.3932C12.8961 36.4451 13.8339 35.6398 13.8861 34.5488C14.9542 15.9236 28.9445 3.89648 49.5261 3.89648C69.1958 3.89648 85.1921 20.0279 85.1921 39.8221V47.3033H82.0137V40.1078C82.0137 31.068 78.2621 22.3658 71.6968 16.1834C70.9153 15.4561 69.6647 15.482 68.9353 16.2613C68.2058 17.0406 68.2318 18.2875 69.0134 19.0148C74.7971 24.4699 78.1058 32.159 78.1058 40.1078V47.2773C77.4805 47.1475 76.9855 46.7318 76.7771 46.1084L74.5887 39.5363C72.9474 34.6527 69.6126 30.4965 65.1576 27.8729L51.5061 19.8201V11.3518C55.1795 11.5855 58.6966 12.5467 62.0313 14.1832C62.9953 14.6508 64.1676 14.2611 64.6366 13.3C65.1055 12.3389 64.7147 11.1699 63.7508 10.7023C59.2958 8.52031 54.5282 7.40332 49.5521 7.40332C40.1471 7.40332 31.9926 10.6764 26.0005 16.8328C20.1908 22.7555 17.0124 30.9121 17.0124 39.7701V47.3293H13.8339V43.5627C13.8339 42.4977 12.9482 41.6145 11.88 41.6145C10.8118 41.6145 9.92605 42.4977 9.92605 43.5627V48.5242C8.12842 49.7711 6.93 51.8232 6.93 54.1871V67.591C6.93 69.9289 8.12842 72.007 9.92605 73.2539V99.0746C9.92605 103.465 11.2547 107.751 13.6776 111.362C5.57526 114.401 0 122.22 0 131.052C0 132.117 0.88579 133 1.95395 133C3.02211 133 3.90789 132.117 3.90789 131.052C3.90789 125.259 6.85184 120.038 11.4111 116.895L13.5734 119.206C15.8921 121.674 17.1687 124.895 17.1687 128.272V131.052C17.1687 132.117 18.0545 133 19.1226 133C20.1908 133 21.0766 132.117 21.0766 131.052V128.272C21.0766 123.908 19.4353 119.752 16.4392 116.557L15.0063 115.024C16.7258 114.375 20.0605 113.699 21.8582 113.18L37.0729 126.22C38.0108 127.025 39.1571 127.415 40.3034 127.415C41.58 127.415 42.8566 126.921 43.8205 125.96L47.5461 122.246V131.052C47.5461 132.117 48.4318 133 49.5 133C50.5682 133 51.4539 132.117 51.4539 131.052V122.246L55.1795 125.96C56.1434 126.921 57.42 127.415 58.6966 127.415C59.8429 127.415 61.0153 127.025 61.9271 126.22L66.4342 122.35C67.2418 121.648 67.3461 120.427 66.6426 119.596C65.9392 118.791 64.7147 118.687 63.8811 119.388L59.3739 123.259C58.9571 123.622 58.3318 123.596 57.9411 123.207L52.3918 117.674L65.2879 106.946C65.6005 106.686 66.0695 106.634 66.4342 106.816L74.0937 110.634L70.8111 113.44C70.0034 114.141 69.8992 115.362 70.6026 116.193C71.3061 116.998 72.5305 117.102 73.3642 116.401L77.1418 113.154C78.9655 113.673 82.2742 114.349 83.9937 114.998L82.5608 116.531C79.5647 119.726 77.9234 123.882 77.9234 128.246V131.026C77.9234 132.091 78.8092 132.974 79.8774 132.974C80.9455 132.974 81.8313 132.091 81.8313 131.026V128.246C81.8313 124.869 83.1079 121.648 85.4266 119.18L87.589 116.869C92.1482 119.986 95.0921 125.233 95.0921 131.026C95.0921 132.091 95.9779 132.974 97.0461 132.974C98.1142 132.974 99 132.091 99 131.026C99 122.22 93.4247 114.401 85.3224 111.362ZM80.3724 66.2662V51.1998H85.2182C86.8595 51.1998 88.1882 52.5246 88.1882 54.1611V67.565C88.1882 69.2016 86.8595 70.5264 85.2182 70.5264H79.9555C80.2421 69.1236 80.3724 67.6949 80.3724 66.2662ZM70.8371 40.7832L73.0255 47.3553C73.5726 49.0178 74.8492 50.2906 76.4384 50.8621V66.2662C76.4384 66.8117 76.4124 67.3572 76.3603 67.9027C76.2561 67.9547 67.7629 74.0592 67.6587 74.1371C65.9653 75.358 63.9332 75.9814 61.8229 75.9295C61.5103 73.7994 59.6605 72.1629 57.4461 72.1629H51.6103C49.1613 72.1629 47.1813 74.1371 47.1813 76.5789V77.3582C46.3216 77.1764 45.4618 76.8646 44.6803 76.475C43.7163 75.9814 42.5439 76.3711 42.0489 77.3322C41.5539 78.2934 41.9447 79.4623 42.9087 79.9559C44.5761 80.8131 46.4518 81.3326 48.3276 81.4625C49.1353 82.3457 50.3076 82.9172 51.6103 82.9172H57.4461C59.4261 82.9172 61.0934 81.6184 61.6666 79.826C64.6366 79.9039 67.5284 79.0467 69.9253 77.3063L74.7971 73.7994C74.6408 74.1631 74.4584 74.5008 74.3021 74.8385C73.3382 76.6568 72.0876 78.3193 70.5766 79.7221L60.8329 88.8139C57.7326 91.6973 53.7205 93.2818 49.4739 93.2818C45.2274 93.2818 41.2153 91.6973 38.115 88.8139L28.3974 79.748C26.8863 78.3453 25.6358 76.6828 24.6718 74.8645C23.2911 72.2408 22.5616 69.2535 22.5616 66.2922V50.8881C24.1508 50.3166 25.4274 49.0437 25.9745 47.3812L28.1629 40.8092C29.4916 36.8088 32.2532 33.4318 35.8745 31.2758L49.5 23.223L63.1255 31.2498C66.7729 33.4059 69.5084 36.7828 70.8371 40.7832ZM58.0192 76.5789V78.5012C58.0192 78.7869 57.7847 79.0207 57.4982 79.0207H51.6624C51.3758 79.0207 51.1413 78.7869 51.1413 78.5012V76.5789C51.1413 76.2932 51.3758 76.0594 51.6624 76.0594H57.4982C57.7847 76.0594 58.0192 76.2932 58.0192 76.5789ZM36.7342 104.4L36.2132 103.958C34.7021 102.711 32.5658 102.452 30.8203 103.335L22.5095 107.491C21.7018 107.881 21.1026 108.582 20.8161 109.413L17.6897 110.219C15.2147 107.023 13.8339 103.101 13.8339 99.0486V74.4229H20.1908C20.4774 75.1762 20.8161 75.9295 21.2068 76.6568C22.3792 78.8648 23.8903 80.865 25.74 82.5795L35.4837 91.6713C36.0568 92.2168 36.6821 92.7104 37.3074 93.1779V102.529C37.2813 103.205 37.0989 103.854 36.7342 104.4ZM18.6276 51.2258V66.2922C18.6276 67.7209 18.7579 69.1496 19.0445 70.5523H13.7818C12.1405 70.5523 10.8118 69.2275 10.8118 67.591V54.1871C10.8118 52.5506 12.1405 51.2258 13.7818 51.2258H18.6276ZM28.7621 19.5344C33.5818 14.5729 40.0429 11.7674 47.5461 11.3518V19.8461L33.8945 27.8988C29.4395 30.5225 26.1047 34.6527 24.4634 39.5623L22.275 46.1344C22.0666 46.7318 21.5455 47.1734 20.9463 47.3033V39.7961C20.9203 31.9252 23.7079 24.7297 28.7621 19.5344ZM41.059 123.207C40.6682 123.596 40.0429 123.622 39.6261 123.259L24.9063 110.634L32.5658 106.816C32.9305 106.634 33.3995 106.686 33.7121 106.946L46.6082 117.674L41.059 123.207ZM49.5 114.998L39.7303 106.894C40.6682 105.647 41.1892 104.114 41.1892 102.529V95.4639C43.7684 96.6068 46.6082 97.2043 49.5 97.2043C52.3918 97.2043 55.2055 96.6068 57.8108 95.4639V102.529C57.8108 104.114 58.3318 105.647 59.2697 106.894L49.5 114.998Z" fill="#7E53F9"/>
<path d="M47.1821 64.8114C46.2182 64.3178 45.0458 64.7075 44.5508 65.6686C44.0558 66.6297 44.4466 67.7987 45.4105 68.2922C46.6871 68.9417 48.12 69.2794 49.5268 69.2794C50.9337 69.2794 52.3405 68.9417 53.6431 68.2922C54.6071 67.7987 54.9979 66.6297 54.5029 65.6686C54.0079 64.7075 52.8355 64.3178 51.8716 64.8114C50.3866 65.5387 48.641 65.5387 47.1821 64.8114Z" fill="#7E53F9"/>
<path d="M37.7235 50.8882C36.6553 50.8882 35.7695 51.7714 35.7695 52.8364V57.0446C35.7695 58.1097 36.6553 58.9929 37.7235 58.9929C38.7916 58.9929 39.6774 58.1097 39.6774 57.0446V52.8364C39.6774 51.7714 38.7916 50.8882 37.7235 50.8882Z" fill="#7E53F9"/>
<path d="M61.3016 50.8882C60.2334 50.8882 59.3477 51.7714 59.3477 52.8364V57.0446C59.3477 58.1097 60.2334 58.9929 61.3016 58.9929C62.3698 58.9929 63.2556 58.1097 63.2556 57.0446V52.8364C63.2556 51.7714 62.3698 50.8882 61.3016 50.8882Z" fill="#7E53F9"/>
<path d="M42.6747 43.9782C39.5744 42.2638 35.8489 42.2638 32.7486 43.9782C31.8107 44.4978 31.446 45.6927 31.967 46.6278C32.4881 47.563 33.6865 47.9267 34.6244 47.4071C36.5523 46.3421 38.8449 46.3421 40.7728 47.4071C41.0594 47.563 41.3981 47.6409 41.7107 47.6409C42.3881 47.6409 43.0655 47.2772 43.4302 46.6278C43.9773 45.6927 43.6126 44.4978 42.6747 43.9782Z" fill="#7E53F9"/>
<path d="M58.2012 47.4071C60.1291 46.3421 62.4218 46.3421 64.3497 47.4071C64.6362 47.563 64.9749 47.6409 65.2876 47.6409C65.9649 47.6409 66.6423 47.2772 67.007 46.6278C67.5281 45.6927 67.1894 44.4978 66.2254 43.9782C63.1252 42.2638 59.3997 42.2638 56.2994 43.9782C55.3615 44.4978 54.9968 45.6927 55.5178 46.6278C56.0649 47.589 57.2633 47.9267 58.2012 47.4071Z" fill="#7E53F9"/>
</svg>
